SplineFontDB: 3.0
FontName: Luna-ExtraBold
FullName: Luna Extra Bold Regular
FamilyName: Luna Extra Bold
Weight: Heavy
Copyright: Copyright (c) 2013 - 2016, Juan Pablo del Peral [huertatipografica.com.ar], Cristiano Sobral [cssobral2013@gmail.com].
Version: 1.501;PS 001.000;hotconv 1.0.70;makeotf.lib2.5.58329 DEVELOPMENT
ItalicAngle: 0
UnderlinePosition: -221
UnderlineWidth: 137
Ascent: 1638
Descent: 410
sfntRevision: 0x00010000
LayerCount: 2
Layer: 0 0 "Back"  1
Layer: 1 0 "Fore"  0
XUID: [1021 633 1153022450 10547864]
FSType: 4
OS2Version: 3
OS2_WeightWidthSlopeOnly: 0
OS2_UseTypoMetrics: 1
CreationTime: 1386077595
ModificationTime: 1462128471
PfmFamily: 81
TTFWeight: 800
TTFWidth: 5
LineGap: 0
VLineGap: 0
Panose: 0 0 9 0 0 0 0 0 0 0
OS2TypoAscent: 1638
OS2TypoAOffset: 0
OS2TypoDescent: -410
OS2TypoDOffset: 0
OS2TypoLinegap: 0
OS2WinAscent: 2431
OS2WinAOffset: 0
OS2WinDescent: 682
OS2WinDOffset: 0
HheadAscent: 2431
HheadAOffset: 0
HheadDescent: -682
HheadDOffset: 0
OS2SubXSize: 1331
OS2SubYSize: 1229
OS2SubXOff: 0
OS2SubYOff: 154
OS2SupXSize: 1331
OS2SupYSize: 1229
OS2SupXOff: 0
OS2SupYOff: 717
OS2StrikeYSize: 137
OS2StrikeYPos: 573
OS2Vendor: 'UKWN'
OS2CodePages: 20000193.00000000
OS2UnicodeRanges: 20000007.00000000.00000000.00000000
Lookup: 1 0 0 "'aalt' Access All Alternates lookup 0"  {"'aalt' Access All Alternates lookup 0 subtable"  } ['aalt' ('DFLT' <'dflt' > 'grek' <'dflt' > 'latn' <'CAT ' 'ESP ' 'MOL ' 'NLD ' 'ROM ' 'TRK ' 'dflt' > ) ]
Lookup: 3 0 0 "'aalt' Access All Alternates lookup 1"  {"'aalt' Access All Alternates lookup 1 subtable"  } ['aalt' ('DFLT' <'dflt' > 'grek' <'dflt' > 'latn' <'CAT ' 'ESP ' 'MOL ' 'NLD ' 'ROM ' 'TRK ' 'dflt' > ) ]
Lookup: 6 0 0 "'locl' Localized Forms in Latin lookup 2"  {"'locl' Localized Forms in Latin lookup 2 contextual 0"  "'locl' Localized Forms in Latin lookup 2 contextual 1"  } ['locl' ('latn' <'CAT ' > ) ]

StartChar: exclam
Encoding: 33 33 2
Width: 602
GlyphClass: 2
Flags: W
LayerCount: 2
Fore
SplineSet
507 1462 m 1
 412 554 l 1
 209 525 l 1
 176 561 l 1
 148 1446 l 1
 180 1487 l 1
 466 1505 l 1
 507 1462 l 1
284 356 m 0
 338.667 356 381.333 340.168 412 308.501 c 0
 442.667 276.834 458 233.334 458 178.001 c 0
 458 118.001 441 70.334 407 35.001 c 0
 373 -0.332031 327.5 -17.999 270.5 -17.999 c 0
 213.5 -17.999 169.5 -2.33203 138.5 29.001 c 0
 107.5 60.334 92 104.667 92 162 c 0
 92 220.667 109.5 267.667 144.5 303 c 0
 179.5 338.333 226 356 284 356 c 0
EndSplineSet
EndChar

StartChar: quotedbl
Encoding: 34 34 3
Width: 880
GlyphClass: 2
Flags: W
LayerCount: 2
Fore
SplineSet
417 1426 m 1
 327 892 l 1
 162 867 l 1
 135 890 l 1
 122 1433 l 1
 398 1451 l 1
 417 1426 l 1
795 1426 m 1
 703 892 l 1
 538 867 l 1
 512 890 l 1
 500 1433 l 1
 776 1451 l 1
 795 1426 l 1
EndSplineSet
EndChar

StartChar: numbersign
Encoding: 35 35 4
Width: 1270
GlyphClass: 2
Flags: W
LayerCount: 2
Fore
SplineSet
989 793 m 1
 948 572 l 1
 1133 572 l 1
 1156 550 l 1
 1140 370 l 1
 912 370 l 1
 858 69 l 1
 653 69 l 1
 636 95 l 1
 685 370 l 1
 469 370 l 1
 415 69 l 1
 209 69 l 1
 191 95 l 1
 241 370 l 1
 65 370 l 1
 45 392 l 1
 60 572 l 1
 277 572 l 1
 318 793 l 1
 138 793 l 1
 117 815 l 1
 131 996 l 1
 354 996 l 1
 408 1291 l 1
 606 1291 l 1
 628 1264 l 1
 581 996 l 1
 798 996 l 1
 851 1291 l 1
 1049 1291 l 1
 1072 1264 l 1
 1025 996 l 1
 1206 996 l 1
 1225 974 l 1
 1210 793 l 1
 989 793 l 1
761 793 m 1
 546 793 l 1
 505 572 l 1
 720 572 l 1
 761 793 l 1
EndSplineSet
EndChar

StartChar: dollar
Encoding: 36 36 5
Width: 1030
GlyphClass: 2
Flags: W
LayerCount: 2
Fore
SplineSet
937 363 m 0
 937 321.667 930.502 281.667 917.502 243 c 0
 904.502 204.333 884.835 168.166 858.502 134.499 c 0
 832.167 100.832 796.834 71.332 752.502 45.999 c 0
 708.167 20.666 657.334 2.33301 600.002 -9 c 1
 581.002 -311 l 1
 374.002 -311 l 1
 346.002 -284 l 1
 363.002 -18 l 1
 263.002 -10 166.335 11 73.002 45 c 1
 120.002 349 l 1
 153.002 374 l 1
 205.002 328 263.669 291 329.002 263 c 0
 394.336 235 450.669 221 498.002 221 c 0
 530.002 221 555.669 228.333 575.002 243 c 0
 594.335 257.667 604.002 276.334 604.002 299.001 c 0
 604.002 315.001 598.335 329.668 587.002 343.001 c 0
 575.666 356.336 560.333 368.169 541.002 378.501 c 0
 521.668 388.834 499.501 399.001 474.502 409.001 c 0
 449.502 419.001 423.169 429.834 395.502 441.501 c 0
 367.835 453.168 340.168 465.668 312.502 479.001 c 0
 284.835 492.334 258.502 508.501 233.502 527.501 c 0
 208.502 546.501 186.335 567.501 167.002 590.501 c 0
 147.669 613.501 132.169 641.501 120.502 674.501 c 0
 108.835 707.501 103.002 743.334 103.002 782.001 c 0
 103.002 872.001 132.169 950.001 190.502 1016 c 0
 248.835 1082 330.002 1126 434.002 1148 c 1
 453.002 1455 l 1
 656.002 1455 l 1
 688.002 1426 l 1
 671.002 1160 l 1
 757.669 1151.33 838.002 1133.66 912.002 1107 c 1
 862.002 813 l 1
 813.002 802 l 1
 788.335 819.333 762.835 835.166 736.502 849.499 c 0
 710.169 863.832 685.169 875.499 661.502 884.499 c 0
 637.835 893.499 615.502 900.332 594.502 904.999 c 0
 573.502 909.666 554.669 911.999 538.002 911.999 c 0
 516.668 911.999 498.501 908.666 483.502 901.999 c 0
 468.502 895.332 457.335 886.499 450.002 875.499 c 0
 442.669 864.499 439.002 851.999 439.002 837.999 c 0
 439.002 820.666 446.169 804.666 460.502 789.999 c 0
 474.836 775.332 493.669 762.832 517.001 752.499 c 0
 540.334 742.166 566.834 730.666 596.501 717.999 c 0
 626.168 705.332 656.668 692.832 688.001 680.499 c 0
 719.334 668.166 749.834 652.166 779.501 632.499 c 0
 809.168 612.832 835.668 591.499 859.001 568.499 c 0
 882.334 545.499 901.167 516.332 915.5 480.999 c 0
 929.833 445.666 937 406.333 937 363 c 0
EndSplineSet
EndChar

StartChar: percent
Encoding: 37 37 6
Width: 1954
GlyphClass: 2
Flags: W
LayerCount: 2
Fore
SplineSet
1525 1464 m 1
 1546 1419 l 1
 498 -209 l 1
 346 -117 l 1
 333 -84 l 1
 1383 1552 l 1
 1525 1464 l 1
441 1468 m 0
 551.667 1468 636.5 1434.17 695.5 1366.5 c 0
 754.5 1298.83 784 1200.66 784 1072 c 0
 784 932.666 751.333 825.833 686 751.5 c 0
 620.666 677.167 527.333 640 406 640 c 0
 294 640 208 674.333 148 743 c 0
 88 811.667 58 909.334 58 1036 c 0
 58 1175.33 91.167 1282.17 157.5 1356.5 c 0
 223.833 1430.83 318.333 1468 441 1468 c 0
419 1243 m 0
 368.333 1243 332 1228.17 310 1198.5 c 0
 288 1168.83 277 1120.67 277 1054 c 0
 277 983.333 288.333 931.833 311 899.5 c 0
 333.667 867.167 370.5 851 421.5 851 c 0
 472.5 851 509.667 866.5 533 897.5 c 0
 556.333 928.5 568 977 568 1043 c 0
 568 1113 556.167 1163.83 532.5 1195.5 c 0
 508.833 1227.17 471 1243 419 1243 c 0
1552 813 m 0
 1662.67 813 1747.33 779 1806 711 c 0
 1864.67 643 1894 545 1894 417 c 0
 1894 277.667 1861.5 171.167 1796.5 97.5 c 0
 1731.5 23.833 1638 -13 1516 -13 c 0
 1441.33 -13 1378.17 2.16699 1326.5 32.5 c 0
 1274.83 62.833 1235.66 107.5 1209 166.5 c 0
 1182.33 225.5 1169 297.667 1169 383 c 0
 1169 521 1202.17 627.167 1268.5 701.5 c 0
 1334.83 775.833 1429.33 813 1552 813 c 0
1530 588 m 0
 1480 588 1443.83 573.332 1421.5 543.999 c 0
 1399.17 514.666 1388 467.333 1388 402 c 0
 1388 354 1392.83 315 1402.5 285 c 0
 1412.17 255 1427.67 232.667 1449 218 c 0
 1470.33 203.333 1498 196 1532 196 c 0
 1583.34 196 1620.67 211.333 1644 242 c 0
 1667.33 272.667 1679 321 1679 387 c 0
 1679 457 1667.17 508 1643.5 540 c 0
 1619.83 572 1582 588 1530 588 c 0
EndSplineSet
EndChar

StartChar: ampersand
Encoding: 38 38 7
Width: 1619
GlyphClass: 2
Flags: W
LayerCount: 2
Fore
SplineSet
1302 766 m 1
 1294 744.001 l 1
 1305.33 692.001 1311 634.668 1311 572.001 c 0
 1311 474.668 1293 387.668 1257 311.001 c 1
 1550 45.001 l 1
 1550 22.001 l 1
 1495.33 -38.666 1431.33 -91.999 1358 -137.999 c 1
 1335 -134.999 l 1
 1077 99.001 l 1
 962.334 18.334 815.334 -21.999 636.001 -21.999 c 0
 464.001 -21.999 327.501 15.001 226.501 89.001 c 0
 125.501 163.001 75.001 264.001 75.001 392.001 c 0
 75.001 554.001 159.668 676.334 329.001 759.001 c 1
 331.001 780.001 l 1
 282.334 833.334 246.501 885.667 223.501 937 c 0
 200.501 988.333 189.001 1042.33 189.001 1099 c 0
 189.001 1212.34 231.668 1302.17 317.001 1368.5 c 0
 402.334 1434.83 523.334 1468 680.001 1468 c 0
 818.001 1468 942.668 1448 1054 1408 c 1
 974.001 1144 l 1
 931.001 1144 l 1
 838.334 1196.67 751.001 1223 669.001 1223 c 0
 631.668 1223 600.501 1217.5 575.501 1206.5 c 0
 550.501 1195.5 531.668 1179.33 519.001 1158 c 0
 506.334 1136.67 500.001 1110.33 500.001 1079 c 0
 500.001 1046.33 508.168 1016.5 524.501 989.501 c 0
 540.834 962.501 571.667 929.334 617 890.001 c 1
 1062 486.001 l 1
 1073.33 529.334 1079 572.334 1079 615.001 c 0
 1079 666.334 1070.67 716.667 1054 766 c 1
 926 766 l 1
 910 786 l 1
 933 1016 l 1
 1588 1016 l 1
 1608 991 l 1
 1586 766 l 1
 1302 766 l 1
669.001 223.001 m 0
 755.001 223.001 828.001 239.001 888.001 271.001 c 1
 477.001 640.001 l 1
 413.001 589.334 381.001 526.334 381.001 451.001 c 0
 381.001 377.001 406.001 320.501 456.001 281.501 c 0
 506.001 242.501 577.001 223.001 669.001 223.001 c 0
EndSplineSet
EndChar

StartChar: quotesingle
Encoding: 39 39 8
Width: 501
GlyphClass: 2
Flags: W
LayerCount: 2
Fore
SplineSet
417 1426 m 1
 327 892 l 1
 162 867 l 1
 135 890 l 1
 122 1433 l 1
 398 1451 l 1
 417 1426 l 1
EndSplineSet
Substitution2: "'locl' Localized Forms in Latin lookup 12 subtable" puso
Substitution2: "'locl' Localized Forms in Latin lookup 10 subtable" puso
Substitution2: "'aalt' Access All Alternates lookup 0 subtable" puso
EndChar

StartChar: parenleft
Encoding: 40 40 9
Width: 671
GlyphClass: 2
Flags: W
LayerCount: 2
Fore
SplineSet
664 1380 m 1
 664 1352 l 1
 583.333 1273.33 524.5 1171.83 487.5 1047.5 c 0
 450.5 923.168 431.333 764.001 430 570.001 c 1
 431.333 387.334 450.5 236.667 487.5 118 c 0
 524.5 -0.666992 583.333 -98.667 664 -176 c 1
 664 -205 l 1
 536 -311 l 1
 505 -311 l 1
 380.333 -220.333 289.333 -104.833 232 35.5 c 0
 174.667 175.833 145.334 353.333 144.001 568 c 1
 145.334 796 174.667 983.167 232 1129.5 c 0
 289.333 1275.83 380.333 1395 505 1487 c 1
 536 1487 l 1
 664 1380 l 1
EndSplineSet
EndChar

StartChar: parenright
Encoding: 41 41 10
Width: 671
GlyphClass: 2
Flags: W
LayerCount: 2
Fore
SplineSet
7 -205 m 1
 7 -176.002 l 1
 87.667 -98.6689 146.5 2.33105 183.5 126.998 c 0
 220.5 251.665 239 411.332 239 605.999 c 0
 239 787.332 220.5 937.332 183.5 1056 c 0
 146.5 1174.67 87.667 1273.33 7 1352 c 1
 7 1380 l 1
 133 1487 l 1
 165 1487 l 1
 290.334 1394.33 381.667 1278.17 439 1138.5 c 0
 496.333 998.833 525 822 525 608 c 0
 525 380.667 496.167 193.667 438.5 47 c 0
 380.833 -99.667 289.666 -219 165 -311 c 1
 133 -311 l 1
 7 -205 l 1
EndSplineSet
EndChar

StartChar: asterisk
Encoding: 42 42 11
Width: 873
GlyphClass: 2
Flags: W
LayerCount: 2
Fore
SplineSet
559 1660 m 1
 486 1378 l 1
 383 1367 l 1
 365 1383 l 1
 356 1647 l 1
 414 1667 478 1678.33 548 1681 c 1
 559 1660 l 1
338 1356 m 1
 320 1253 l 1
 297 1243 l 1
 50 1313 l 1
 50 1375 59 1439.67 77 1507 c 1
 99 1514 l 1
 338 1356 l 1
520 1358 m 1
 761 1451 l 1
 801 1393 831 1334.33 851 1275 c 1
 838 1260 l 1
 557 1243 l 1
 509 1335 l 1
 520 1358 l 1
546 1203 m 1
 705 996 l 1
 673 950 627.333 903.333 568 856 c 1
 548 862 l 1
 447 1135 l 1
 520 1206 l 1
 546 1203 l 1
404 1156 m 1
 406 1131 l 1
 268 912 l 1
 225.333 923.333 166 951.333 90 996 c 1
 92 1021 l 1
 311 1203 l 1
 404 1156 l 1
EndSplineSet
EndChar

StartChar: plus
Encoding: 43 43 12
Width: 1081
GlyphClass: 2
Flags: W
LayerCount: 2
Fore
SplineSet
662 1057 m 1
 662 701 l 1
 1014 701 l 1
 1038 678 l 1
 1021 462 l 1
 662 462 l 1
 662 101 l 1
 447 86 l 1
 421 108 l 1
 421 462 l 1
 67 462 l 1
 45 486 l 1
 63 701 l 1
 421 701 l 1
 421 1062 l 1
 638 1079 l 1
 662 1057 l 1
EndSplineSet
EndChar

StartChar: comma
Encoding: 44 44 13
Width: 512
GlyphClass: 2
Flags: W
LayerCount: 2
Fore
SplineSet
338 344 m 1
 406.667 284 441 213.666 441 132.999 c 0
 441 57.666 416.667 -15.167 368 -85.5 c 0
 319.333 -155.833 244 -227 142 -299 c 1
 28 -200 l 1
 25 -174 l 1
 109 -104.667 151 -28 151 56 c 0
 151 110 126.333 159.667 77 205 c 1
 79 236 l 1
 167 285.333 253.333 321.333 338 344 c 1
EndSplineSet
EndChar

StartChar: hyphen
Encoding: 45 45 14
Width: 679
GlyphClass: 2
Flags: W
LayerCount: 2
Fore
SplineSet
619 712 m 1
 619 491 l 1
 86 408 l 1
 58 434 l 1
 58 656 l 1
 593 737 l 1
 619 712 l 1
EndSplineSet
EndChar

StartChar: period
Encoding: 46 46 15
Width: 512
GlyphClass: 2
Flags: W
LayerCount: 2
Fore
SplineSet
264 356 m 0
 318.667 356 361.499 340.167 392.499 308.5 c 0
 423.499 276.833 438.999 233.333 438.999 178 c 0
 438.999 118.667 421.832 71.167 387.499 35.5 c 0
 353.166 -0.166992 307.333 -18 250 -18 c 0
 192.667 -18 149.167 -2.5 119.5 28.5 c 0
 89.833 59.5 75 104 75 162 c 0
 75 220.667 92 267.667 126 303 c 0
 160 338.333 206 356 264 356 c 0
EndSplineSet
EndChar

StartChar: slash
Encoding: 47 47 16
Width: 634
GlyphClass: 2
Flags: W
LayerCount: 2
Fore
SplineSet
707 1505 m 1
 241 -262 l 1
 -7 -262 l 1
 -28 -234 l 1
 439 1534 l 1
 680 1534 l 1
 707 1505 l 1
EndSplineSet
Substitution2: "'frac' Diagonal Fractions lookup 19 subtable" fraction
Substitution2: "'aalt' Access All Alternates lookup 0 subtable" fraction
EndChar

StartChar: zero
Encoding: 48 48 17
Width: 1069
GlyphClass: 2
Flags: W
LayerCount: 2
Fore
SplineSet
559 1343 m 0
 706.333 1343 819.335 1286 898.002 1172 c 0
 976.669 1058 1016 895.001 1016 683.001 c 0
 1016 456.334 972.835 282.167 886.502 160.5 c 0
 800.169 38.833 676.002 -22 514.002 -22 c 0
 365.335 -22 251.168 34.667 171.501 148 c 0
 91.834 261.333 52.001 424 52.001 636 c 0
 52.001 862.667 95.668 1037.17 183.001 1159.5 c 0
 270.334 1281.83 395.667 1343 559 1343 c 0
531.002 1006 m 0
 461.002 1006 409.836 978.002 377.503 922.002 c 0
 345.17 866.002 329.003 778.002 329.003 658.002 c 0
 329.003 532.668 345.336 440.001 378.003 380.001 c 0
 410.67 320.001 462.67 290.001 534.003 290.001 c 0
 605.336 290.001 657.669 318.668 691.002 376.001 c 0
 724.335 433.334 741.002 522.001 741.002 642.001 c 0
 741.002 767.334 724.002 859.334 690.002 918.001 c 0
 656.002 976.668 603.002 1006 531.002 1006 c 0
EndSplineSet
Substitution2: "'case' Case-Sensitive Forms lookup 28 subtable" zero.lf
Substitution2: "'tnum' Tabular Numbers lookup 25 subtable" zero.tosf
Substitution2: "'lnum' Lining Figures lookup 23 subtable" zero.lf
Substitution2: "'frac' Diagonal Fractions lookup 20 subtable" zero.numr
Substitution2: "'dnom' Denominators lookup 18 subtable" zero.dnom
Substitution2: "'numr' Numerators lookup 17 subtable" zero.numr
Substitution2: "'sups' Superscript lookup 16 subtable" zerosuperior
Substitution2: "'sinf' Scientific Inferiors lookup 15 subtable" zero.sinf
AlternateSubs2: "'aalt' Access All Alternates lookup 1 subtable" zero.sinf zerosuperior zero.numr zero.dnom zero.lf zero.tosf
EndChar

StartChar: one
Encoding: 49 49 18
Width: 1069
GlyphClass: 2
Flags: W
LayerCount: 2
Fore
SplineSet
763 1302 m 1
 744 471 l 1
 759 0 l 1
 396 0 l 1
 412 432 l 1
 412 931 l 1
 84 874 l 1
 58 892 l 1
 58 1178 l 1
 712 1341 l 1
 763 1302 l 1
EndSplineSet
Substitution2: "'ss02' Style Set 2 lookup 36 subtable" arrowleft
Substitution2: "'case' Case-Sensitive Forms lookup 28 subtable" one.lf
Substitution2: "'tnum' Tabular Numbers lookup 25 subtable" one.tosf
Substitution2: "'lnum' Lining Figures lookup 23 subtable" one.lf
Substitution2: "'frac' Diagonal Fractions lookup 20 subtable" one.numr
Substitution2: "'dnom' Denominators lookup 18 subtable" one.dnom
Substitution2: "'numr' Numerators lookup 17 subtable" one.numr
Substitution2: "'sups' Superscript lookup 16 subtable" onesuperior
Substitution2: "'sinf' Scientific Inferiors lookup 15 subtable" one.sinf
AlternateSubs2: "'aalt' Access All Alternates lookup 1 subtable" one.sinf onesuperior one.numr one.dnom one.lf one.tosf arrowleft
EndChar

StartChar: two
Encoding: 50 50 19
Width: 1069
GlyphClass: 2
Flags: W
LayerCount: 2
Fore
SplineSet
548 1341 m 0
 619.333 1341 683.333 1328.5 740 1303.5 c 0
 796.668 1278.5 841.835 1241.17 875.5 1191.5 c 0
 909.167 1141.83 926 1083.33 926 1016 c 0
 926 950 906.833 877.667 868.5 799 c 0
 830.166 720.333 767.333 622.333 680 505 c 1
 527 290 l 1
 534 282 l 1
 795 282 l 1
 1006 299 l 1
 1025 273 l 1
 984 -15 l 1
 690 0 l 1
 169 0 l 1
 86 -7 l 1
 67 7 l 1
 67 228 l 1
 359 574 l 1
 433.667 666 487.5 737.833 520.5 789.5 c 0
 553.5 841.167 570 887.334 570 928 c 0
 570 960 560.167 986 540.5 1006 c 0
 520.833 1026 492.333 1036 455 1036 c 0
 412.333 1036 364.833 1022.33 312.5 995 c 0
 260.167 967.665 211 930.332 165 883 c 1
 126 883 l 1
 65 1160 l 1
 233.667 1280.67 394.667 1341 548 1341 c 0
EndSplineSet
Substitution2: "'ss02' Style Set 2 lookup 36 subtable" arrowup
Substitution2: "'case' Case-Sensitive Forms lookup 28 subtable" two.lf
Substitution2: "'tnum' Tabular Numbers lookup 25 subtable" two.tosf
Substitution2: "'lnum' Lining Figures lookup 23 subtable" two.lf
Substitution2: "'frac' Diagonal Fractions lookup 20 subtable" two.numr
Substitution2: "'dnom' Denominators lookup 18 subtable" two.dnom
Substitution2: "'numr' Numerators lookup 17 subtable" two.numr
Substitution2: "'sups' Superscript lookup 16 subtable" twosuperior
Substitution2: "'sinf' Scientific Inferiors lookup 15 subtable" two.sinf
AlternateSubs2: "'aalt' Access All Alternates lookup 1 subtable" two.sinf twosuperior two.numr two.dnom two.lf two.tosf arrowup
EndChar

StartChar: three
Encoding: 51 51 20
Width: 1069
GlyphClass: 2
Flags: W
LayerCount: 2
Fore
SplineSet
505 1345 m 0
 632.333 1345 735.501 1315.67 814.501 1257 c 0
 893.501 1198.33 933.001 1121 933.001 1025 c 0
 933.001 998.334 929.168 971.501 921.501 944.501 c 0
 913.834 917.501 902.167 890.001 886.5 862.001 c 0
 870.833 834.001 848.666 806.668 819.999 780.001 c 0
 791.332 753.334 757.332 730.001 717.999 710.001 c 1
 717.999 698.001 l 1
 883.999 649.334 966.999 548.667 966.999 396 c 0
 966.999 314 941.832 241.333 891.499 178 c 0
 841.165 114.667 770.332 65.834 678.999 31.501 c 0
 587.666 -2.83203 482.333 -19.999 363 -19.999 c 0
 277.667 -19.999 191 -12.666 103 2.00098 c 1
 81 273.001 l 1
 106 295.001 l 1
 201.333 265.001 290 250.001 372 250.001 c 0
 424.667 250.001 469.667 255.834 507 267.501 c 0
 544.333 279.168 572.833 296.335 592.5 319.002 c 0
 612.167 341.669 622 369.336 622 402.003 c 0
 622 480.003 562.333 520.003 443 522.003 c 1
 271 522.003 l 1
 252 546.003 l 1
 260 791.003 l 1
 363 795.003 l 2
 419 796.336 467.5 811.169 508.5 839.502 c 0
 549.5 867.835 570 904.668 570 950.001 c 0
 570 973.334 564.333 992.667 553 1008 c 0
 541.667 1023.33 525.5 1034.83 504.5 1042.5 c 0
 483.5 1050.17 458 1054 428 1054 c 0
 386 1054 343.5 1046.5 300.5 1031.5 c 0
 257.5 1016.5 209.667 994.333 157 965 c 1
 122 965 l 1
 65 1217 l 1
 200.333 1302.33 347 1345 505 1345 c 0
EndSplineSet
Substitution2: "'ss02' Style Set 2 lookup 36 subtable" arrowright
Substitution2: "'case' Case-Sensitive Forms lookup 28 subtable" three.lf
Substitution2: "'tnum' Tabular Numbers lookup 25 subtable" three.tosf
Substitution2: "'lnum' Lining Figures lookup 23 subtable" three.lf
Substitution2: "'frac' Diagonal Fractions lookup 20 subtable" three.numr
Substitution2: "'dnom' Denominators lookup 18 subtable" three.dnom
Substitution2: "'numr' Numerators lookup 17 subtable" three.numr
Substitution2: "'sups' Superscript lookup 16 subtable" threesuperior
Substitution2: "'sinf' Scientific Inferiors lookup 15 subtable" three.sinf
AlternateSubs2: "'aalt' Access All Alternates lookup 1 subtable" three.sinf threesuperior three.numr three.dnom three.lf three.tosf arrowright
EndChar

StartChar: four
Encoding: 52 52 21
Width: 1069
GlyphClass: 2
Flags: W
LayerCount: 2
Fore
SplineSet
1014 286 m 1
 854 290 l 1
 870 25 l 1
 851 0 l 1
 572 -18 l 1
 552 4 l 1
 561 293 l 1
 260 293 l 1
 45 286 l 1
 22 316 l 1
 22 543 l 1
 529 1320 l 1
 858 1320 l 1
 849 568 l 1
 1010 568 l 1
 1030 536 l 1
 1014 286 l 1
327 568 m 1
 568 568 l 1
 565 924 l 1
 543 924 l 1
 327 568 l 1
EndSplineSet
Substitution2: "'ss02' Style Set 2 lookup 36 subtable" arrowdown
Substitution2: "'case' Case-Sensitive Forms lookup 28 subtable" four.lf
Substitution2: "'tnum' Tabular Numbers lookup 25 subtable" four.tosf
Substitution2: "'lnum' Lining Figures lookup 23 subtable" four.lf
Substitution2: "'frac' Diagonal Fractions lookup 20 subtable" four.numr
Substitution2: "'dnom' Denominators lookup 18 subtable" four.dnom
Substitution2: "'numr' Numerators lookup 17 subtable" four.numr
Substitution2: "'sups' Superscript lookup 16 subtable" foursuperior
Substitution2: "'sinf' Scientific Inferiors lookup 15 subtable" four.sinf
AlternateSubs2: "'aalt' Access All Alternates lookup 1 subtable" four.sinf foursuperior four.numr four.dnom four.lf four.tosf arrowdown
EndChar

StartChar: five
Encoding: 53 53 22
Width: 1069
GlyphClass: 2
Flags: W
LayerCount: 2
Fore
SplineSet
974 1313 m 1
 941.999 1041 l 1
 916.999 1016 l 1
 695.999 1043 l 1
 438.999 1043 l 1
 433.999 845 l 1
 578.999 815 l 2
 711.666 787 809.166 743.667 871.499 685 c 0
 933.832 626.333 964.999 547.666 964.999 448.999 c 0
 964.999 354.999 939.666 272.332 888.999 200.999 c 0
 838.332 129.666 766.832 74.666 674.499 35.999 c 0
 582.166 -2.66797 475.333 -22.001 354 -22.001 c 0
 266.667 -22.001 175 -13.334 79 3.99902 c 1
 58 261.999 l 1
 84 285.999 l 1
 180 260.666 270 247.999 354 247.999 c 0
 439.333 247.999 506 262.666 554 291.999 c 0
 602 321.332 626 362.332 626 414.999 c 0
 626 454.332 609.833 485.332 577.5 507.999 c 0
 545.167 530.668 493 548.335 421 561 c 2
 185 602 l 1
 162 628 l 1
 165 1288 l 1
 202 1327 l 1
 344 1320 l 1
 707 1320 l 1
 953 1335 l 1
 974 1313 l 1
EndSplineSet
Substitution2: "'ss02' Style Set 2 lookup 36 subtable" arrowupleft
Substitution2: "'case' Case-Sensitive Forms lookup 28 subtable" five.lf
Substitution2: "'tnum' Tabular Numbers lookup 25 subtable" five.tosf
Substitution2: "'lnum' Lining Figures lookup 23 subtable" five.lf
Substitution2: "'frac' Diagonal Fractions lookup 20 subtable" five.numr
Substitution2: "'dnom' Denominators lookup 18 subtable" five.dnom
Substitution2: "'numr' Numerators lookup 17 subtable" five.numr
Substitution2: "'sups' Superscript lookup 16 subtable" fivesuperior
Substitution2: "'sinf' Scientific Inferiors lookup 15 subtable" five.sinf
AlternateSubs2: "'aalt' Access All Alternates lookup 1 subtable" five.sinf fivesuperior five.numr five.dnom five.lf five.tosf arrowupleft
EndChar

StartChar: six
Encoding: 54 54 23
Width: 1069
GlyphClass: 2
Flags: W
LayerCount: 2
Fore
SplineSet
640 827 m 0
 699.333 827 753.336 816.171 802.003 794.504 c 0
 850.671 772.837 890.338 743.67 921.003 707.003 c 0
 951.67 670.336 975.17 628.003 991.503 580.003 c 0
 1007.84 532.003 1016 481.336 1016 428.003 c 0
 1016 381.336 1009.67 336.169 997.003 292.503 c 0
 984.336 248.836 964.669 207.669 938.002 169.002 c 0
 911.335 130.335 879.168 96.668 841.501 68.001 c 0
 803.834 39.334 758.001 16.667 704.001 -0 c 0
 650.001 -16.667 591.001 -25 527.001 -25 c 0
 376.334 -25 259.501 20.5 176.501 111.5 c 0
 93.501 202.5 52.001 328 52.001 488 c 0
 52.001 668 107.501 832.167 218.501 980.5 c 0
 329.501 1128.83 486.668 1250.33 690.001 1345 c 1
 707.001 1345 l 1
 944.001 1187 l 1
 944.001 1152 l 1
 800.668 1096.67 689.501 1042 610.501 988 c 0
 531.501 934 473.668 871.333 437.001 800 c 1
 453.001 782 l 1
 514.334 812 576.667 827 640 827 c 0
541.003 207.004 m 0
 591.003 207.004 629.002 222.504 655.002 253.504 c 0
 681.002 284.504 694.002 329.671 694.002 389.004 c 0
 694.002 515.671 640.669 579.004 534.002 579.004 c 0
 488.669 579.004 436.002 563.004 376.002 531.004 c 1
 376.002 494.004 l 2
 376.002 470.004 376.502 448.171 377.502 428.504 c 0
 378.502 408.837 380.335 389.67 383.002 371.004 c 0
 385.669 352.337 389.002 335.837 393.002 321.504 c 0
 397.002 307.171 402.002 293.671 408.002 281.004 c 0
 414.002 268.337 421.169 257.504 429.502 248.504 c 0
 437.835 239.504 447.502 231.837 458.502 225.504 c 0
 469.502 219.171 481.835 214.504 495.502 211.504 c 0
 509.169 208.504 524.336 207.004 541.003 207.004 c 0
EndSplineSet
Substitution2: "'ss02' Style Set 2 lookup 36 subtable" arrowupright
Substitution2: "'case' Case-Sensitive Forms lookup 28 subtable" six.lf
Substitution2: "'tnum' Tabular Numbers lookup 25 subtable" six.tosf
Substitution2: "'lnum' Lining Figures lookup 23 subtable" six.lf
Substitution2: "'frac' Diagonal Fractions lookup 20 subtable" six.numr
Substitution2: "'dnom' Denominators lookup 18 subtable" six.dnom
Substitution2: "'numr' Numerators lookup 17 subtable" six.numr
Substitution2: "'sups' Superscript lookup 16 subtable" sixsuperior
Substitution2: "'sinf' Scientific Inferiors lookup 15 subtable" six.sinf
AlternateSubs2: "'aalt' Access All Alternates lookup 1 subtable" six.sinf sixsuperior six.numr six.dnom six.lf six.tosf arrowupright
EndChar

StartChar: seven
Encoding: 55 55 24
Width: 1069
GlyphClass: 2
Flags: W
LayerCount: 2
Fore
SplineSet
359 1320 m 1
 867 1320 l 1
 989 1324 l 1
 989 1064 l 1
 628 342 l 1
 484 -28 l 1
 198 54 l 1
 176 108 l 1
 645 1025 l 1
 299 1025 l 1
 69 1002 l 1
 52 1032 l 1
 75 1329 l 1
 359 1320 l 1
EndSplineSet
Substitution2: "'ss02' Style Set 2 lookup 36 subtable" arrowdownright
Substitution2: "'case' Case-Sensitive Forms lookup 28 subtable" seven.lf
Substitution2: "'tnum' Tabular Numbers lookup 25 subtable" seven.tosf
Substitution2: "'lnum' Lining Figures lookup 23 subtable" seven.lf
Substitution2: "'frac' Diagonal Fractions lookup 20 subtable" seven.numr
Substitution2: "'dnom' Denominators lookup 18 subtable" seven.dnom
Substitution2: "'numr' Numerators lookup 17 subtable" seven.numr
Substitution2: "'sups' Superscript lookup 16 subtable" sevensuperior
Substitution2: "'sinf' Scientific Inferiors lookup 15 subtable" seven.sinf
AlternateSubs2: "'aalt' Access All Alternates lookup 1 subtable" seven.sinf sevensuperior seven.numr seven.dnom seven.lf seven.tosf arrowdownright
EndChar

StartChar: eight
Encoding: 56 56 25
Width: 1069
GlyphClass: 2
Flags: W
LayerCount: 2
Fore
SplineSet
565 1343 m 0
 688.333 1343 784.837 1312.67 854.504 1252 c 0
 924.171 1191.33 959.004 1109.33 959.004 1006 c 0
 959.004 942.668 943.337 887.168 912.004 839.501 c 0
 880.671 791.834 834.004 748.667 772.004 710 c 1
 772.004 694 l 1
 804.672 677.333 833.339 660 858.004 642 c 0
 882.671 624 905.671 602.667 927.004 578 c 0
 948.337 553.333 964.67 524.333 976.003 491 c 0
 987.336 457.667 993.003 421 993.003 381 c 0
 993.003 255.667 948.503 157.167 859.503 85.5 c 0
 770.503 13.833 651.67 -22 503.003 -22 c 0
 364.336 -22 257.003 9.5 181.003 72.5 c 0
 105.003 135.5 67.0029 218 67.0029 320 c 0
 67.0029 395.333 87.1699 457.5 127.503 506.5 c 0
 167.836 555.5 226.669 596 304.002 628 c 1
 304.002 645 l 1
 274.669 661 248.669 678.333 226.002 697 c 0
 203.335 715.667 182.668 737.5 164.001 762.5 c 0
 145.334 787.5 131.001 816.333 121.001 849 c 0
 111.001 881.667 106.001 917.667 106.001 957 c 0
 106.001 1076.33 147.668 1170.5 231.001 1239.5 c 0
 314.334 1308.5 425.667 1343 565 1343 c 0
541.004 1099 m 0
 493.671 1099 457.671 1087.67 433.004 1065 c 0
 408.337 1042.33 396.004 1011 396.004 971 c 0
 396.004 948.333 400.337 927.833 409.004 909.5 c 0
 417.671 891.163 430.671 874.83 448.004 860.5 c 0
 465.337 846.167 483.004 834 501.004 824 c 0
 519.004 814 541.337 803 568.004 791 c 1
 604.671 815.667 632.504 841.667 651.504 869 c 0
 670.504 896.333 680.004 929 680.004 967 c 0
 680.004 994.333 674.504 1017.83 663.504 1037.5 c 0
 652.504 1057.17 636.671 1072.33 616.004 1083 c 0
 595.337 1093.67 570.337 1099 541.004 1099 c 0
507.004 541 m 1
 458.337 521 422.169 498.167 398.503 472.5 c 0
 374.836 446.833 363.003 411.666 363.003 367 c 0
 363.003 320.333 377.836 283.166 407.503 255.5 c 0
 437.17 227.833 479.337 214 534.004 214 c 0
 588.004 214 629.337 227.333 658.004 254 c 0
 686.671 280.667 701.004 314 701.004 354 c 0
 701.004 370 698.837 385 694.504 399 c 0
 690.171 413 683.004 425.667 673.004 437 c 0
 663.004 448.333 653.004 458.5 643.004 467.5 c 0
 633.004 476.5 619.504 485.667 602.504 495 c 0
 585.504 504.333 570.671 512 558.004 518 c 0
 545.337 524 528.337 531.667 507.004 541 c 1
EndSplineSet
Substitution2: "'ss02' Style Set 2 lookup 36 subtable" arrowdownleft
Substitution2: "'case' Case-Sensitive Forms lookup 28 subtable" eight.lf
Substitution2: "'tnum' Tabular Numbers lookup 25 subtable" eight.tosf
Substitution2: "'lnum' Lining Figures lookup 23 subtable" eight.lf
Substitution2: "'frac' Diagonal Fractions lookup 20 subtable" eight.numr
Substitution2: "'dnom' Denominators lookup 18 subtable" eight.dnom
Substitution2: "'numr' Numerators lookup 17 subtable" eight.numr
Substitution2: "'sups' Superscript lookup 16 subtable" eightsuperior
Substitution2: "'sinf' Scientific Inferiors lookup 15 subtable" eight.sinf
AlternateSubs2: "'aalt' Access All Alternates lookup 1 subtable" eight.sinf eightsuperior eight.numr eight.dnom eight.lf eight.tosf arrowdownleft
EndChar

StartChar: nine
Encoding: 57 57 26
Width: 1069
GlyphClass: 2
Flags: W
LayerCount: 2
Fore
SplineSet
546 1345 m 0
 696 1345 812.664 1299.67 895.997 1209 c 0
 979.33 1118.33 1021 992.664 1021 831.997 c 0
 1021 651.997 965.33 488.164 853.997 340.497 c 0
 742.664 192.83 585.664 71.9971 382.997 -22.0029 c 1
 364.997 -22.0029 l 1
 128.997 134.997 l 1
 128.997 168.997 l 1
 273.664 226.33 385.331 281.497 463.998 334.497 c 0
 542.665 387.497 600.665 449.33 637.998 519.997 c 1
 618.998 540.997 l 1
 559.665 509.664 497.332 493.997 431.999 493.997 c 0
 372.666 493.997 318.833 504.664 270.5 525.997 c 0
 222.167 547.33 182.667 576.497 152 613.497 c 0
 121.333 650.497 97.666 692.83 80.999 740.497 c 0
 64.332 788.164 55.999 838.664 55.999 891.997 c 0
 55.999 938.664 62.332 983.831 74.999 1027.5 c 0
 87.666 1071.16 107.333 1112.33 134 1151 c 0
 160.667 1189.67 193 1223.33 231 1252 c 0
 269 1280.67 315 1303.33 369 1320 c 0
 423 1336.67 482 1345 546 1345 c 0
537.997 743.998 m 0
 586.664 743.998 639.331 758.998 695.997 788.998 c 1
 695.997 826.998 l 2
 695.997 925.665 684.33 997.998 660.997 1044 c 0
 637.662 1090 594.329 1113 530.997 1113 c 0
 480.997 1113 442.997 1097.67 416.997 1067 c 0
 390.997 1036.33 377.997 990.996 377.997 930.998 c 0
 377.997 806.331 431.33 743.998 537.997 743.998 c 0
EndSplineSet
Substitution2: "'case' Case-Sensitive Forms lookup 28 subtable" nine.lf
Substitution2: "'tnum' Tabular Numbers lookup 25 subtable" nine.tosf
Substitution2: "'lnum' Lining Figures lookup 23 subtable" nine.lf
Substitution2: "'frac' Diagonal Fractions lookup 20 subtable" nine.numr
Substitution2: "'dnom' Denominators lookup 18 subtable" nine.dnom
Substitution2: "'numr' Numerators lookup 17 subtable" nine.numr
Substitution2: "'sups' Superscript lookup 16 subtable" ninesuperior
Substitution2: "'sinf' Scientific Inferiors lookup 15 subtable" nine.sinf
AlternateSubs2: "'aalt' Access All Alternates lookup 1 subtable" nine.sinf ninesuperior nine.numr nine.dnom nine.lf nine.tosf
EndChar

StartChar: colon
Encoding: 58 58 27
Width: 512
GlyphClass: 2
Flags: W
LayerCount: 2
Fore
SplineSet
254 939 m 0
 308.667 939 351.333 923.333 382 892 c 0
 412.667 860.667 428 817 428 761 c 0
 428 701 411 653.833 377 619.5 c 0
 343 585.167 297 568 239 568 c 0
 183 568 139.667 583.5 109 614.5 c 0
 78.333 645.5 63 689.333 63 746 c 0
 63 806 79.833 853.167 113.5 887.5 c 0
 147.167 921.833 194 939 254 939 c 0
253.999 356 m 0
 308.666 356 351.332 340.168 381.999 308.501 c 0
 412.666 276.834 427.999 233.334 427.999 178.001 c 0
 427.999 118.001 410.999 70.334 376.999 35.001 c 0
 342.999 -0.332031 296.999 -17.999 238.999 -17.999 c 0
 182.999 -17.999 139.666 -2.33203 108.999 29.001 c 0
 78.332 60.334 62.999 104.667 62.999 162 c 0
 62.999 220.667 79.999 267.667 113.999 303 c 0
 147.999 338.333 194.666 356 253.999 356 c 0
EndSplineSet
EndChar

StartChar: semicolon
Encoding: 59 59 28
Width: 512
GlyphClass: 2
Flags: W
LayerCount: 2
Fore
SplineSet
254 939 m 0
 308.667 939 351.333 923.333 382 892 c 0
 412.667 860.667 428 817 428 761 c 0
 428 701 411 653.833 377 619.5 c 0
 343 585.167 297 568 239 568 c 0
 183 568 139.667 583.5 109 614.5 c 0
 78.333 645.5 63 689.333 63 746 c 0
 63 806 79.833 853.167 113.5 887.5 c 0
 147.167 921.833 194 939 254 939 c 0
328.999 344 m 1
 397.666 284 431.999 213.665 431.999 132.998 c 0
 431.999 57.665 407.499 -15.168 358.499 -85.501 c 0
 309.499 -155.834 233.666 -227.001 130.999 -299.001 c 1
 17.999 -200.001 l 1
 12.999 -174.001 l 1
 97.666 -106.001 139.999 -29.334 139.999 55.999 c 0
 139.999 110.666 115.666 160.333 66.999 205 c 1
 66.999 236 l 1
 154.999 285.333 242.332 321.333 328.999 344 c 1
EndSplineSet
EndChar

StartChar: less
Encoding: 60 60 29
Width: 1081
GlyphClass: 2
Flags: W
LayerCount: 2
Fore
SplineSet
1004 865 m 1
 991 840 l 1
 322 600 l 1
 322 581 l 1
 991 346 l 1
 942 146 l 1
 912 124 l 1
 75 437 l 1
 75 725 l 1
 97 757 l 1
 931 1070 l 1
 1004 865 l 1
EndSplineSet
EndChar

StartChar: equal
Encoding: 61 61 30
Width: 1081
GlyphClass: 2
Flags: W
LayerCount: 2
Fore
SplineSet
1038 899 m 1
 1021 685 l 1
 67 685 l 1
 45 707 l 1
 63 924 l 1
 1014 924 l 1
 1038 899 l 1
1038 453 m 1
 1021 236 l 1
 67 236 l 1
 45 262 l 1
 63 477 l 1
 1014 477 l 1
 1038 453 l 1
EndSplineSet
EndChar

StartChar: greater
Encoding: 62 62 31
Width: 1081
GlyphClass: 2
Flags: W
LayerCount: 2
Fore
SplineSet
984 757 m 1
 1006 725 l 1
 1006 437 l 1
 169 124 l 1
 140 146 l 1
 90 346 l 1
 759 581 l 1
 759 600 l 1
 90 840 l 1
 77 865 l 1
 151 1070 l 1
 984 757 l 1
EndSplineSet
EndChar

StartChar: question
Encoding: 63 63 32
Width: 776
GlyphClass: 2
Flags: W
LayerCount: 2
Fore
SplineSet
155 1496 m 1
 186.998 1514 l 1
 323.665 1507.33 439.832 1488.83 535.499 1458.5 c 0
 631.166 1428.17 703.999 1386.5 753.999 1333.5 c 0
 803.999 1280.5 828.999 1217.33 828.999 1144 c 0
 828.999 1102.67 820.999 1062.83 804.999 1024.5 c 0
 788.999 986.167 764.999 950.5 732.999 917.5 c 0
 700.999 884.5 662.332 855 616.999 829 c 2
 468.999 744 l 1
 461.999 733 l 1
 476.999 554 l 1
 227.999 518 l 1
 201.999 543 l 1
 177.999 817 l 1
 190.999 843 l 1
 386.999 933 l 1
 466.999 973 506.999 1025.33 506.999 1090 c 0
 506.999 1124.67 494.832 1153.67 470.499 1177 c 0
 446.166 1200.33 404.833 1219.5 346.5 1234.5 c 0
 288.167 1249.5 210.667 1260 114 1266 c 1
 90 1298 l 1
 155 1496 l 1
366.998 355.999 m 0
 403.665 355.999 435.165 348.834 461.498 334.501 c 0
 487.831 320.168 507.998 299.668 521.998 273.001 c 0
 535.998 246.334 542.998 214.667 542.998 178 c 0
 542.998 118.667 525.831 71.167 491.498 35.5 c 0
 457.165 -0.166992 411.332 -18 353.999 -18 c 0
 297.332 -18 253.832 -2.33301 223.499 29 c 0
 193.166 60.333 177.999 104.666 177.999 161.999 c 0
 177.999 220.666 195.166 267.666 229.499 302.999 c 0
 263.832 338.332 309.665 355.999 366.998 355.999 c 0
EndSplineSet
EndChar

StartChar: at
Encoding: 64 64 33
Width: 1920
GlyphClass: 2
Flags: W
LayerCount: 2
Fore
SplineSet
1883 716 m 0
 1883 488 1806.33 312.502 1653 189.502 c 0
 1499.67 66.502 1280.67 3.33496 996 0.00195312 c 1
 1038 304.002 l 1
 1006 304.002 l 1
 937.333 177.335 863.333 71.668 784 -12.999 c 1
 741 -12.999 l 1
 647.666 15.668 581.833 59.168 543.5 117.501 c 0
 505.167 175.834 486 251.334 486 344.001 c 0
 486 400.001 492.5 456.001 505.5 512.001 c 0
 518.5 568.001 538.833 623.168 566.5 677.501 c 0
 594.167 731.834 628 781.834 668 827.501 c 0
 708 873.168 757 914.168 815 950.501 c 0
 873 986.834 936.667 1014.67 1006 1034 c 1
 1019 1034 l 1
 1208 993 l 1
 1397 1043 l 1
 1421 1027 l 1
 1316 254 l 1
 1316 243 l 1
 1420 262.333 1502.17 313.5 1562.5 396.5 c 0
 1622.83 479.5 1653 582.333 1653 705 c 0
 1653 813.667 1628.17 908.5 1578.5 989.5 c 0
 1528.83 1070.5 1457.33 1132 1364 1174 c 0
 1270.67 1216 1162 1235.33 1038 1232 c 0
 926.667 1228.67 824.167 1206.83 730.5 1166.5 c 0
 636.833 1126.17 558 1071.83 494 1003.5 c 0
 430 935.169 380 854.002 344 760.002 c 0
 308 666.002 290 564.335 290 455.002 c 0
 290 361.669 303.167 275.502 329.5 196.502 c 0
 355.833 117.502 393.833 48.1689 443.5 -11.498 c 0
 493.167 -71.165 552.834 -121.998 622.501 -163.998 c 0
 692.168 -205.998 771.001 -237.498 859.001 -258.498 c 0
 947.001 -279.498 1042 -289.998 1144 -289.998 c 1
 1158 -321.998 l 1
 1064 -485.998 l 1
 912.001 -485.331 774.001 -464.998 650.001 -424.998 c 0
 526.001 -384.998 419.834 -327.331 331.501 -251.998 c 0
 243.168 -176.665 174.835 -82.165 126.502 31.502 c 0
 78.1689 145.169 54.002 273.002 54.002 415.002 c 0
 54.002 512.335 65.1689 606.168 87.502 696.501 c 0
 109.835 786.834 141.502 870.167 182.502 946.5 c 0
 223.502 1022.83 274.502 1092.33 335.502 1155 c 0
 396.502 1217.67 464.502 1271 539.502 1315 c 0
 614.502 1359 698.169 1393 790.502 1417 c 0
 882.835 1441 979.668 1453 1081 1453 c 0
 1201.67 1453 1311.67 1436 1411 1402 c 0
 1510.34 1368 1594.67 1319.5 1664 1256.5 c 0
 1733.34 1193.5 1787.17 1116 1825.5 1024 c 0
 1863.83 932 1883 829.333 1883 716 c 0
827 286.002 m 0
 851 286.002 886.832 322.835 934.499 396.502 c 0
 982.166 470.169 1035.33 576.669 1094 716.002 c 1
 1099 759.002 l 1
 955 802.002 l 1
 897.667 802.002 853.5 771.835 822.5 711.502 c 0
 791.5 651.168 776 569.335 776 466.002 c 0
 776 346.002 793 286.002 827 286.002 c 0
EndSplineSet
EndChar

StartChar: A
Encoding: 65 65 34
Width: 1376
GlyphClass: 2
Flags: W
AnchorPoint: "Anchor-1" 0 0 basechar 0
AnchorPoint: "Anchor-0" 691 1453 basechar 0
LayerCount: 2
Fore
SplineSet
1348 0 m 1
 976 0 l 1
 937 209 l 1
 917 293 l 1
 656 297 l 1
 430 290 l 1
 412 232 l 1
 372 0 l 1
 13 0 l 1
 482 1453 l 1
 922 1453 l 1
 1348 0 l 1
847 568 m 1
 705 1120 l 1
 683 1120 l 1
 514 568 l 1
 680 563 l 1
 847 568 l 1
EndSplineSet
Position2: "'cpsp' Capital Spacing lookup 0 subtable" dx=16 dy=0 dh=33 dv=0
EndChar

StartChar: B
Encoding: 66 66 35
Width: 1350
GlyphClass: 2
Flags: W
LayerCount: 2
Fore
SplineSet
1002 750 m 1
 1099.34 725.333 1170.67 685.667 1216 631 c 0
 1261.33 576.333 1284 504.333 1284 415 c 0
 1284 269 1226 161.167 1110 91.5 c 0
 994 21.833 821 -13 591 -13 c 0
 441 -13 297.333 -8.66699 160 0 c 1
 157 0 l 1
 178 430 l 1
 157 1453 l 1
 730 1455 l 2
 886 1455 1007.17 1423.5 1093.5 1360.5 c 0
 1179.83 1297.5 1223 1206.67 1223 1088 c 0
 1223 1011.33 1204 944 1166 886 c 0
 1128 828 1073.33 782.667 1002 750 c 1
851 1038 m 0
 851 1099.34 831.834 1142.17 793.501 1166.5 c 0
 755.168 1190.83 686.668 1203 588.001 1203 c 2
 516.001 1203 l 1
 507.001 849.002 l 1
 701.001 840.002 l 1
 752.334 855.335 790.167 878.668 814.5 910.001 c 0
 838.833 941.334 851 984.001 851 1038 c 0
658.001 239.002 m 0
 738.668 239.002 801.501 255.335 846.501 288.002 c 0
 891.501 320.669 914.001 368.002 914.001 430.002 c 0
 914.001 461.335 907.668 488.335 895.001 511.002 c 0
 882.334 533.669 863.334 552.502 838.001 567.502 c 0
 812.668 582.502 779.668 594.669 739.001 604.002 c 1
 503.001 600.002 l 1
 500.001 466.002 l 1
 507.001 248.002 l 1
 585.001 242.002 635.334 239.002 658.001 239.002 c 0
EndSplineSet
Position2: "'cpsp' Capital Spacing lookup 0 subtable" dx=16 dy=0 dh=33 dv=0
EndChar

StartChar: C
Encoding: 67 67 36
Width: 1161
GlyphClass: 2
Flags: W
AnchorPoint: "Anchor-1" 709 0 basechar 0
AnchorPoint: "Anchor-0" 711 1453 basechar 0
LayerCount: 2
Fore
SplineSet
770 1473 m 0
 908.667 1473 1034 1448.33 1146 1399 c 1
 1081 1099 l 1
 1057 1086 l 1
 1014.33 1114 966.335 1136 913.002 1152 c 0
 859.669 1168 807.669 1176 757.002 1176 c 0
 649.002 1176 569.002 1142 517.002 1074 c 0
 465.002 1006 439.002 899.668 439.002 755.001 c 0
 439.002 648.334 451.502 560.001 476.502 490.001 c 0
 501.502 420.001 538.835 367.834 588.502 333.501 c 0
 638.169 299.168 700.669 282.001 776.002 282.001 c 0
 825.335 282.001 877.668 288.834 933.001 302.501 c 0
 988.334 316.168 1038.67 335.001 1084 359.001 c 1
 1115 340.001 l 1
 1086 41.001 l 1
 982 -0.999023 868.667 -21.999 746 -21.999 c 0
 594 -21.999 466.5 6.33398 363.5 63.001 c 0
 260.5 119.668 183.167 202.668 131.5 312.001 c 0
 79.833 421.335 54 555.335 54 714.001 c 0
 54 955.334 116.167 1142.17 240.5 1274.5 c 0
 364.833 1406.83 541.333 1473 770 1473 c 0
EndSplineSet
Substitution2: "Single Substitution lookup 41 subtable" C.ss01
Substitution2: "'ss01' Style Set 1 lookup 35 subtable" C.ss01
Substitution2: "'aalt' Access All Alternates lookup 0 subtable" C.ss01
Position2: "'cpsp' Capital Spacing lookup 0 subtable" dx=16 dy=0 dh=33 dv=0
EndChar

StartChar: D
Encoding: 68 68 37
Width: 1483
GlyphClass: 2
Flags: W
AnchorPoint: "Anchor-1" 0 0 basechar 0
AnchorPoint: "Anchor-0" 730 1453 basechar 0
LayerCount: 2
Fore
SplineSet
160 1453 m 1
 772 1462 l 1
 984.667 1462 1147.5 1403.67 1260.5 1287 c 0
 1373.5 1170.33 1430 1002.67 1430 784 c 0
 1430 526 1365.67 327.833 1237 189.5 c 0
 1108.33 51.167 923.666 -18 682.999 -18 c 0
 543.666 -18 369.333 -12 160 0 c 1
 157 0 l 1
 178 430 l 1
 157 1453 l 1
 160 1453 l 1
750 260.001 m 0
 847.333 260.001 921.5 294.834 972.5 364.501 c 0
 1023.5 434.168 1049 544.668 1049 696.001 c 0
 1049 867.334 1025.17 989.834 977.5 1063.5 c 0
 929.833 1137.17 852 1174 744 1174 c 0
 664 1174 591 1171 525 1165 c 1
 512 466.001 l 1
 516 277.001 l 1
 605.333 265.668 683.333 260.001 750 260.001 c 0
EndSplineSet
Substitution2: "Single Substitution lookup 41 subtable" D.ss01
Substitution2: "'ss01' Style Set 1 lookup 35 subtable" D.ss01
Substitution2: "'aalt' Access All Alternates lookup 0 subtable" D.ss01
Position2: "'cpsp' Capital Spacing lookup 0 subtable" dx=16 dy=0 dh=33 dv=0
EndChar

StartChar: E
Encoding: 69 69 38
Width: 1175
GlyphClass: 2
Flags: W
AnchorPoint: "Anchor-1" 675 0 basechar 0
AnchorPoint: "Anchor-0" 644 1453 basechar 0
LayerCount: 2
Fore
SplineSet
1120 297 m 1
 1140 271 l 1
 1118 0 l 1
 157 0 l 1
 178 430 l 1
 157 1453 l 1
 1131 1453 l 1
 1152 1426 l 1
 1126 1156 l 1
 772 1169 l 1
 525 1167 l 1
 520 877 l 1
 757 877 l 1
 993 883 l 1
 1014 856 l 1
 991 585 l 1
 733 593 l 1
 514 593 l 1
 512 466 l 1
 516 286 l 1
 755 284 l 1
 1120 297 l 1
EndSplineSet
Position2: "'cpsp' Capital Spacing lookup 0 subtable" dx=16 dy=0 dh=33 dv=0
EndChar

StartChar: F
Encoding: 70 70 39
Width: 1049
GlyphClass: 2
Flags: W
LayerCount: 2
Fore
SplineSet
525 1167 m 1
 518 829 l 1
 701 829 l 1
 953 836 l 1
 974 808 l 1
 950 538 l 1
 673 546 l 1
 514 546 l 1
 512 466 l 1
 525 0 l 1
 157 0 l 1
 178 430 l 1
 157 1453 l 1
 1068 1453 l 1
 1088 1426 l 1
 1064 1156 l 1
 712 1169 l 1
 525 1167 l 1
EndSplineSet
Position2: "'cpsp' Capital Spacing lookup 0 subtable" dx=16 dy=0 dh=33 dv=0
EndChar

StartChar: G
Encoding: 71 71 40
Width: 1344
GlyphClass: 2
Flags: W
AnchorPoint: "Anchor-1" 677 0 basechar 0
AnchorPoint: "Anchor-0" 737 1453 basechar 0
LayerCount: 2
Fore
SplineSet
838 1473 m 0
 1001.33 1473 1142 1447 1260 1395 c 1
 1182 1068 l 1
 1152 1068 l 1
 1078.67 1108 1013.17 1136.67 955.498 1154 c 0
 897.831 1171.33 835.998 1180 769.998 1180 c 0
 689.331 1180 624.998 1165.5 576.998 1136.5 c 0
 528.998 1107.5 493.165 1059 469.498 990.999 c 0
 445.831 922.999 433.998 830.666 433.998 713.999 c 0
 433.998 644.666 437.998 584.999 445.998 534.999 c 0
 453.998 484.999 466.331 442.166 482.998 406.499 c 0
 499.665 370.832 521.832 342.332 549.499 320.999 c 0
 577.167 299.666 609.334 284.166 646 274.499 c 0
 682.667 264.832 726.667 259.999 778 259.999 c 0
 820 259.999 868.667 267.332 924 281.999 c 1
 926 382.999 l 1
 920 616.999 l 1
 1255 639.999 l 1
 1251 442.999 l 1
 1253 72.999 l 1
 1073.67 9.66602 904.667 -22.001 746 -22.001 c 0
 516 -22.001 343.167 39.832 227.5 163.499 c 0
 111.833 287.166 54 464.666 54 695.999 c 0
 54 948.666 121.5 1141.33 256.5 1274 c 0
 391.5 1406.67 585.333 1473 838 1473 c 0
EndSplineSet
Position2: "'cpsp' Capital Spacing lookup 0 subtable" dx=16 dy=0 dh=33 dv=0
EndChar

StartChar: H
Encoding: 72 72 41
Width: 1580
GlyphClass: 2
Flags: W
AnchorPoint: "Anchor-1" 0 0 basechar 0
AnchorPoint: "Anchor-0" 788 1453 basechar 0
LayerCount: 2
Fore
SplineSet
1401 466 m 1
 1417 0 l 1
 1049 0 l 1
 1068 430 l 1
 1066 576 l 1
 772 581 l 1
 514 574 l 1
 512 466 l 1
 525 0 l 1
 157 0 l 1
 178 430 l 1
 157 1453 l 1
 531 1453 l 1
 520 877 l 1
 795 870 l 1
 1062 874 l 1
 1049 1453 l 1
 1421 1453 l 1
 1401 466 l 1
EndSplineSet
Position2: "'cpsp' Capital Spacing lookup 0 subtable" dx=16 dy=0 dh=33 dv=0
EndChar

StartChar: I
Encoding: 73 73 42
Width: 693
GlyphClass: 2
Flags: W
AnchorPoint: "Anchor-1" 0 0 basechar 0
AnchorPoint: "Anchor-0" 344 1453 basechar 0
LayerCount: 2
Fore
SplineSet
512 466 m 1
 525 0 l 1
 157 0 l 1
 178 430 l 1
 157 1453 l 1
 531 1453 l 1
 512 466 l 1
EndSplineSet
Substitution2: "Single Substitution lookup 41 subtable" I.ss01
Substitution2: "'ss01' Style Set 1 lookup 35 subtable" I.ss01
Substitution2: "'aalt' Access All Alternates lookup 0 subtable" I.ss01
Position2: "'cpsp' Capital Spacing lookup 0 subtable" dx=16 dy=0 dh=33 dv=0
EndChar

StartChar: J
Encoding: 74 74 43
Width: 778
GlyphClass: 2
Flags: W
AnchorPoint: "Anchor-1" 0 0 basechar 0
AnchorPoint: "Anchor-0" 346 1453 basechar 0
LayerCount: 2
Fore
SplineSet
604 480 m 1
 608 275.001 l 1
 608 208.334 600.333 150.167 585 100.5 c 0
 569.667 50.833 543.5 5 506.5 -37 c 0
 469.5 -79 421.5 -116.5 362.5 -149.5 c 0
 303.5 -182.5 229.333 -214.333 140 -245 c 1
 36 -54 l 1
 36 -22 l 1
 122.667 21.333 183.5 65.333 218.5 110 c 0
 253.5 154.667 271 212.667 271 284 c 2
 271 443 l 1
 256 1191 l 1
 38 1185 l 1
 15 1210 l 1
 32 1453 l 1
 624 1453 l 1
 604 480 l 1
EndSplineSet
Position2: "'cpsp' Capital Spacing lookup 0 subtable" dx=16 dy=0 dh=33 dv=0
EndChar

StartChar: K
Encoding: 75 75 44
Width: 1355
GlyphClass: 2
Flags: W
AnchorPoint: "Anchor-1" 687 0 basechar 0
AnchorPoint: "Anchor-0" 677 1453 basechar 0
LayerCount: 2
Fore
SplineSet
1343 1453 m 1
 865.001 768 l 1
 1010.33 552 1184 321.667 1386 77 c 1
 1380 36 l 1
 1254 5.33301 1133.67 -15 1019 -25 c 1
 978.001 -2 l 1
 785.334 283.333 630.667 523.333 514 718 c 1
 509 466 l 1
 525 0 l 1
 157 0 l 1
 178 430 l 1
 157 1453 l 1
 529 1453 l 1
 516 802 l 1
 870 1307 l 1
 950 1453 l 1
 1343 1453 l 1
EndSplineSet
Position2: "'cpsp' Capital Spacing lookup 0 subtable" dx=16 dy=0 dh=33 dv=0
EndChar

StartChar: L
Encoding: 76 76 45
Width: 993
GlyphClass: 2
Flags: W
AnchorPoint: "Anchor-1" 524 0 basechar 0
AnchorPoint: "Anchor-0" 486 1453 basechar 0
LayerCount: 2
Fore
SplineSet
991 273 m 1
 967 0 l 1
 148 0 l 1
 169 430 l 1
 148 1453 l 1
 520 1453 l 1
 500 466 l 1
 507 299 l 1
 969 299 l 1
 991 273 l 1
EndSplineSet
Substitution2: "Single Substitution lookup 41 subtable" L.ss01
Substitution2: "'ss01' Style Set 1 lookup 35 subtable" L.ss01
Substitution2: "'aalt' Access All Alternates lookup 0 subtable" L.ss01
Position2: "'cpsp' Capital Spacing lookup 0 subtable" dx=16 dy=0 dh=33 dv=0
EndChar

StartChar: M
Encoding: 77 77 46
Width: 1804
GlyphClass: 2
Flags: W
LayerCount: 2
Fore
SplineSet
1709 0 m 1
 1388 0 l 1
 1370 441 l 1
 1329 920 l 1
 1307 920 l 1
 1019 146 l 1
 739 146 l 1
 486 920 l 1
 462 920 l 1
 417 475 l 1
 387 0 l 1
 84 0 l 1
 228 1453 l 1
 649 1453 l 1
 701 1241 l 1
 888 619 l 1
 910 619 l 1
 1113 1234 l 1
 1172 1453 l 1
 1586 1453 l 1
 1709 0 l 1
EndSplineSet
Substitution2: "Single Substitution lookup 41 subtable" M.ss01
Substitution2: "'ss01' Style Set 1 lookup 35 subtable" M.ss01
Substitution2: "'aalt' Access All Alternates lookup 0 subtable" M.ss01
Position2: "'cpsp' Capital Spacing lookup 0 subtable" dx=16 dy=0 dh=33 dv=0
EndChar

StartChar: N
Encoding: 78 78 47
Width: 1578
GlyphClass: 2
Flags: W
AnchorPoint: "Anchor-1" 788 0 basechar 0
AnchorPoint: "Anchor-0" 788 1453 basechar 0
LayerCount: 2
Fore
SplineSet
1401 460 m 1
 1415 0 l 1
 1019 0 l 1
 503 899 l 1
 480 899 l 1
 477 512 l 1
 494 0 l 1
 157 0 l 1
 178 428 l 1
 160 1453 l 1
 557 1453 l 1
 1072 554 l 1
 1094 554 l 1
 1084 1440 l 1
 1421 1460 l 1
 1401 460 l 1
EndSplineSet
Position2: "'cpsp' Capital Spacing lookup 0 subtable" dx=16 dy=0 dh=33 dv=0
EndChar

StartChar: O
Encoding: 79 79 48
Width: 1457
GlyphClass: 2
Flags: W
AnchorPoint: "Anchor-1" 0 0 basechar 0
AnchorPoint: "Anchor-0" 730 1453 basechar 0
LayerCount: 2
Fore
SplineSet
757 1475 m 0
 964.333 1475 1124.33 1413 1237 1289 c 0
 1349.67 1165 1406 989 1406 761 c 0
 1406 511 1344.5 317.5 1221.5 180.5 c 0
 1098.5 43.5 925 -25 701 -25 c 0
 564.333 -25 447.5 3.5 350.5 60.5 c 0
 253.5 117.5 179.833 200.667 129.5 310 c 0
 79.167 419.333 54 551 54 705 c 0
 54 951.667 115 1141.67 237 1275 c 0
 359 1408.33 532.333 1475 757 1475 c 0
725 1182 m 0
 653 1182 596.169 1168.33 554.502 1141 c 0
 512.835 1113.67 482.335 1069.17 463.002 1007.5 c 0
 443.669 945.833 434.002 861.666 434.002 754.999 c 0
 434.002 658.999 439.335 579.332 450.002 515.999 c 0
 460.669 452.666 478.169 401.166 502.502 361.499 c 0
 526.835 321.832 557.502 293.665 594.502 276.999 c 0
 631.502 260.332 677.669 251.999 733.002 251.999 c 0
 775.002 252 811.669 256.667 843.002 265.999 c 0
 874.335 275.332 901.668 290.332 925.001 310.999 c 0
 948.334 331.666 967.001 359.166 981.001 393.499 c 0
 995.001 427.832 1005.5 468.832 1012.5 516.499 c 0
 1019.5 564.167 1023 620.334 1023 685 c 0
 1023 811 1013.17 909.833 993.501 981.5 c 0
 973.834 1053.17 942.667 1104.5 900 1135.5 c 0
 857.333 1166.5 799 1182 725 1182 c 0
EndSplineSet
Position2: "'cpsp' Capital Spacing lookup 0 subtable" dx=16 dy=0 dh=33 dv=0
EndChar

StartChar: P
Encoding: 80 80 49
Width: 1283
GlyphClass: 2
Flags: W
LayerCount: 2
Fore
SplineSet
157 1453 m 1
 769.999 1455 l 2
 847.999 1455 917.499 1445 978.499 1425 c 0
 1039.5 1405 1090.83 1376 1132.5 1338 c 0
 1174.17 1300 1205.83 1252.83 1227.5 1196.5 c 0
 1249.17 1140.17 1260 1076 1260 1004 c 0
 1260 892 1234.67 793.333 1184 708 c 0
 1133.33 622.666 1061.33 556.833 968 510.5 c 0
 874.667 464.167 766 441 642 441 c 2
 512 441 l 1
 525 0 l 1
 157 0 l 1
 178 430 l 1
 157 1453 l 1
515.999 714 m 1
 706.999 704.999 l 1
 820.332 743.666 876.999 831.666 876.999 968.999 c 0
 876.999 1043.67 858.332 1098.83 820.999 1134.5 c 0
 783.664 1170.17 726.331 1190 648.999 1194 c 1
 526.999 1187 l 1
 515.999 714 l 1
EndSplineSet
Position2: "'cpsp' Capital Spacing lookup 0 subtable" dx=16 dy=0 dh=33 dv=0
EndChar

StartChar: Q
Encoding: 81 81 50
Width: 1472
GlyphClass: 2
Flags: W
LayerCount: 2
Fore
SplineSet
1649 -183 m 1
 1662 -219 l 1
 1611.33 -317.667 1553.66 -395 1489 -451 c 1
 1462 -464 l 1
 1202.67 -354 963.334 -207.667 744.001 -25 c 1
 703.001 -25 l 2
 565.001 -25 447.334 3.5 350.001 60.5 c 0
 252.668 117.5 179.001 200.667 129.001 310 c 0
 79.001 419.333 54.001 551 54.001 705 c 0
 54.001 951.667 115.001 1141.67 237.001 1275 c 0
 359.001 1408.33 532.334 1475 757.001 1475 c 0
 964.334 1475 1124.33 1413 1237 1289 c 0
 1349.67 1165 1406 988.333 1406 759 c 0
 1406 589.667 1377.17 445.5 1319.5 326.5 c 0
 1261.83 207.5 1178.67 118.667 1070 60 c 1
 1257.33 -48 1450.33 -129 1649 -183 c 1
434 750 m 0
 434 624.667 444.166 525.999 464.499 453.999 c 0
 484.833 381.999 516.333 330.332 558.999 298.999 c 0
 601.666 267.666 660.333 251.999 734.999 251.999 c 0
 804.999 251.999 860.666 265.999 901.999 293.999 c 0
 943.332 321.999 973.832 367.499 993.499 430.499 c 0
 1013.17 493.499 1023 579.332 1023 687.999 c 0
 1023 812.666 1013 910.666 992.999 981.999 c 0
 972.999 1053.33 941.499 1104.5 898.499 1135.5 c 0
 855.499 1166.5 796.999 1182 722.999 1182 c 0
 651.664 1182 595.331 1168.33 553.999 1141 c 0
 512.666 1113.67 482.333 1068.83 463 1006.5 c 0
 443.667 944.167 434 858.667 434 750 c 0
EndSplineSet
Substitution2: "Single Substitution lookup 41 subtable" Q.corta
Position2: "'cpsp' Capital Spacing lookup 0 subtable" dx=16 dy=0 dh=33 dv=0
EndChar

StartChar: R
Encoding: 82 82 51
Width: 1367
GlyphClass: 2
Flags: W
AnchorPoint: "Anchor-1" 685 0 basechar 0
AnchorPoint: "Anchor-0" 685 1453 basechar 0
LayerCount: 2
Fore
SplineSet
1002 574 m 1
 1121.33 388 1234.33 225.335 1341 86.002 c 1
 1335 45.002 l 1
 1220.33 7.00195 1100 -16.3311 974 -24.998 c 1
 937 4.00195 l 1
 855.667 154.669 777.667 308.669 703 466.002 c 1
 512 466.002 l 1
 525 0.00195312 l 1
 157 0.00195312 l 1
 178 430.002 l 1
 157 1453 l 1
 770 1455 l 2
 874 1455 962.833 1438.33 1036.5 1405 c 0
 1110.17 1371.67 1166.17 1322 1204.5 1256 c 0
 1242.83 1190 1262 1110 1262 1016 c 0
 1262 927.335 1239.17 844.668 1193.5 768.001 c 0
 1147.83 691.334 1084 626.667 1002 574 c 1
518 741.002 m 1
 714 733.004 l 1
 769.333 753.004 810.333 783.337 837 824.004 c 0
 863.667 864.671 877 917.338 877 982.004 c 0
 877 1029.34 868.667 1068.17 852 1098.5 c 0
 835.333 1128.84 810.333 1151.68 777 1167 c 0
 743.667 1182.33 701 1191.33 649 1194 c 1
 527 1187 l 1
 518 741.002 l 1
EndSplineSet
Position2: "'cpsp' Capital Spacing lookup 0 subtable" dx=16 dy=0 dh=33 dv=0
EndChar

StartChar: S
Encoding: 83 83 52
Width: 1148
GlyphClass: 2
Flags: W
AnchorPoint: "Anchor-1" 556 0 basechar 0
AnchorPoint: "Anchor-0" 599 1453 basechar 0
LayerCount: 2
Fore
SplineSet
660 1475 m 0
 789.333 1475 920.004 1449.67 1052 1399 c 1
 993.004 1092 l 1
 939.004 1072 l 1
 901.671 1096.67 863.504 1118 824.504 1136 c 0
 785.504 1154 748.504 1167.67 713.504 1177 c 0
 678.504 1186.33 647.004 1191 619.004 1191 c 0
 569.671 1191 530.504 1178.83 501.504 1154.5 c 0
 472.504 1130.17 458.004 1101.33 458.004 1068 c 0
 458.004 1046 465.004 1025.5 479.004 1006.5 c 0
 493.004 987.502 512.171 970.335 536.504 955.002 c 0
 560.837 939.669 588.67 924.502 620.003 909.502 c 0
 651.336 894.502 684.336 879.002 719.003 863.002 c 0
 753.67 847.002 788.17 830.002 822.503 812.002 c 0
 856.836 794.002 889.669 773.002 921.002 749.002 c 0
 952.335 725.002 980.168 699.002 1004.5 671.002 c 0
 1028.84 643.002 1048.17 609.502 1062.5 570.502 c 0
 1076.83 531.502 1084 489.002 1084 443.002 c 0
 1084 378.335 1070.33 317.668 1043 261.002 c 0
 1015.67 204.335 977.5 155.168 928.5 113.501 c 0
 879.5 71.834 818.833 38.834 746.5 14.501 c 0
 674.167 -9.83203 595 -21.999 509 -21.999 c 0
 356.333 -21.999 206 7.66797 58 67.001 c 1
 110 394.001 l 1
 148 417.001 l 1
 212 363.668 281.167 322.501 355.5 293.501 c 0
 429.833 264.501 494 250.001 548 250.001 c 0
 577.333 250.001 603.333 253.668 626 261.001 c 0
 648.667 268.335 666.667 278.168 680 290.5 c 0
 693.333 302.833 703.333 316.5 710 331.5 c 0
 716.667 346.5 720 362 720 378 c 0
 720 396 715.5 413 706.5 429 c 0
 697.5 445 687.333 458.667 676 470 c 0
 664.665 481.333 646.832 494 622.5 508 c 0
 598.164 522 577.831 533 561.5 541 c 0
 545.167 549 520.667 560.333 488 575 c 0
 454 590.333 428 602.333 410 611 c 0
 392 619.667 367 633 335 651 c 0
 303 669 278 685.167 260 699.5 c 0
 242 713.833 221.333 732.333 198 755 c 0
 174.666 777.667 156.833 800.667 144.5 824 c 0
 132.167 847.333 121.5 874.833 112.5 906.5 c 0
 103.5 938.168 99 971.335 99 1006 c 0
 99 1044 103.5 1080.67 112.5 1116 c 0
 121.5 1151.33 134.667 1184.5 152 1215.5 c 0
 169.333 1246.5 190.166 1275.5 214.499 1302.5 c 0
 238.832 1329.5 266.999 1353.5 298.999 1374.5 c 0
 330.999 1395.5 365.666 1413.5 402.999 1428.5 c 0
 440.332 1443.5 480.832 1455 524.499 1463 c 0
 568.167 1471 613.334 1475 660 1475 c 0
EndSplineSet
Position2: "'cpsp' Capital Spacing lookup 0 subtable" dx=16 dy=0 dh=33 dv=0
EndChar

StartChar: T
Encoding: 84 84 53
Width: 1148
GlyphClass: 2
Flags: W
AnchorPoint: "Anchor-1" 572 0 basechar 0
AnchorPoint: "Anchor-0" 578 1453 basechar 0
LayerCount: 2
Fore
SplineSet
1124 1426 m 1
 1104 1158 l 1
 820 1172 l 1
 757 1172 l 1
 746 466 l 1
 759 0 l 1
 394 0 l 1
 415 430 l 1
 404 1172 l 1
 336 1172 l 1
 50 1158 l 1
 28 1185 l 1
 50 1453 l 1
 1104 1453 l 1
 1124 1426 l 1
EndSplineSet
Position2: "'cpsp' Capital Spacing lookup 0 subtable" dx=16 dy=0 dh=33 dv=0
EndChar

StartChar: U
Encoding: 85 85 54
Width: 1449
GlyphClass: 2
Flags: W
AnchorPoint: "Anchor-1" 0 0 basechar 0
AnchorPoint: "Anchor-0" 728 1453 basechar 0
LayerCount: 2
Fore
SplineSet
1316 716 m 1
 1313 507.001 l 1
 1314.33 337.668 1262.17 207.168 1156.5 115.501 c 0
 1050.84 23.834 900.336 -21.999 705.003 -21.999 c 0
 515.67 -21.999 371.17 23.168 271.503 113.501 c 0
 171.836 203.834 124.336 332.667 129.003 500 c 1
 133.003 720 l 1
 124.003 1453 l 1
 488.003 1453 l 1
 473.003 550 l 2
 472.338 486 480.671 433.5 498.002 392.5 c 0
 515.335 351.5 542.335 321 579.002 301 c 0
 615.669 281 662.669 271 720.002 271 c 0
 807.335 271 871.668 293 913.001 337 c 0
 954.334 381 974.667 449 974 541 c 1
 957 1453 l 1
 1329 1453 l 1
 1316 716 l 1
EndSplineSet
Position2: "'cpsp' Capital Spacing lookup 0 subtable" dx=16 dy=0 dh=33 dv=0
EndChar

StartChar: V
Encoding: 86 86 55
Width: 1348
GlyphClass: 2
Flags: W
LayerCount: 2
Fore
SplineSet
881 0 m 1
 441 0 l 1
 15 1453 l 1
 387 1453 l 1
 426 1241 l 1
 658 333 l 1
 680 333 l 1
 950 1221 l 1
 991 1453 l 1
 1350 1453 l 1
 881 0 l 1
EndSplineSet
Substitution2: "Single Substitution lookup 41 subtable" V.ss01
Substitution2: "'ss01' Style Set 1 lookup 35 subtable" V.ss01
Substitution2: "'aalt' Access All Alternates lookup 0 subtable" V.ss01
Position2: "'cpsp' Capital Spacing lookup 0 subtable" dx=16 dy=0 dh=33 dv=0
EndChar

StartChar: W
Encoding: 87 87 56
Width: 2042
GlyphClass: 2
Flags: W
AnchorPoint: "Anchor-1" 0 0 basechar 0
AnchorPoint: "Anchor-0" 1006 1453 basechar 0
LayerCount: 2
Fore
SplineSet
1580 0 m 1
 1194 0 l 1
 1012 626 l 1
 989 626 l 1
 808 0 l 1
 421 0 l 1
 41 1453 l 1
 396 1453 l 1
 419 1255 l 1
 628 372 l 1
 651 372 l 1
 865 1107 l 1
 776 1453 l 1
 1144 1453 l 1
 1176 1219 l 1
 1395 372 l 1
 1417 372 l 1
 1662 1234 l 1
 1701 1453 l 1
 2038 1453 l 1
 1580 0 l 1
EndSplineSet
Position2: "'cpsp' Capital Spacing lookup 0 subtable" dx=16 dy=0 dh=33 dv=0
EndChar

StartChar: X
Encoding: 88 88 57
Width: 1395
GlyphClass: 2
Flags: W
LayerCount: 2
Fore
SplineSet
931 763 m 1
 1388 0 l 1
 950 0 l 1
 879 157 l 1
 683 477 l 1
 460 140 l 1
 392 0 l 1
 20 0 l 1
 471 710 l 1
 15 1453 l 1
 455 1453 l 1
 527 1294 l 1
 714 989 l 1
 912 1309 l 1
 978 1453 l 1
 1361 1453 l 1
 931 763 l 1
EndSplineSet
Substitution2: "Single Substitution lookup 41 subtable" X.ss01
Substitution2: "'ss01' Style Set 1 lookup 35 subtable" X.ss01
Substitution2: "'aalt' Access All Alternates lookup 0 subtable" X.ss01
Position2: "'cpsp' Capital Spacing lookup 0 subtable" dx=16 dy=0 dh=33 dv=0
EndChar

StartChar: Y
Encoding: 89 89 58
Width: 1290
GlyphClass: 2
Flags: W
AnchorPoint: "Anchor-1" 0 0 basechar 0
AnchorPoint: "Anchor-0" 642 1453 basechar 0
LayerCount: 2
Fore
SplineSet
795 394 m 1
 811 0 l 1
 447 0 l 1
 464 394 l 1
 462 473 l 1
 -2 1453 l 1
 383 1453 l 1
 417 1345 l 1
 628 838 l 1
 653 838 l 1
 892 1331 l 1
 937 1453 l 1
 1313 1453 l 1
 800 482 l 1
 795 394 l 1
EndSplineSet
Position2: "'cpsp' Capital Spacing lookup 0 subtable" dx=16 dy=0 dh=33 dv=0
EndChar

StartChar: Z
Encoding: 90 90 59
Width: 1254
GlyphClass: 2
Flags: W
AnchorPoint: "Anchor-1" 0 0 basechar 0
AnchorPoint: "Anchor-0" 630 1453 basechar 0
LayerCount: 2
Fore
SplineSet
1176 1191 m 1
 496 275 l 1
 933 275 l 1
 1189 293 l 1
 1203 275 l 1
 1174 -9 l 1
 815 0 l 1
 262 0 l 1
 65 -11 l 1
 65 250 l 1
 752 1178 l 1
 338 1178 l 1
 81 1158 l 1
 67 1174 l 1
 95 1458 l 1
 406 1453 l 1
 1023 1453 l 1
 1176 1455 l 1
 1176 1191 l 1
EndSplineSet
Position2: "'cpsp' Capital Spacing lookup 0 subtable" dx=16 dy=0 dh=33 dv=0
EndChar

StartChar: bracketleft
Encoding: 91 91 60
Width: 671
GlyphClass: 2
Flags: W
LayerCount: 2
Fore
SplineSet
680 1442 m 1
 680 1284 l 1
 451 1253 l 1
 451 -75 l 1
 680 -103 l 1
 680 -264 l 1
 664 -282 l 1
 160 -260 l 1
 180 591 l 1
 160 1438 l 1
 664 1460 l 1
 680 1442 l 1
EndSplineSet
EndChar

StartChar: backslash
Encoding: 92 92 61
Width: 634
GlyphClass: 2
Flags: W
LayerCount: 2
Fore
SplineSet
230 1534 m 1
 696 -234 l 1
 673 -262 l 1
 428 -262 l 1
 -38 1505 l 1
 -11 1534 l 1
 230 1534 l 1
EndSplineSet
EndChar

StartChar: bracketright
Encoding: 93 93 62
Width: 671
GlyphClass: 2
Flags: W
LayerCount: 2
Fore
SplineSet
-9 -264 m 1
 -9 -103 l 1
 221 -73 l 1
 221 1253 l 1
 -9 1284 l 1
 -9 1444 l 1
 4 1460 l 1
 509 1438 l 1
 491 591 l 1
 509 -260 l 1
 4 -282 l 1
 -9 -264 l 1
EndSplineSet
EndChar

StartChar: asciicircum
Encoding: 94 94 63
Width: 1010
GlyphClass: 2
Flags: W
LayerCount: 2
Fore
SplineSet
980 342 m 1
 955 314 l 1
 757 266 l 1
 522 879 l 1
 505 879 l 1
 262 266 l 1
 236 250 l 1
 34 324 l 1
 344 1104 l 1
 378 1124 l 1
 664 1124 l 1
 980 342 l 1
EndSplineSet
EndChar

StartChar: underscore
Encoding: 95 95 64
Width: 995
GlyphClass: 2
Flags: W
LayerCount: 2
Fore
SplineSet
1030 -228 m 1
 1012 -426 l 1
 -11 -426 l 1
 -34 -402 l 1
 -15 -202 l 1
 1006 -202 l 1
 1030 -228 l 1
EndSplineSet
EndChar

StartChar: grave
Encoding: 96 96 65
Width: 873
GlyphClass: 2
Flags: W
LayerCount: 2
Fore
SplineSet
273 1658 m 1
 304 1660 l 1
 428 1547.33 571 1430.33 733 1309 c 1
 649 1174 l 1
 615 1172 l 1
 439 1266.67 284.333 1352.67 151 1430 c 1
 144 1462 l 1
 273 1658 l 1
EndSplineSet
EndChar

StartChar: a
Encoding: 97 97 66
Width: 1103
GlyphClass: 2
Flags: W
AnchorPoint: "Anchor-1" 0 0 basechar 0
AnchorPoint: "Anchor-0" 537 1053 basechar 0
LayerCount: 2
Fore
SplineSet
563 1077 m 0
 687.667 1077 784.5 1050.17 853.5 996.501 c 0
 922.5 942.834 957 866.667 957 768 c 0
 957 742 953.333 662.167 946 528.5 c 0
 938.667 394.833 935 317.666 935 296.999 c 0
 935 275.666 938.5 260.666 945.5 251.999 c 0
 952.5 243.332 964 238.999 980 238.999 c 0
 993.333 238.999 1010 241.999 1030 247.999 c 1
 1054 227.999 l 1
 1023 40.999 l 1
 973.667 6.33203 912.667 -14.001 840 -20.001 c 1
 810 -16.668 783 -8.66797 759 3.99902 c 0
 735 16.666 714.333 34.666 697 57.999 c 0
 679.667 81.332 666.667 109.332 658 141.999 c 1
 642 141.999 l 1
 570.667 63.999 494 9.33203 412 -22.001 c 1
 302 -20.668 214.833 9.49902 150.5 68.499 c 0
 86.167 127.499 54 206.999 54 306.999 c 0
 54 460.332 135 550.999 297 578.999 c 2
 630 635.999 l 1
 630 700.999 l 2
 630 746.999 620 780.332 600 800.999 c 0
 580 821.666 547.667 831.999 503 831.999 c 0
 415 831.999 306.667 791.332 178 709.999 c 1
 155 724.999 l 1
 114 956.999 l 1
 182 995.666 255 1025.33 333 1046 c 0
 411 1066.67 487.667 1077 563 1077 c 0
630 469.001 m 1
 436.999 430.001 l 2
 421.666 427.334 409.166 422.501 399.499 415.501 c 0
 389.832 408.501 382.499 399.001 377.499 387.001 c 0
 372.499 375.001 369.999 360.001 369.999 342.001 c 0
 369.999 306.001 379.332 278.334 397.999 259.001 c 0
 416.666 239.668 442.333 230.001 475 230.001 c 0
 523.667 230.001 574.667 255.668 628 307.001 c 1
 630 469.001 l 1
EndSplineSet
Substitution2: "'ss02' Style Set 2 lookup 36 subtable" left
Substitution2: "'case' Case-Sensitive Forms lookup 28 subtable" A
Substitution2: "'ordn' Ordinals lookup 22 subtable" a.sups
Substitution2: "'sups' Superscript lookup 16 subtable" a.sups
AlternateSubs2: "'aalt' Access All Alternates lookup 1 subtable" a.sups A left
EndChar

StartChar: b
Encoding: 98 98 67
Width: 1186
GlyphClass: 2
Flags: W
LayerCount: 2
Fore
SplineSet
720 1068 m 1
 852.667 1068 955 1022.83 1027 932.501 c 0
 1099 842.168 1135 717.001 1135 557.001 c 0
 1135 370.334 1087.83 226.667 993.5 126 c 0
 899.167 25.333 770 -25 606 -25 c 0
 523.333 -25 432.333 -6.66699 333 30 c 1
 162 -28 l 1
 126 7 l 1
 142 430 l 1
 129 1556 l 1
 482 1582 l 1
 471 903 l 1
 484 903 l 1
 558 979.669 636.667 1034.67 720 1068 c 1
595 202.001 m 0
 733.667 202.001 802 302.334 800 503.001 c 1
 800 690.334 739.667 784.001 619 784.001 c 0
 567.667 784.001 517.667 762.668 469 720.001 c 1
 464 475.001 l 1
 469 230.001 l 1
 515.667 211.334 557.667 202.001 595 202.001 c 0
EndSplineSet
Substitution2: "'ss02' Style Set 2 lookup 36 subtable" up
Substitution2: "'case' Case-Sensitive Forms lookup 28 subtable" B
Substitution2: "'ordn' Ordinals lookup 22 subtable" b.sups
Substitution2: "'sups' Superscript lookup 16 subtable" b.sups
AlternateSubs2: "'aalt' Access All Alternates lookup 1 subtable" b.sups B up
EndChar

StartChar: c
Encoding: 99 99 68
Width: 864
GlyphClass: 2
Flags: W
AnchorPoint: "Anchor-1" 500 0 basechar 0
AnchorPoint: "Anchor-0" 543 1053 basechar 0
LayerCount: 2
Fore
SplineSet
574 1077 m 0
 678 1077 770.332 1059 850.999 1023 c 1
 792.999 744.001 l 1
 765.999 733.001 l 1
 685.999 770.334 621.999 789.001 573.999 789.001 c 0
 513.999 789.001 468.666 768.501 437.999 727.501 c 0
 407.332 686.501 391.999 626.668 391.999 548.001 c 0
 391.999 499.334 396.332 456.667 404.999 420.001 c 0
 413.666 383.334 426.666 352.667 443.999 328.001 c 0
 461.332 303.334 482.832 284.834 508.499 272.501 c 0
 534.166 260.168 563.666 254.001 596.999 254.001 c 0
 652.332 254.001 721.999 269.668 805.999 301.001 c 1
 833.999 282.001 l 1
 797.999 13.001 l 1
 708.665 -12.332 615.332 -24.999 517.999 -24.999 c 0
 370.666 -24.999 256.166 22.168 174.499 116.501 c 0
 92.832 210.834 51.999 342.667 51.999 512 c 0
 51.999 690 97.832 828.667 189.499 928 c 0
 281.166 1027.33 409.333 1077 574 1077 c 0
EndSplineSet
Substitution2: "Single Substitution lookup 41 subtable" C.ss01
Substitution2: "'ss02' Style Set 2 lookup 36 subtable" right
Substitution2: "'ss01' Style Set 1 lookup 35 subtable" C.ss01
Substitution2: "'case' Case-Sensitive Forms lookup 28 subtable" C
Substitution2: "'ordn' Ordinals lookup 22 subtable" c.sups
Substitution2: "'sups' Superscript lookup 16 subtable" c.sups
AlternateSubs2: "'aalt' Access All Alternates lookup 1 subtable" c.sups C C.ss01 right
EndChar

StartChar: d
Encoding: 100 100 69
Width: 1191
GlyphClass: 2
Flags: W
LayerCount: 2
Fore
SplineSet
1038 466 m 1
 1043 298.999 l 2
 1043 284.332 1044.17 272.665 1046.5 263.999 c 0
 1048.83 255.332 1053 248.999 1059 244.999 c 0
 1065 240.999 1073.33 238.999 1084 238.999 c 0
 1098.67 238.999 1115.67 241.999 1135 247.999 c 1
 1158 227.999 l 1
 1126 40.999 l 1
 1078.67 6.33203 1018 -14.001 944.001 -20.001 c 1
 897.334 -15.334 857.001 0.333008 823.001 27 c 0
 789.001 53.667 764.001 90.667 748.001 138 c 1
 733.001 138 l 1
 665.001 73.333 591.334 21.333 512.001 -18 c 1
 365.334 -18 251.667 29.5 171 124.5 c 0
 90.333 219.5 50 350 50 516 c 0
 50 696 97.833 833.667 193.5 929 c 0
 289.167 1024.33 420.667 1072 588 1072 c 0
 631.333 1072 672 1068.67 710 1062 c 1
 703 1556 l 1
 1059 1582 l 1
 1038 466 l 1
572.001 833.999 m 0
 507.334 833.999 459.667 813.999 429.001 773.999 c 0
 398.334 733.999 383.001 667.999 383.001 575.999 c 0
 383.668 465.999 399.168 384.499 429.501 331.499 c 0
 459.834 278.499 504.334 251.999 563.001 251.999 c 0
 615.668 251.999 666.001 276.999 714.001 326.999 c 1
 716.001 431.999 l 1
 712.001 799.999 l 1
 660.668 822.666 614.001 833.999 572.001 833.999 c 0
EndSplineSet
Substitution2: "Single Substitution lookup 41 subtable" D.ss01
Substitution2: "'ss02' Style Set 2 lookup 36 subtable" down
Substitution2: "'ss01' Style Set 1 lookup 35 subtable" D.ss01
Substitution2: "'case' Case-Sensitive Forms lookup 28 subtable" D
Substitution2: "'ordn' Ordinals lookup 22 subtable" d.sups
Substitution2: "'sups' Superscript lookup 16 subtable" d.sups
AlternateSubs2: "'aalt' Access All Alternates lookup 1 subtable" d.sups D D.ss01 down
EndChar

StartChar: e
Encoding: 101 101 70
Width: 1081
GlyphClass: 2
Flags: W
AnchorPoint: "Anchor-1" 408 0 basechar 0
AnchorPoint: "Anchor-0" 563 1051 basechar 0
LayerCount: 2
Fore
SplineSet
961 469 m 1
 378 466 l 1
 387.334 388 413.167 330.167 455.5 292.5 c 0
 497.833 254.833 561 236 645 236 c 0
 739 236 839.333 259.667 946 307 c 1
 976 286 l 1
 924 34 l 1
 818.667 -5.33301 712.667 -25 606 -25 c 0
 431.333 -25 295.333 23.5 198 120.5 c 0
 100.667 217.5 52 352.333 52 525 c 0
 52 696.333 99.833 830.833 195.5 928.5 c 0
 291.167 1026.17 421 1075 585 1075 c 0
 723.667 1075 830.667 1037.67 906 963 c 0
 981.333 888.333 1019 784.333 1019 651 c 0
 1019 601.666 1014.67 557.333 1006 518 c 1
 961 469 l 1
707 660 m 1
 711.999 690 l 1
 711.999 793.333 666.666 845 575.999 845 c 0
 524.666 845 482.333 828 449 794 c 0
 415.667 760 393.667 711 383 647 c 1
 707 660 l 1
EndSplineSet
Substitution2: "'ss02' Style Set 2 lookup 36 subtable" square1
Substitution2: "'case' Case-Sensitive Forms lookup 28 subtable" E
Substitution2: "'ordn' Ordinals lookup 22 subtable" e.sups
Substitution2: "'sups' Superscript lookup 16 subtable" e.sups
AlternateSubs2: "'aalt' Access All Alternates lookup 1 subtable" e.sups E square1
EndChar

StartChar: f
Encoding: 102 102 71
Width: 770
GlyphClass: 2
Flags: W
LayerCount: 2
Fore
SplineSet
716 1586 m 0
 776.667 1586 845.334 1579 922 1565 c 1
 899 1305 l 1
 877 1286 l 1
 797 1318.67 731.333 1335 680 1335 c 0
 640.667 1335 610.5 1324.67 589.5 1304 c 0
 568.5 1283.33 557.667 1249.66 557 1203 c 2
 554 1045 l 1
 804 1045 l 1
 813 1025 l 1
 798 834 l 1
 550 834 l 1
 546 466 l 1
 561 0 l 1
 205 0 l 1
 223 432 l 1
 219 834 l 1
 58 834 l 1
 50 851 l 1
 65 1045 l 1
 217 1045 l 1
 214 1140 l 1
 214 1283.33 257.833 1393.5 345.5 1470.5 c 0
 433.167 1547.5 556.667 1586 716 1586 c 0
EndSplineSet
Substitution2: "Single Substitution lookup 41 subtable" f.t
Substitution2: "Single Substitution lookup 40 subtable" f.l
Substitution2: "Single Substitution lookup 39 subtable" f.f
Substitution2: "'ss02' Style Set 2 lookup 36 subtable" square2
Substitution2: "'case' Case-Sensitive Forms lookup 28 subtable" F
Substitution2: "'ordn' Ordinals lookup 22 subtable" f.sups
Substitution2: "'sups' Superscript lookup 16 subtable" f.sups
AlternateSubs2: "'aalt' Access All Alternates lookup 1 subtable" f.sups F square2
EndChar

StartChar: g
Encoding: 103 103 72
Width: 1141
GlyphClass: 2
Flags: W
AnchorPoint: "Anchor-1" 0 0 basechar 0
AnchorPoint: "Anchor-0" 578 1036 basechar 0
LayerCount: 2
Fore
SplineSet
1169 1107 m 1
 1169 887.998 l 1
 1115.67 875.331 1062.67 866.664 1010 861.997 c 1
 1004 853.997 l 1
 1024 813.33 1034 767.997 1034 717.997 c 0
 1034 603.997 991.168 513.164 905.501 445.497 c 0
 819.834 377.83 703.667 343.997 557 343.997 c 0
 511.667 343.997 468.667 347.33 428 353.997 c 1
 413.333 337.33 406 322.33 406 308.997 c 0
 406 293.664 413.667 280.997 429 270.997 c 0
 444.333 260.997 464.833 253.33 490.5 247.997 c 0
 516.167 242.664 545.667 238.164 579 234.497 c 0
 612.333 230.83 647.333 226.663 684 221.996 c 0
 720.667 217.329 757.5 211.662 794.5 204.995 c 0
 831.5 198.328 866.667 188.328 900 174.995 c 0
 933.333 161.662 962.833 145.329 988.5 125.996 c 0
 1014.17 106.663 1034.5 81.1631 1049.5 49.4961 c 0
 1064.5 17.8291 1072 -18.6709 1072 -60.0039 c 0
 1072 -115.337 1059.17 -166.67 1033.5 -214.003 c 0
 1007.83 -261.336 972 -301.669 926 -335.002 c 0
 880 -368.335 824 -394.335 758 -413.002 c 0
 692 -431.669 619.667 -441.002 541 -441.002 c 0
 445.667 -441.002 363.834 -428.169 295.501 -402.502 c 0
 227.168 -376.835 176.168 -341.168 142.501 -295.501 c 0
 108.834 -249.834 92.001 -196.334 92.001 -135.001 c 1
 142.001 -75.001 203.001 -22.668 275.001 21.999 c 1
 275.001 33.999 l 1
 224.334 53.999 185.334 80.832 158.001 114.499 c 0
 130.668 148.166 117.001 193.333 117.001 250 c 1
 168.334 306 221.667 351.667 277 387 c 1
 277 402 l 1
 221 430 178 468.833 148 518.5 c 0
 118 568.167 103 626.667 103 694 c 0
 103 812 145.833 904.5 231.5 971.5 c 0
 317.167 1038.5 433.667 1072 581 1072 c 0
 667 1072 745 1058 815 1030 c 1
 925 1051.33 1034.67 1083.33 1144 1126 c 1
 1169 1107 l 1
565.001 551.998 m 0
 673.668 551.998 728.001 604.665 728.001 709.998 c 0
 728.001 760.665 715.668 797.665 691.001 820.998 c 0
 666.334 844.331 627.334 855.998 574.001 855.998 c 0
 517.334 855.998 475.834 844.331 449.501 820.998 c 0
 423.168 797.663 410.001 761.33 410.001 711.998 c 0
 410.001 657.998 422.668 617.831 448.001 591.498 c 0
 473.335 565.165 512.335 551.998 565.001 551.998 c 0
776.001 -124.002 m 0
 776.001 -114.002 774.17 -104.67 770.503 -96.0029 c 0
 766.836 -87.3359 761.003 -79.8359 753.003 -73.5029 c 0
 745.003 -67.1699 736.67 -61.5029 728.003 -56.5029 c 0
 719.336 -51.5029 707.836 -47.0029 693.503 -43.0029 c 0
 679.17 -39.0029 666.17 -35.6699 654.503 -33.0029 c 0
 642.836 -30.3359 627.503 -27.6689 608.503 -25.002 c 0
 589.503 -22.335 573.17 -20.168 559.503 -18.501 c 0
 545.836 -16.834 528.169 -14.834 506.502 -12.501 c 0
 484.835 -10.168 467.002 -8.33496 453.002 -7.00195 c 1
 401.669 -44.335 376.002 -82.668 376.002 -122.001 c 0
 376.002 -160.001 392.669 -189.668 426.002 -211.001 c 0
 459.336 -232.334 508.669 -243.001 574.002 -243.001 c 0
 598.669 -243.001 621.336 -241.668 642.002 -239.001 c 0
 662.669 -236.334 681.336 -231.834 698.002 -225.501 c 0
 714.669 -219.168 728.669 -211.335 740.002 -202.002 c 0
 751.335 -192.669 760.168 -181.502 766.501 -168.502 c 0
 772.834 -155.502 776.001 -140.669 776.001 -124.002 c 0
EndSplineSet
Substitution2: "'ss02' Style Set 2 lookup 36 subtable" circle1
Substitution2: "'case' Case-Sensitive Forms lookup 28 subtable" G
Substitution2: "'ordn' Ordinals lookup 22 subtable" g.sups
Substitution2: "'sups' Superscript lookup 16 subtable" g.sups
AlternateSubs2: "'aalt' Access All Alternates lookup 1 subtable" g.sups G circle1
EndChar

StartChar: h
Encoding: 104 104 73
Width: 1206
GlyphClass: 2
Flags: W
AnchorPoint: "Anchor-1" 303 0 basechar 0
AnchorPoint: "Anchor-0" 299 1477 basechar 0
LayerCount: 2
Fore
SplineSet
748 0 m 1
 768 628.001 l 1
 768 679.334 757.5 718.167 736.5 744.5 c 0
 715.5 770.833 684 784 642 784 c 0
 592 784 535 761.333 471 716 c 1
 466 466 l 1
 482 0 l 1
 126 0 l 1
 144 432 l 1
 131 1556 l 1
 484 1582 l 1
 473 903 l 1
 486 903 l 1
 568 980.333 657.667 1035.33 755 1068 c 1
 868.333 1068 954.5 1042 1013.5 990 c 0
 1072.5 938 1101 864 1099 768 c 2
 1092 466 l 1
 1107 0 l 1
 748 0 l 1
EndSplineSet
Substitution2: "'ss02' Style Set 2 lookup 36 subtable" circle2
Substitution2: "'case' Case-Sensitive Forms lookup 28 subtable" H
Substitution2: "'ordn' Ordinals lookup 22 subtable" h.sups
Substitution2: "'sups' Superscript lookup 16 subtable" h.sups
AlternateSubs2: "'aalt' Access All Alternates lookup 1 subtable" h.sups H circle2
EndChar

StartChar: i
Encoding: 105 105 74
Width: 587
GlyphClass: 2
Flags: W
AnchorPoint: "Anchor-1" 0 0 basechar 0
AnchorPoint: "Anchor-0" 299 1053 basechar 0
LayerCount: 2
Fore
SplineSet
307 1595 m 0
 343 1595 374.167 1587.83 400.5 1573.5 c 0
 426.833 1559.17 447 1538.67 461 1512 c 0
 475 1485.33 482 1453.66 482 1417 c 0
 482 1357 464.833 1309.33 430.5 1274 c 0
 396.167 1238.67 350.334 1221 293.001 1221 c 0
 264.334 1221 239.001 1225 217.001 1233 c 0
 195.001 1241 176.668 1252.67 162.001 1268 c 0
 147.334 1283.33 136.167 1302.33 128.5 1325 c 0
 120.833 1347.67 117 1373 117 1401 c 0
 117 1459.67 134.167 1506.67 168.5 1542 c 0
 202.833 1577.33 249 1595 307 1595 c 0
455 466 m 1
 471 0 l 1
 114 0 l 1
 133 430 l 1
 120 1032 l 1
 473 1059 l 1
 455 466 l 1
EndSplineSet
Substitution2: "Single Substitution lookup 41 subtable" I.ss01
Substitution2: "'ss01' Style Set 1 lookup 35 subtable" I.ss01
Substitution2: "'case' Case-Sensitive Forms lookup 28 subtable" I
Substitution2: "'ordn' Ordinals lookup 22 subtable" i.sups
Substitution2: "'sups' Superscript lookup 16 subtable" i.sups
Substitution2: "'locl' Localized Forms in Latin lookup 9 subtable" idotaccent
Substitution2: "'locl' Localized Forms in Latin lookup 8 subtable" idotaccent
Substitution2: "'locl' Localized Forms in Latin lookup 7 subtable" idotaccent
Substitution2: "'locl' Localized Forms in Latin lookup 6 subtable" idotaccent
Substitution2: "'locl' Localized Forms in Latin lookup 5 subtable" idotaccent
AlternateSubs2: "'aalt' Access All Alternates lookup 1 subtable" idotaccent i.sups I I.ss01
EndChar

StartChar: j
Encoding: 106 106 75
Width: 662
GlyphClass: 2
Flags: W
AnchorPoint: "Anchor-1" 0 0 basechar 0
AnchorPoint: "Anchor-0" 328 1053 basechar 0
LayerCount: 2
Fore
SplineSet
336 1595 m 0
 390.667 1595 433.668 1579.17 465.001 1547.5 c 0
 496.334 1515.83 512.001 1472.33 512.001 1417 c 0
 512.001 1357 494.668 1309.33 460.001 1274 c 0
 425.334 1238.67 379.334 1221 322.001 1221 c 0
 294.001 1221 268.834 1225 246.501 1233 c 0
 224.168 1241 205.668 1252.67 191.001 1268 c 0
 176.334 1283.33 165.167 1302.33 157.5 1325 c 0
 149.833 1347.67 146 1373 146 1401 c 0
 146 1459.67 163.167 1506.67 197.5 1542 c 0
 231.833 1577.33 278 1595 336 1595 c 0
536.001 1054 m 1
 516.001 465.999 l 1
 531.001 66.999 l 1
 531.001 -52.334 500.001 -152.334 438.001 -233.001 c 0
 376.001 -313.668 276.668 -383.001 140.001 -441.001 c 1
 18.001 -284.001 l 1
 18.001 -252.001 l 1
 59.334 -229.334 92.834 -203.501 118.501 -174.501 c 0
 144.168 -145.501 163.168 -112.168 175.501 -74.501 c 0
 187.834 -36.834 194.001 7.33301 194.001 58 c 2
 194.001 430 l 1
 185.001 834 l 1
 20.001 834 l 1
 0.000976562 854 l 1
 15.001 1045 l 1
 194.001 1045 l 1
 525.001 1062 l 1
 536.001 1054 l 1
EndSplineSet
Substitution2: "'case' Case-Sensitive Forms lookup 28 subtable" J
Substitution2: "'ordn' Ordinals lookup 22 subtable" j.sups
Substitution2: "'sups' Superscript lookup 16 subtable" j.sups
AlternateSubs2: "'aalt' Access All Alternates lookup 1 subtable" j.sups J
EndChar

StartChar: k
Encoding: 107 107 76
Width: 1155
GlyphClass: 2
Flags: W
AnchorPoint: "Anchor-1" 612 0 basechar 0
AnchorPoint: "Anchor-0" 303 1532 basechar 0
LayerCount: 2
Fore
SplineSet
466 466 m 1
 482 0 l 1
 126 0 l 1
 144 432 l 1
 131 1556 l 1
 484 1582 l 1
 466 466 l 1
1122 1054 m 1
 808.001 580.999 l 1
 877.334 460.999 988.667 286.666 1142 57.999 c 1
 1140 21.999 l 1
 1064.67 4.66602 954 -11.001 808 -25.001 c 1
 770 -7.00098 l 1
 652 179.666 551.667 365.333 469 550 c 1
 469 572 l 1
 701 937 l 1
 752 1054 l 1
 1122 1054 l 1
EndSplineSet
Substitution2: "'case' Case-Sensitive Forms lookup 28 subtable" K
Substitution2: "'ordn' Ordinals lookup 22 subtable" k.sups
Substitution2: "'sups' Superscript lookup 16 subtable" k.sups
AlternateSubs2: "'aalt' Access All Alternates lookup 1 subtable" k.sups K
EndChar

StartChar: l
Encoding: 108 108 77
Width: 610
GlyphClass: 2
Flags: W
AnchorPoint: "Anchor-1" 303 0 basechar 0
AnchorPoint: "Anchor-0" 303 1532 basechar 0
LayerCount: 2
Fore
SplineSet
466 466 m 1
 482 0 l 1
 126 0 l 1
 144 432 l 1
 131 1556 l 1
 484 1582 l 1
 466 466 l 1
EndSplineSet
Substitution2: "Single Substitution lookup 41 subtable" L.ss01
Substitution2: "'ss01' Style Set 1 lookup 35 subtable" L.ss01
Substitution2: "'case' Case-Sensitive Forms lookup 28 subtable" L
Substitution2: "'ordn' Ordinals lookup 22 subtable" l.sups
Substitution2: "'sups' Superscript lookup 16 subtable" l.sups
AlternateSubs2: "'aalt' Access All Alternates lookup 1 subtable" l.sups L L.ss01
EndChar

StartChar: m
Encoding: 109 109 78
Width: 1817
GlyphClass: 2
Flags: W
LayerCount: 2
Fore
SplineSet
1356 0 m 1
 1376 630.001 l 1
 1376 734.001 1333.33 786.001 1248 786.001 c 0
 1196.67 786.001 1141 764.001 1081 720.001 c 1
 1075 466.001 l 1
 1088 0.000976562 l 1
 735.001 0.000976562 l 1
 755.001 630.001 l 1
 755.001 681.334 744.168 720.167 722.501 746.5 c 0
 700.834 772.833 668.667 786 626 786 c 0
 574.667 786 517 763.333 453 718 c 1
 453 466 l 1
 469 0 l 1
 114 0 l 1
 133 430 l 1
 120 1032 l 1
 455 1059 l 1
 455 903 l 1
 469 903 l 1
 549.667 979.669 639.667 1034.67 739 1068 c 1
 823 1068 892.333 1053.33 947 1024 c 0
 1001.67 994.667 1040 953 1062 899 c 1
 1072 899 l 1
 1154.67 977 1251 1033.33 1361 1068 c 1
 1473.67 1068 1559.5 1042 1618.5 990 c 0
 1677.5 938 1706.33 864 1705 768 c 1
 1696 466 l 1
 1709 0 l 1
 1356 0 l 1
EndSplineSet
Substitution2: "Single Substitution lookup 41 subtable" M.ss01
Substitution2: "'ss01' Style Set 1 lookup 35 subtable" M.ss01
Substitution2: "'case' Case-Sensitive Forms lookup 28 subtable" M
Substitution2: "'ordn' Ordinals lookup 22 subtable" m.sups
Substitution2: "'sups' Superscript lookup 16 subtable" m.sups
AlternateSubs2: "'aalt' Access All Alternates lookup 1 subtable" m.sups M M.ss01
EndChar

StartChar: n
Encoding: 110 110 79
Width: 1200
GlyphClass: 2
Flags: W
AnchorPoint: "Anchor-1" 612 0 basechar 0
AnchorPoint: "Anchor-0" 640 1053 basechar 0
LayerCount: 2
Fore
SplineSet
735 0 m 1
 755.002 628.001 l 1
 755.002 679.334 744.169 718.167 722.502 744.5 c 0
 700.835 770.833 668.668 784 626.001 784 c 0
 576.668 784 519.668 761.333 455.001 716 c 1
 455.001 466 l 1
 471.001 0 l 1
 114.001 0 l 1
 133.001 430 l 1
 120.001 1032 l 1
 458.001 1059 l 1
 458.001 903 l 1
 473.001 903 l 1
 551.001 979 640.334 1034 741.001 1068 c 1
 854.334 1068 940.667 1042 1000 990 c 0
 1059.33 938 1088 864 1086 768 c 2
 1079 466 l 1
 1092 0 l 1
 735 0 l 1
EndSplineSet
Substitution2: "'case' Case-Sensitive Forms lookup 28 subtable" N
Substitution2: "'ordn' Ordinals lookup 22 subtable" n.sups
Substitution2: "'sups' Superscript lookup 16 subtable" n.sups
AlternateSubs2: "'aalt' Access All Alternates lookup 1 subtable" n.sups N
EndChar

StartChar: o
Encoding: 111 111 80
Width: 1114
GlyphClass: 2
Flags: W
AnchorPoint: "Anchor-1" 0 0 basechar 0
AnchorPoint: "Anchor-0" 561 1053 basechar 0
LayerCount: 2
Fore
SplineSet
574 1077 m 0
 733.333 1077 854.832 1031.83 938.499 941.501 c 0
 1022.17 851.168 1064 720.001 1064 548.001 c 0
 1064 362.001 1019.33 220.001 929.999 122.001 c 0
 840.666 24.001 710.999 -24.999 540.999 -24.999 c 0
 381.666 -24.999 260.333 20.168 177 110.501 c 0
 93.667 200.834 52 331.667 52 503 c 0
 52 689.667 96.5 832 185.5 930 c 0
 274.5 1028 404 1077 574 1077 c 0
549.999 836.001 m 0
 489.332 836.001 446.664 816.169 421.998 776.502 c 0
 397.331 736.835 384.998 667.335 384.998 568.002 c 0
 384.998 476.002 390.831 404.169 402.498 352.502 c 0
 414.165 300.835 432.832 264.002 458.499 242.002 c 0
 484.166 220.002 519.666 209.002 564.999 209.002 c 0
 624.332 209.002 666.332 229.002 690.999 269.002 c 0
 715.666 309.002 727.999 379.335 727.999 480.002 c 0
 727.999 570.002 722.166 640.669 710.499 692.002 c 0
 698.832 743.335 680.332 780.168 654.999 802.501 c 0
 629.666 824.834 594.666 836.001 549.999 836.001 c 0
EndSplineSet
Substitution2: "'case' Case-Sensitive Forms lookup 28 subtable" O
Substitution2: "'ordn' Ordinals lookup 22 subtable" o.sups
Substitution2: "'sups' Superscript lookup 16 subtable" o.sups
AlternateSubs2: "'aalt' Access All Alternates lookup 1 subtable" o.sups O
EndChar

StartChar: p
Encoding: 112 112 81
Width: 1170
GlyphClass: 2
Flags: W
LayerCount: 2
Fore
SplineSet
707 1068 m 1
 839 1068 940.834 1022.83 1012.5 932.5 c 0
 1084.17 842.167 1120 716 1120 554 c 0
 1120 368 1073 225 979.001 125 c 0
 885.001 25 754.668 -25 588.001 -25 c 0
 543.334 -25 501.334 -21 462.001 -13 c 1
 469.001 -417 l 1
 112.001 -417 l 1
 131.001 430 l 1
 114.001 1032 l 1
 455.001 1059 l 1
 455.001 903 l 1
 469.001 903 l 1
 542.334 978.333 621.667 1033.33 707 1068 c 1
579.001 202 m 0
 646.334 202 697.668 225.833 733.001 273.5 c 0
 768.334 321.167 785.334 397.667 784.001 503 c 1
 784.001 690.333 724.001 784 604.001 784 c 0
 553.334 784 503.001 762 453.001 718 c 1
 453.001 466 l 1
 458.001 226 l 1
 500.668 210 541.001 202 579.001 202 c 0
EndSplineSet
Substitution2: "'case' Case-Sensitive Forms lookup 28 subtable" P
Substitution2: "'ordn' Ordinals lookup 22 subtable" p.sups
Substitution2: "'sups' Superscript lookup 16 subtable" p.sups
AlternateSubs2: "'aalt' Access All Alternates lookup 1 subtable" p.sups P
EndChar

StartChar: q
Encoding: 113 113 82
Width: 1168
GlyphClass: 2
Flags: W
LayerCount: 2
Fore
SplineSet
1027 1077 m 1
 1059 1059 l 1
 1038 466 l 1
 1054 -417 l 1
 700.999 -417 l 1
 715.999 45 l 1
 715.999 108 l 1
 697.999 108 l 1
 643.999 58 580.332 16 506.999 -18 c 1
 362.332 -18 249.999 29.333 169.999 124 c 0
 89.999 218.667 49.999 348 49.999 512 c 0
 49.999 602.667 62.832 683.834 88.499 755.5 c 0
 114.166 827.167 150.333 886 197 932 c 0
 243.667 978 298.5 1012.83 361.5 1036.5 c 0
 424.5 1060.17 494 1072 570 1072 c 0
 618.667 1072 663.834 1067.67 705.5 1059 c 0
 747.167 1050.33 793 1037 843 1019 c 1
 1027 1077 l 1
567.999 834 m 0
 503.332 834 456.332 813.167 426.999 771.5 c 0
 397.666 729.833 382.999 660.333 382.999 563 c 0
 383.666 460.333 399.166 382.833 429.499 330.5 c 0
 459.833 278.167 503.666 252 560.999 252 c 0
 612.999 252 663.999 277 713.999 327 c 1
 715.999 428 l 1
 709.999 798 l 1
 661.999 822 614.666 834 567.999 834 c 0
EndSplineSet
Substitution2: "'case' Case-Sensitive Forms lookup 28 subtable" Q
Substitution2: "'ordn' Ordinals lookup 22 subtable" q.sups
Substitution2: "'sups' Superscript lookup 16 subtable" q.sups
AlternateSubs2: "'aalt' Access All Alternates lookup 1 subtable" q.sups Q
EndChar

StartChar: r
Encoding: 114 114 83
Width: 806
GlyphClass: 2
Flags: W
AnchorPoint: "Anchor-1" 290 0 basechar 0
AnchorPoint: "Anchor-0" 462 1053 basechar 0
LayerCount: 2
Fore
SplineSet
744 1057 m 0
 746.667 1057 764.667 1055.33 798 1052 c 1
 798 725.001 l 1
 761 714.001 l 1
 740.333 724.668 713.333 730.001 680 730.001 c 0
 660.667 730.001 641.5 727.501 622.5 722.501 c 0
 603.5 717.501 584.5 709.668 565.5 699.001 c 0
 546.5 688.334 527.667 674.667 509 658 c 0
 490.333 641.333 472.333 622 455 600 c 1
 455 466 l 1
 471 0 l 1
 114 0 l 1
 133 430 l 1
 120 1032 l 1
 458 1059 l 1
 458 856 l 1
 475 856 l 1
 543 990 632.667 1057 744 1057 c 0
EndSplineSet
Substitution2: "'case' Case-Sensitive Forms lookup 28 subtable" R
Substitution2: "'ordn' Ordinals lookup 22 subtable" r.sups
Substitution2: "'sups' Superscript lookup 16 subtable" r.sups
AlternateSubs2: "'aalt' Access All Alternates lookup 1 subtable" r.sups R
EndChar

StartChar: s
Encoding: 115 115 84
Width: 882
GlyphClass: 2
Flags: W
AnchorPoint: "Anchor-1" 432 0 basechar 0
AnchorPoint: "Anchor-0" 446 1053 basechar 0
LayerCount: 2
Fore
SplineSet
503 1075 m 0
 611.667 1075 713.332 1057 807.998 1021 c 1
 762.998 766.003 l 1
 719.998 752.003 l 1
 688.663 772.003 656.83 789.17 624.498 803.503 c 0
 592.163 817.836 562.33 828.669 534.998 836.002 c 0
 507.665 843.335 483.332 847.002 461.999 847.002 c 0
 431.332 847.002 407.832 840.002 391.499 826.002 c 0
 375.166 812.002 366.999 795.335 366.999 776.002 c 0
 366.999 758.002 373.666 741.835 386.999 727.502 c 0
 400.332 713.163 417.999 700.83 439.999 690.502 c 0
 461.999 680.169 486.832 669.169 514.499 657.502 c 0
 542.166 645.835 570.499 634.335 599.499 623.002 c 0
 628.499 611.669 656.832 597.002 684.499 579.002 c 0
 712.166 561.002 736.999 541.502 758.999 520.502 c 0
 780.999 499.502 798.666 472.669 811.999 440.002 c 0
 825.332 407.335 831.999 371.002 831.999 331.002 c 0
 831.999 294.335 826.666 259.168 815.999 225.502 c 0
 805.332 191.835 788.332 159.668 764.999 129.001 c 0
 741.666 98.334 713.166 71.667 679.499 49 c 0
 645.832 26.333 603.832 8.33301 553.499 -5 c 0
 503.166 -18.333 447.666 -25 386.999 -25 c 0
 276.999 -25 159.332 -4 33.999 38 c 1
 76.999 309 l 1
 107.999 331 l 1
 157.332 290.333 212.332 258 272.999 234 c 0
 333.666 210 385.999 198 429.999 198 c 0
 461.999 198 486.832 205.5 504.499 220.5 c 0
 522.166 235.5 530.999 254.333 530.999 277 c 0
 530.999 295 524.332 311.167 510.999 325.5 c 0
 497.666 339.833 480.166 352 458.499 362 c 0
 436.832 372 411.999 382.833 383.999 394.5 c 0
 355.999 406.167 327.332 417.667 297.999 429 c 0
 268.666 440.333 240.166 454.833 212.499 472.5 c 0
 184.832 490.167 159.999 509.667 137.999 531 c 0
 115.999 552.333 98.332 579.5 84.999 612.5 c 0
 71.666 645.5 64.999 682.333 64.999 723 c 0
 64.999 763 71.166 800.833 83.499 836.5 c 0
 95.832 872.167 114.332 904.5 138.999 933.5 c 0
 163.666 962.5 193.499 987.5 228.499 1008.5 c 0
 263.499 1029.5 304.332 1045.83 350.999 1057.5 c 0
 397.666 1069.17 448.333 1075 503 1075 c 0
EndSplineSet
Substitution2: "'case' Case-Sensitive Forms lookup 28 subtable" S
Substitution2: "'ordn' Ordinals lookup 22 subtable" s.sups
Substitution2: "'sups' Superscript lookup 16 subtable" s.sups
AlternateSubs2: "'aalt' Access All Alternates lookup 1 subtable" s.sups S
EndChar

StartChar: t
Encoding: 116 116 85
Width: 783
GlyphClass: 2
Flags: W
AnchorPoint: "Anchor-1" 416 0 basechar 0
AnchorPoint: "Anchor-0" 0 0 basechar 0
LayerCount: 2
Fore
SplineSet
591 262 m 0
 635 262 683 273 735 295 c 1
 759 268 l 1
 725 63 l 1
 651 21.667 573 -4.33301 491 -15 c 1
 381 -9 297.5 19.833 240.5 71.5 c 0
 183.5 123.167 155 194 155 284 c 1
 167 488 l 1
 165 834 l 1
 25 834 l 1
 13 851 l 1
 30 1045 l 1
 162 1045 l 1
 162 1225 l 1
 488 1322 l 1
 514 1300 l 1
 505 1045 l 1
 752 1045 l 1
 763 1025 l 1
 748 834 l 1
 498 834 l 1
 484 378 l 1
 484 334.667 492 304.5 508 287.5 c 0
 524 270.5 551.667 262 591 262 c 0
EndSplineSet
Substitution2: "'case' Case-Sensitive Forms lookup 28 subtable" T
Substitution2: "'ordn' Ordinals lookup 22 subtable" t.sups
Substitution2: "'sups' Superscript lookup 16 subtable" t.sups
AlternateSubs2: "'aalt' Access All Alternates lookup 1 subtable" t.sups T
EndChar

StartChar: u
Encoding: 117 117 86
Width: 1186
GlyphClass: 2
Flags: W
AnchorPoint: "Anchor-1" 0 0 basechar 0
AnchorPoint: "Anchor-0" 588 1053 basechar 0
LayerCount: 2
Fore
SplineSet
1059 1059 m 1
 1038 297.001 l 2
 1038 275.668 1041.17 260.668 1047.5 252.001 c 0
 1053.83 243.334 1065 239.001 1081 239.001 c 0
 1096.34 239.001 1113.67 242.001 1133 248.001 c 1
 1156 228.001 l 1
 1124 41.001 l 1
 1076.67 6.33398 1016 -13.999 942 -19.999 c 1
 848 -10.666 784.667 48.334 752 157.001 c 1
 728 157.001 l 1
 645.333 72.334 557.333 15.667 464 -13 c 1
 351.333 -13 265 12.833 205 64.5 c 0
 145 116.167 115.667 190 117 286 c 2
 122 538 l 1
 110 1032 l 1
 453 1059 l 1
 449 417 l 2
 449 367.667 458.5 331 477.5 307 c 0
 496.5 283 525.667 271 565 271 c 0
 617.667 271 669.334 293.333 720 338 c 1
 720 1032 l 1
 1059 1059 l 1
EndSplineSet
Substitution2: "'case' Case-Sensitive Forms lookup 28 subtable" U
Substitution2: "'ordn' Ordinals lookup 22 subtable" u.sups
Substitution2: "'sups' Superscript lookup 16 subtable" u.sups
AlternateSubs2: "'aalt' Access All Alternates lookup 1 subtable" u.sups U
EndChar

StartChar: v
Encoding: 118 118 87
Width: 1021
GlyphClass: 2
Flags: W
LayerCount: 2
Fore
SplineSet
385 872 m 1
 509 331 l 1
 529 331 l 1
 680 851 l 1
 720 1054 l 1
 1030 1054 l 1
 694 0 l 1
 307 0 l 1
 22 1047 l 1
 356 1062 l 1
 385 872 l 1
EndSplineSet
Substitution2: "Single Substitution lookup 41 subtable" V.ss01
Substitution2: "'ss01' Style Set 1 lookup 35 subtable" V.ss01
Substitution2: "'case' Case-Sensitive Forms lookup 28 subtable" V
Substitution2: "'ordn' Ordinals lookup 22 subtable" v.sups
Substitution2: "'sups' Superscript lookup 16 subtable" v.sups
AlternateSubs2: "'aalt' Access All Alternates lookup 1 subtable" v.sups V V.ss01
EndChar

StartChar: w
Encoding: 119 119 88
Width: 1597
GlyphClass: 2
Flags: W
AnchorPoint: "Anchor-1" 0 0 basechar 0
AnchorPoint: "Anchor-0" 812 1053 basechar 0
LayerCount: 2
Fore
SplineSet
370 883 m 1
 471 356 l 1
 488 356 l 1
 617 862 l 1
 656 1054 l 1
 1000 1054 l 1
 1021 883 l 1
 1129 356 l 1
 1148 356 l 1
 1270 862 l 1
 1309 1054 l 1
 1606 1054 l 1
 1286 0 l 1
 950 0 l 1
 817 613 l 1
 793 613 l 1
 638 0 l 1
 288 0 l 1
 22 1047 l 1
 344 1062 l 1
 370 883 l 1
EndSplineSet
Substitution2: "'case' Case-Sensitive Forms lookup 28 subtable" W
Substitution2: "'ordn' Ordinals lookup 22 subtable" w.sups
Substitution2: "'sups' Superscript lookup 16 subtable" w.sups
AlternateSubs2: "'aalt' Access All Alternates lookup 1 subtable" w.sups W
EndChar

StartChar: x
Encoding: 120 120 89
Width: 1064
GlyphClass: 2
Flags: W
LayerCount: 2
Fore
SplineSet
447 924 m 1
 559 728 l 1
 675 937 l 1
 735 1052 l 1
 1043 1052 l 1
 750 534 l 1
 1052 11 l 1
 675 -15 l 1
 622 129 l 1
 509 331 l 1
 383 112 l 1
 331 0 l 1
 20 0 l 1
 314 527 l 1
 18 1045 l 1
 398 1062 l 1
 447 924 l 1
EndSplineSet
Substitution2: "Single Substitution lookup 41 subtable" X.ss01
Substitution2: "'ss01' Style Set 1 lookup 35 subtable" X.ss01
Substitution2: "'case' Case-Sensitive Forms lookup 28 subtable" X
Substitution2: "'ordn' Ordinals lookup 22 subtable" x.sups
Substitution2: "'sups' Superscript lookup 16 subtable" x.sups
AlternateSubs2: "'aalt' Access All Alternates lookup 1 subtable" x.sups X X.ss01
EndChar

StartChar: y
Encoding: 121 121 90
Width: 1028
GlyphClass: 2
Flags: W
AnchorPoint: "Anchor-1" 0 0 basechar 0
AnchorPoint: "Anchor-0" 526 1053 basechar 0
LayerCount: 2
Fore
SplineSet
365 881 m 1
 520 354.002 l 1
 541 354.002 l 1
 692 847.002 l 1
 733 1054 l 1
 1036 1054 l 1
 710 88.002 l 1
 658.667 -58.665 591 -170.665 507 -247.998 c 0
 423 -325.331 300.667 -387.331 140 -433.998 c 1
 112 -431.998 l 1
 46 -365.998 -6.33301 -294.331 -45 -216.998 c 1
 -32 -184.998 l 1
 53.333 -169.665 128.5 -147.332 193.5 -117.999 c 0
 258.5 -88.666 318 -49.333 372 0 c 1
 -11 1047 l 1
 329 1062 l 1
 365 881 l 1
EndSplineSet
Substitution2: "'case' Case-Sensitive Forms lookup 28 subtable" Y
Substitution2: "'ordn' Ordinals lookup 22 subtable" y.sups
Substitution2: "'sups' Superscript lookup 16 subtable" y.sups
AlternateSubs2: "'aalt' Access All Alternates lookup 1 subtable" y.sups Y
EndChar

StartChar: z
Encoding: 122 122 91
Width: 968
GlyphClass: 2
Flags: W
AnchorPoint: "Anchor-1" 0 0 basechar 0
AnchorPoint: "Anchor-0" 479 1053 basechar 0
LayerCount: 2
Fore
SplineSet
320 1054 m 1
 772 1054 l 1
 901 1057 l 1
 903 845 l 1
 428 226 l 1
 705 226 l 1
 905 241 l 1
 924 219 l 1
 901 -7 l 1
 615 0 l 1
 219 0 l 1
 54 -9 l 1
 54 200 l 1
 534 829 l 1
 273 829 l 1
 75 813 l 1
 54 836 l 1
 79 1059 l 1
 320 1054 l 1
EndSplineSet
Substitution2: "'case' Case-Sensitive Forms lookup 28 subtable" Z
Substitution2: "'ordn' Ordinals lookup 22 subtable" z.sups
Substitution2: "'sups' Superscript lookup 16 subtable" z.sups
AlternateSubs2: "'aalt' Access All Alternates lookup 1 subtable" z.sups Z
EndChar

StartChar: braceleft
Encoding: 123 123 92
Width: 671
GlyphClass: 2
Flags: W
LayerCount: 2
Fore
SplineSet
494 1483 m 0
 543.333 1483 596.333 1474.67 653 1458 c 1
 667 1433 l 1
 638 1255 l 1
 607.333 1262.33 581.666 1266 560.999 1266 c 0
 484.999 1266 446.999 1224 446.999 1140 c 0
 446.999 1110.67 455.832 1062.83 473.499 996.501 c 0
 491.166 930.168 499.999 881.668 499.999 851.001 c 0
 499.999 817.666 494.332 786.333 482.999 757.001 c 0
 471.666 727.665 454.166 701.332 430.499 678.001 c 0
 406.832 654.668 377.999 635.001 343.999 619.001 c 1
 343.999 606.001 l 1
 377.999 590.668 406.832 571.168 430.499 547.501 c 0
 454.166 523.834 471.666 497.667 482.999 469 c 0
 494.332 440.333 499.999 410 499.999 378 c 0
 499.999 345.333 491.166 296 473.499 230 c 0
 455.832 164 446.999 116.667 446.999 88 c 0
 446.999 2 484.999 -41 560.999 -41 c 0
 581.667 -41 607.334 -37.333 638 -30 c 1
 667 -207 l 1
 653 -232 l 1
 604.333 -246.667 551.333 -254 494 -254 c 0
 388 -254 307 -230.667 251 -184 c 0
 195 -137.333 167 -71 167 15 c 0
 167 62.333 174.833 125.333 190.5 204 c 0
 206.167 282.667 214 335.667 214 363 c 0
 214 445.667 167 501.667 73 531 c 1
 73 694 l 1
 167 726 214 783 214 865 c 0
 214 891.667 206.167 944 190.5 1022 c 0
 174.833 1100 167 1162.67 167 1210 c 0
 167 1297.34 195 1364.67 251 1412 c 0
 307 1459.33 388 1483 494 1483 c 0
EndSplineSet
EndChar

StartChar: bar
Encoding: 124 124 93
Width: 684
GlyphClass: 2
Flags: W
LayerCount: 2
Fore
SplineSet
482 1791 m 1
 473 658 l 1
 475 -561 l 1
 232 -581 l 1
 205 -550 l 1
 207 630 l 1
 209 1795 l 1
 458 1816 l 1
 482 1791 l 1
EndSplineSet
EndChar

StartChar: braceright
Encoding: 125 125 94
Width: 671
GlyphClass: 2
Flags: W
LayerCount: 2
Fore
SplineSet
178 -254 m 0
 128.667 -254 75.333 -246.665 18 -231.998 c 1
 4 -206.998 l 1
 32 -27.998 l 1
 62.667 -34.665 88.667 -37.998 110 -37.998 c 0
 147.333 -37.998 176 -27.3311 196 -5.99805 c 0
 216 15.335 226 46.668 226 88.001 c 0
 226 116.668 216.5 164.168 197.5 230.501 c 0
 178.5 296.834 169 344.667 169 374 c 0
 169 424.667 182.333 470.167 209 510.5 c 0
 235.667 550.833 274 582.666 324 605.999 c 1
 324 618.999 l 1
 274.667 642.332 236.5 674.332 209.5 714.999 c 0
 182.5 755.667 169 800.334 169 848.999 c 0
 169 880.999 178.5 929.999 197.5 995.999 c 0
 216.5 1062 226 1110 226 1140 c 0
 226 1181.34 216 1212.67 196 1234 c 0
 176 1255.33 147.333 1266 110 1266 c 0
 88.667 1266 62.667 1262.33 32 1255 c 1
 4 1433 l 1
 18 1458 l 1
 74.667 1474.67 128 1483 178 1483 c 0
 284 1483 365 1459.33 421 1412 c 0
 477 1364.67 505 1297.33 505 1210 c 0
 505 1163.33 496.667 1101 480 1023 c 0
 463.333 945 455 892.333 455 865 c 0
 455 782.333 503.333 726 600 696 c 1
 600 531 l 1
 503.333 501.667 455 445.667 455 363 c 0
 455 335.667 463.333 282.667 480 204 c 0
 496.667 125.333 505 62.333 505 15 c 0
 505 -71 477 -137.333 421 -184 c 0
 365 -230.667 284 -254 178 -254 c 0
EndSplineSet
EndChar

StartChar: asciitilde
Encoding: 126 126 95
Width: 1081
GlyphClass: 2
Flags: W
LayerCount: 2
Fore
SplineSet
338 509 m 0
 330 509 322.33 508.001 314.997 506.001 c 0
 307.664 504.001 299.831 500.334 291.498 495.001 c 0
 283.165 489.668 275.832 484.501 269.499 479.501 c 0
 263.166 474.501 255.333 467.168 246 457.501 c 0
 236.667 447.834 229 440.001 223 434.001 c 0
 217 428.001 208.333 418.834 197 406.501 c 0
 185.666 394.168 177.333 384.668 172 378.001 c 1
 140 378.001 l 1
 45 496.001 l 1
 45 527.001 l 1
 239 755.001 l 1
 271 770.001 l 1
 305.667 764.001 358.167 750.501 428.5 729.501 c 0
 498.833 708.501 564.166 689.501 624.499 672.501 c 0
 684.832 655.501 725.999 647.001 747.999 647.001 c 0
 755.332 647.001 762.499 648.001 769.499 650.001 c 0
 776.499 652.001 784.166 655.834 792.499 661.501 c 0
 800.832 667.168 807.999 672.001 813.999 676.001 c 0
 819.999 680.001 828.166 687.168 838.499 697.501 c 0
 848.832 707.834 856.499 715.667 861.499 721 c 0
 866.499 726.333 875.332 735.833 887.999 749.5 c 0
 900.673 763.167 909.34 772.667 914 778 c 1
 944 778 l 1
 1036 660 l 1
 1036 630 l 1
 845 402 l 1
 813 389 l 1
 777.667 394.333 725 407 655 427 c 0
 585 447 519.833 465.667 459.5 483 c 0
 399.167 500.333 358.667 509 338 509 c 0
EndSplineSet
EndChar

StartChar: exclamdown
Encoding: 161 161 97
Width: 602
GlyphClass: 2
Flags: W
LayerCount: 2
Fore
SplineSet
338 705 m 0
 283.333 705 240.833 720.832 210.5 752.499 c 0
 180.167 784.166 165 827.666 165 882.999 c 0
 165 942.999 181.667 990.666 215 1026 c 0
 248.333 1061.33 293.5 1079 350.5 1079 c 0
 407.5 1079 451.5 1063.33 482.5 1032 c 0
 513.5 1000.66 529 956.331 529 899 c 0
 529 840.333 511.667 793.333 477 758 c 0
 442.333 722.667 396 705 338 705 c 0
114 -402.001 m 1
 209 506.999 l 1
 412 535.999 l 1
 447 499.999 l 1
 473 -385.001 l 1
 441 -426.001 l 1
 155 -443.001 l 1
 114 -402.001 l 1
EndSplineSet
EndChar

StartChar: cent
Encoding: 162 162 98
Width: 860
GlyphClass: 2
Flags: W
LayerCount: 2
Fore
SplineSet
597 342 m 0
 652.333 342 721.999 357.668 805.999 389.001 c 1
 833.999 370.001 l 1
 797.999 101.001 l 1
 735.332 85.001 681.332 74.334 635.999 69.001 c 1
 614.999 -283.999 l 1
 375.999 -283.999 l 1
 348.999 -255.999 l 1
 369.999 84.001 l 1
 267.999 112.001 189.499 170.334 134.499 259.001 c 0
 79.499 347.668 51.999 461.335 51.999 600.002 c 0
 51.999 748.669 84.832 870.502 150.499 965.502 c 0
 216.166 1060.5 309.333 1121.33 430 1148 c 1
 449 1485 l 1
 680 1485 l 1
 716 1453 l 1
 698 1154 l 1
 755.333 1144.67 806.333 1130.34 851 1111 c 1
 793 832.003 l 1
 766 820.003 l 1
 738.667 832.67 715.5 842.67 696.5 850.003 c 0
 677.5 857.336 657.167 863.669 635.5 869.002 c 0
 613.833 874.335 593.333 877.002 574 877.002 c 0
 514 877.002 468.667 856.502 438 815.502 c 0
 407.333 774.502 392 714.669 392 636.002 c 0
 392 587.335 396.333 544.668 405 508.001 c 0
 413.667 471.333 426.667 440.666 444 416 c 0
 461.333 391.333 482.833 372.833 508.5 360.5 c 0
 534.167 348.167 563.667 342 597 342 c 0
EndSplineSet
EndChar

StartChar: sterling
Encoding: 163 163 99
Width: 1036
GlyphClass: 2
Flags: W
LayerCount: 2
Fore
SplineSet
984 236 m 1
 959.001 -9.00098 l 1
 647.001 -0.000976562 l 1
 47.001 -0.000976562 l 1
 34.001 17.999 l 1
 50.001 213.999 l 1
 107.334 227.999 149.001 251.999 175.001 285.999 c 0
 201.001 319.999 214.001 367.999 214.001 429.999 c 2
 212.001 590.999 l 1
 47.001 590.999 l 1
 34.001 607.999 l 1
 50.001 781.999 l 1
 212.001 781.999 l 1
 209.001 909.999 l 1
 207.668 1048.67 250.668 1155.5 338.001 1230.5 c 0
 425.335 1305.5 548.335 1343 707.001 1343 c 0
 787.001 1343 876.001 1331.67 974.001 1309 c 1
 953.001 1059 l 1
 931.001 1043 l 1
 831.667 1091 746.334 1115 675.001 1115 c 0
 571.668 1115 520.001 1065.67 520.001 966.999 c 1
 518.001 781.999 l 1
 806.001 781.999 l 1
 815.001 765.999 l 1
 802.001 590.999 l 1
 518.001 590.999 l 1
 516.001 448.999 l 2
 516.001 398.999 509.668 358.832 497.001 328.499 c 0
 484.333 298.166 462.666 270.333 432 245 c 1
 432 236 l 1
 737 236 l 1
 974 254 l 1
 984 236 l 1
EndSplineSet
EndChar

StartChar: currency
Encoding: 164 164 100
Width: 976
GlyphClass: 2
Flags: W
LayerCount: 2
Fore
SplineSet
989 1118 m 1
 989 1088 l 1
 832 948 l 1
 862 896 877 839.333 877 778 c 0
 877 728.667 864 676.667 838 622 c 1
 996 494 l 1
 1002 460 l 1
 847 297 l 1
 817 297 l 1
 680 455 l 1
 630.667 423.667 573 408 507 408 c 0
 452.333 408 399.666 421.667 349 449 c 1
 221 293 l 1
 189 288 l 1
 25 441 l 1
 28 473 l 1
 183 608 l 1
 153 658 138 714.667 138 778 c 0
 138 833.333 151.333 886.333 178 937 c 1
 22 1068 l 1
 18 1099 l 1
 172 1262 l 1
 200 1260 l 1
 340 1101 l 1
 390 1131 445.667 1146 507 1146 c 0
 557 1146 608.667 1133.67 662 1109 c 1
 795 1266 l 1
 827 1273 l 1
 989 1118 l 1
507 957 m 0
 453 957 409.499 940.501 376.499 907.501 c 0
 343.499 874.501 326.999 831.334 326.999 778.001 c 0
 326.999 751.334 331.332 726.667 339.999 704 c 0
 348.666 681.333 360.833 662.333 376.5 647 c 0
 392.167 631.667 411.167 619.5 433.5 610.5 c 0
 455.833 601.5 480.333 597 507 597 c 0
 561 597 604.667 613.667 638 647 c 0
 671.333 680.333 688 723.833 688 777.5 c 0
 688 831.167 671.333 874.5 638 907.5 c 0
 604.667 940.5 561 957 507 957 c 0
EndSplineSet
EndChar

StartChar: yen
Encoding: 165 165 101
Width: 1234
GlyphClass: 2
Flags: W
LayerCount: 2
Fore
SplineSet
867 550 m 1
 780 398 l 1
 1169 398 l 1
 1185 385 l 1
 1174 239 l 1
 755 239 l 1
 766 0 l 1
 458 0 l 1
 469 239 l 1
 81 239 l 1
 69 256 l 1
 79 398 l 1
 443 398 l 1
 365 550 l 1
 81 550 l 1
 69 568 l 1
 79 712 l 1
 282 712 l 1
 60 1142 l 1
 385 1142 l 1
 415 1052 l 1
 613 673 l 1
 630 673 l 1
 851 1041 l 1
 892 1142 l 1
 1208 1142 l 1
 959 712 l 1
 1169 712 l 1
 1185 698 l 1
 1174 550 l 1
 867 550 l 1
EndSplineSet
EndChar

StartChar: brokenbar
Encoding: 166 166 102
Width: 684
GlyphClass: 2
Flags: W
LayerCount: 2
Fore
SplineSet
482 1791 m 1
 475 854 l 1
 232 823 l 1
 207 845 l 1
 207 1795 l 1
 458 1816 l 1
 482 1791 l 1
473 331 m 1
 475 -561 l 1
 232 -581 l 1
 205 -550 l 1
 207 333 l 1
 447 363 l 1
 473 331 l 1
EndSplineSet
EndChar

StartChar: section
Encoding: 167 167 103
Width: 983
GlyphClass: 2
Flags: W
LayerCount: 2
Fore
SplineSet
733 363 m 1
 813.667 303 854 228.666 854 139.999 c 0
 854 91.999 842.833 46.166 820.5 2.49902 c 0
 798.167 -41.168 767.667 -79.335 729 -112.002 c 0
 690.333 -144.669 643 -170.669 587 -190.002 c 0
 531 -209.335 470.667 -219.002 406 -219.002 c 0
 354.667 -219.002 295.167 -213.002 227.5 -201.002 c 0
 159.833 -189.002 99.666 -173.002 46.999 -153.002 c 1
 89.999 119.998 l 1
 121.999 139.998 l 1
 173.999 97.3311 228.666 63.998 285.999 39.998 c 0
 343.332 15.998 394.999 3.99805 440.999 3.99805 c 0
 476.999 3.99805 504.499 11.498 523.499 26.498 c 0
 542.499 41.498 551.999 58.998 551.999 78.998 c 0
 551.999 94.998 544.832 110.331 530.499 124.998 c 0
 516.166 139.665 497.333 152.665 474 163.998 c 0
 450.667 175.331 424 187.998 394 201.998 c 0
 364 215.998 333.333 229.831 302 243.498 c 0
 270.667 257.165 240 274.165 210 294.498 c 0
 180 314.832 153.333 336.665 130 359.998 c 0
 106.667 383.331 87.834 411.998 73.501 445.998 c 0
 59.168 479.998 52.001 516.998 52.001 556.998 c 0
 52.001 622.998 70.834 685.998 108.501 745.998 c 0
 146.168 805.998 197.335 854.665 262.002 891.998 c 1
 183.335 952.666 144.002 1025.67 144.002 1111 c 0
 144.002 1160.33 155.169 1207.17 177.502 1251.5 c 0
 199.835 1295.83 230.502 1334.5 269.502 1367.5 c 0
 308.502 1400.5 356.169 1426.67 412.502 1446 c 0
 468.835 1465.33 529.002 1475 593.002 1475 c 0
 623.669 1475 656.502 1473 691.502 1469 c 0
 726.502 1465 761.502 1458.83 796.502 1450.5 c 0
 831.502 1442.17 863.335 1432.33 892.002 1421 c 1
 849.002 1160 l 1
 808.002 1146 l 1
 758.668 1178 710.835 1202.67 664.502 1220 c 0
 618.169 1237.33 578.669 1246 546.002 1246 c 0
 514.668 1246 489.668 1238.33 471.002 1223 c 0
 452.335 1207.67 443.002 1189.67 443.002 1169 c 0
 443.002 1153.67 450.335 1138.83 465.002 1124.5 c 0
 479.669 1110.17 498.669 1097.33 522.002 1086 c 0
 545.335 1074.67 572.168 1062.17 602.501 1048.5 c 0
 632.834 1034.83 663.667 1021.17 695 1007.5 c 0
 726.333 993.833 757 976.833 787 956.5 c 0
 817 936.167 843.833 914.5 867.5 891.5 c 0
 891.167 868.5 910.167 840.167 924.5 806.5 c 0
 938.833 772.833 946 736 946 696 c 0
 946 629.333 927 566.5 889 507.5 c 0
 851 448.5 799 400.333 733 363 c 1
351 646.999 m 0
 351 630.999 354.667 615.831 362 601.498 c 0
 369.333 587.16 378 574.827 388 564.498 c 0
 398 554.16 412.5 542.827 431.5 530.498 c 0
 450.5 518.165 467.167 508.332 481.5 500.999 c 0
 495.833 493.666 515.666 483.666 540.999 470.999 c 1
 610.332 504.999 644.999 549.332 644.999 603.999 c 0
 644.999 619.999 641.332 635.499 633.999 650.499 c 0
 626.661 665.499 617.828 678.332 607.5 688.999 c 0
 597.167 699.666 582.5 711.166 563.5 723.499 c 0
 544.5 735.832 527.667 745.999 513 753.999 c 0
 498.333 761.999 478.333 771.999 453 783.999 c 1
 431 771.999 412.333 758.666 397 743.999 c 0
 381.667 729.332 370.167 713.832 362.5 697.499 c 0
 354.833 681.163 351 664.33 351 646.999 c 0
EndSplineSet
EndChar

StartChar: dieresis
Encoding: 168 168 104
Width: 873
GlyphClass: 2
Flags: W
LayerCount: 2
Fore
SplineSet
241 1573 m 0
 290.333 1573 328.832 1558.67 356.499 1530 c 0
 384.166 1501.33 397.999 1462 397.999 1412 c 0
 397.999 1385.33 394.166 1361.16 386.499 1339.5 c 0
 378.831 1317.83 367.664 1299.33 352.999 1284 c 0
 338.332 1268.67 320.499 1256.83 299.499 1248.5 c 0
 278.499 1240.17 255.332 1236 229.999 1236 c 0
 195.999 1236 166.832 1242.33 142.499 1255 c 0
 118.166 1267.67 99.833 1286 87.5 1310 c 0
 75.167 1334 69 1363 69 1397 c 0
 69 1451 84.5 1493.83 115.5 1525.5 c 0
 146.5 1557.17 188.333 1573 241 1573 c 0
650.999 1573 m 0
 700.332 1573 738.832 1558.67 766.499 1530 c 0
 794.166 1501.33 807.999 1462 807.999 1412 c 0
 807.999 1358 792.999 1315.17 762.999 1283.5 c 0
 732.999 1251.83 691.999 1236 639.999 1236 c 0
 588.666 1236 549.166 1250.17 521.499 1278.5 c 0
 493.832 1306.83 479.999 1346.33 479.999 1397 c 0
 479.999 1451 495.332 1493.83 525.999 1525.5 c 0
 556.666 1557.17 598.333 1573 650.999 1573 c 0
EndSplineSet
EndChar

StartChar: copyright
Encoding: 169 169 105
Width: 1549
GlyphClass: 2
Flags: W
LayerCount: 2
Fore
SplineSet
772 1348 m 0
 873.333 1348 966.333 1331.33 1051 1298 c 0
 1135.67 1264.67 1207.5 1218.17 1266.5 1158.5 c 0
 1325.5 1098.83 1371.33 1026.33 1404 941 c 0
 1436.67 855.667 1453 762 1453 660 c 0
 1453 558 1436.67 464.333 1404 379 c 0
 1371.33 293.667 1325.5 221.167 1266.5 161.5 c 0
 1207.5 101.833 1135.67 55.333 1051 22 c 0
 966.333 -11.333 873.333 -28 772 -28 c 0
 672 -28 579.833 -11.333 495.5 22 c 0
 411.167 55.333 339.667 101.833 281 161.5 c 0
 222.333 221.167 176.666 293.667 143.999 379 c 0
 111.332 464.333 94.999 558 94.999 660 c 0
 94.999 762 111.332 855.667 143.999 941 c 0
 176.666 1026.33 222.333 1098.83 281 1158.5 c 0
 339.667 1218.17 411.167 1264.67 495.5 1298 c 0
 579.833 1331.33 672 1348 772 1348 c 0
772 1230 m 0
 662 1230 564.832 1206.16 480.499 1158.5 c 0
 396.166 1110.83 330.666 1043.83 283.999 957.496 c 0
 237.332 871.163 213.999 771.996 213.999 659.996 c 0
 213.999 547.996 237.332 448.829 283.999 362.496 c 0
 330.666 276.163 396.166 209.163 480.499 161.496 c 0
 564.832 113.829 661.999 89.9961 771.999 89.9961 c 0
 855.332 89.9961 931.832 103.829 1001.5 131.496 c 0
 1071.17 159.163 1130.33 197.83 1179 247.497 c 0
 1227.67 297.164 1265.5 357.331 1292.5 427.998 c 0
 1319.5 498.665 1333 575.998 1333 659.998 c 0
 1333 743.998 1319.5 821.331 1292.5 891.998 c 0
 1265.5 962.666 1227.67 1022.83 1179 1072.5 c 0
 1130.33 1122.17 1071.16 1160.83 1001.5 1188.5 c 0
 931.833 1216.17 855.333 1230 772 1230 c 0
831.999 1045 m 0
 896.666 1045 961.666 1035.33 1027 1016 c 1
 983.999 828.996 l 1
 970.999 819.996 l 1
 926.999 842.663 877.666 853.996 822.999 853.996 c 0
 771.666 853.996 734.666 841.163 711.999 815.496 c 0
 689.332 789.829 677.999 746.329 677.999 684.996 c 0
 677.999 614.996 690.666 563.329 715.999 529.996 c 0
 741.332 496.663 781.332 479.996 835.999 479.996 c 0
 884.666 479.996 933.999 487.663 983.999 502.996 c 1
 1004 493.996 l 1
 986.999 308.996 l 1
 940.332 294.996 883.665 287.996 816.998 287.996 c 0
 687.665 287.996 590.832 319.496 526.499 382.496 c 0
 462.166 445.496 429.999 537.996 429.999 659.996 c 0
 429.999 781.996 464.999 876.663 534.999 943.996 c 0
 604.999 1011.33 703.999 1045 831.999 1045 c 0
EndSplineSet
EndChar

StartChar: ordfeminine
Encoding: 170 170 106
Width: 787
GlyphClass: 2
Flags: W
AnchorPoint: "Anchor-1" 0 0 basechar 0
AnchorPoint: "Anchor-0" 401 716 basechar 0
LayerCount: 2
Fore
SplineSet
406 1471 m 0
 497.333 1471 567.167 1452.66 615.5 1416 c 0
 663.833 1379.33 688 1326.33 688 1257 c 0
 688 1241 685.833 1189.66 681.5 1103 c 0
 677.167 1016.33 675 966.997 675 954.997 c 0
 675 926.33 683.667 911.997 701 911.997 c 0
 715 911.997 725.667 914.664 733 919.997 c 1
 750 902.997 l 1
 725 765.997 l 1
 705 749.997 685.833 738.83 667.5 732.497 c 0
 649.167 726.164 628 722.997 604 722.997 c 0
 564 722.997 534 730.997 514 746.997 c 0
 494 762.997 477.333 791.33 464 831.997 c 1
 455 831.997 l 1
 408.333 777.997 355 740.664 295 719.997 c 1
 219 721.33 158.667 742.497 114 783.497 c 0
 69.333 824.497 47 879.997 47 949.997 c 0
 47 1060 104.333 1124 219 1142 c 1
 441 1174 l 1
 443 1208 l 1
 443 1226.66 440.167 1241.83 434.5 1253.5 c 0
 428.832 1265.17 420.165 1273.83 408.5 1279.5 c 0
 396.833 1285.17 381.666 1288 363 1288 c 0
 303 1288 228.667 1262.67 140 1212 c 1
 122 1221 l 1
 92 1393 l 1
 139.333 1417.67 190.5 1436.83 245.5 1450.5 c 0
 300.5 1464.17 354 1471 406 1471 c 0
441.001 1054 m 1
 336.001 1036 l 2
 324.668 1034 315.501 1030.83 308.501 1026.5 c 0
 301.501 1022.16 296.001 1015.82 292.001 1007.5 c 0
 288.001 999.164 286.001 988.664 286.001 975.997 c 0
 286.001 953.33 292.001 935.497 304.001 922.497 c 0
 316.001 909.497 332.668 902.997 354.001 902.997 c 0
 382.001 902.997 411.001 915.997 441.001 941.997 c 1
 441.001 1054 l 1
EndSplineSet
EndChar

StartChar: guillemetleft
Encoding: 171 171 107
Width: 999
GlyphClass: 2
Flags: W
LayerCount: 2
Fore
SplineSet
41 482 m 1
 41 536 l 1
 336 944 l 1
 503 856 l 1
 509 823 l 1
 297 514 l 1
 509 207 l 1
 503 176 l 1
 336 88 l 1
 41 482 l 1
477 482 m 1
 477 536 l 1
 772 944 l 1
 939 856 l 1
 946 823 l 1
 735 514 l 1
 946 207 l 1
 939 176 l 1
 772 88 l 1
 477 482 l 1
EndSplineSet
EndChar

StartChar: logicalnot
Encoding: 172 172 108
Width: 1081
GlyphClass: 2
Flags: W
LayerCount: 2
Fore
SplineSet
980 683 m 1
 980 101 l 1
 763 86 l 1
 739 108 l 1
 739 462 l 1
 65 462 l 1
 43 486 l 1
 60 701 l 1
 967 701 l 1
 980 683 l 1
EndSplineSet
EndChar

StartChar: softhyphen
Encoding: 173 173 109
Width: 679
GlyphClass: 2
Flags: W
LayerCount: 2
Fore
SplineSet
619 712 m 1
 619 491 l 1
 86 408 l 1
 58 434 l 1
 58 656 l 1
 593 737 l 1
 619 712 l 1
EndSplineSet
EndChar

StartChar: registered
Encoding: 174 174 110
Width: 1010
GlyphClass: 2
Flags: W
LayerCount: 2
Fore
SplineSet
507 1584 m 0
 591 1584 664.999 1566.33 728.999 1531 c 0
 792.999 1495.67 842.666 1445.67 877.999 1381 c 0
 913.332 1316.33 930.999 1242 930.999 1158 c 0
 930.999 1074 913.332 999.833 877.999 935.5 c 0
 842.666 871.165 792.999 821.332 728.999 786 c 0
 664.999 750.667 590.999 733 506.999 733 c 0
 422.999 733 348.832 750.667 284.499 786 c 0
 220.166 821.333 170.166 871.333 134.499 936 c 0
 98.832 1000.67 80.999 1074.67 80.999 1158 c 0
 80.999 1285.33 120.332 1388.17 198.999 1466.5 c 0
 277.666 1544.83 380.333 1584 507 1584 c 0
506.999 815 m 0
 608.999 815 691.499 846.667 754.499 910 c 0
 817.499 973.333 848.999 1056.17 848.999 1158.5 c 0
 848.999 1260.83 817.666 1343.33 754.999 1406 c 0
 692.332 1468.67 609.832 1500 507.499 1500 c 0
 405.166 1500 322.499 1468.67 259.499 1406 c 0
 196.499 1343.33 164.999 1260.83 164.999 1158.5 c 0
 164.999 1056.17 196.499 973.333 259.499 910 c 0
 322.499 846.667 404.999 815 506.999 815 c 0
700.999 1255 m 0
 700.999 1229 693.667 1204.67 679 1182 c 0
 664.333 1159.33 643.666 1140 616.999 1124 c 1
 639.666 1091.33 676.666 1043.33 727.999 980 c 1
 724.999 967 l 1
 696.999 957 657.332 949.333 605.999 944 c 1
 590.999 953 l 1
 561.666 1001 536.666 1046 515.999 1088 c 1
 452.999 1088 l 1
 459.999 953 l 1
 335.999 953 l 1
 339.999 1079 l 1
 335.999 1393 l 1
 540.999 1395 l 2
 591.666 1395 630.999 1382.83 658.999 1358.5 c 0
 686.999 1334.17 700.999 1299.67 700.999 1255 c 0
572 1246 m 0
 572 1265.34 566.167 1279.68 554.5 1289 c 0
 542.833 1298.37 524 1303.71 498 1305 c 1
 460 1302 l 1
 455 1180 l 1
 522 1176 l 1
 539.333 1184 552 1193.33 560 1204 c 0
 568 1214.67 572 1228.67 572 1246 c 0
EndSplineSet
EndChar

StartChar: macron
Encoding: 175 175 111
Width: 873
GlyphClass: 2
Flags: W
LayerCount: 2
Fore
SplineSet
772 1492 m 1
 755 1294 l 1
 129 1294 l 1
 106 1318 l 1
 122 1516 l 1
 750 1516 l 1
 772 1492 l 1
EndSplineSet
EndChar

StartChar: degree
Encoding: 176 176 112
Width: 657
GlyphClass: 2
Flags: W
LayerCount: 2
Fore
SplineSet
329 1475 m 0
 383.667 1475 433.832 1462 479.499 1436 c 0
 525.166 1410 560.999 1374.5 586.999 1329.5 c 0
 612.999 1284.5 625.999 1234.67 625.999 1180 c 0
 625.999 1096.67 597.332 1026.33 539.999 968.999 c 0
 482.666 911.666 412.333 882.999 329 882.999 c 0
 275 882.999 225.167 895.999 179.5 921.999 c 0
 133.833 947.999 97.833 983.832 71.5 1029.5 c 0
 45.167 1075.17 32 1125.33 32 1180 c 0
 32 1234 45.167 1283.67 71.5 1329 c 0
 97.833 1374.33 133.833 1410 179.5 1436 c 0
 225.167 1462 275 1475 329 1475 c 0
328.998 1327 m 0
 286.331 1327 250.832 1313 222.499 1285 c 0
 194.166 1257 179.999 1222 179.999 1180 c 0
 179.999 1137.33 194.166 1102 222.499 1074 c 0
 250.832 1046 286.332 1032 328.999 1032 c 0
 371.666 1032 406.999 1046 434.999 1074 c 0
 462.999 1102 476.999 1137.33 476.999 1180 c 0
 476.999 1208 470.666 1233.17 457.999 1255.5 c 0
 445.331 1277.83 427.664 1295.33 404.998 1308 c 0
 382.331 1320.67 356.998 1327 328.998 1327 c 0
EndSplineSet
EndChar

StartChar: plusminus
Encoding: 177 177 113
Width: 1081
GlyphClass: 2
Flags: W
LayerCount: 2
Fore
SplineSet
662 1057 m 1
 662 701 l 1
 1014 701 l 1
 1038 678 l 1
 1021 462 l 1
 662 462 l 1
 662 101 l 1
 447 86 l 1
 421 108 l 1
 421 462 l 1
 67 462 l 1
 45 486 l 1
 63 701 l 1
 421 701 l 1
 421 1062 l 1
 638 1079 l 1
 662 1057 l 1
1038 -73 m 1
 1021 -288 l 1
 67 -288 l 1
 45 -264 l 1
 63 -50 l 1
 1014 -50 l 1
 1038 -73 l 1
EndSplineSet
EndChar

StartChar: twosuperior
Encoding: 178 178 114
Width: 826
GlyphClass: 2
Flags: W
LayerCount: 2
Fore
SplineSet
421 1591 m 0
 504.333 1591 572.832 1571.67 626.499 1533 c 0
 680.166 1494.33 706.999 1440.66 706.999 1372 c 0
 706.999 1328 693.332 1280.33 665.999 1229 c 0
 638.666 1177.67 592.999 1114 528.999 1038 c 2
 427.999 916.999 l 1
 431.999 909.999 l 1
 605.999 909.999 l 1
 760.999 923.999 l 1
 775.999 904.999 l 1
 743.999 691.999 l 1
 519.999 702.999 l 1
 141.999 702.999 l 1
 80.999 697.999 l 1
 66.999 709.999 l 1
 66.999 869.999 l 1
 276.999 1086 l 1
 306.332 1118 327.332 1141.17 339.999 1155.5 c 0
 352.666 1169.83 367.333 1187.83 384 1209.5 c 0
 400.667 1231.17 412.167 1249.5 418.5 1264.5 c 0
 424.833 1279.5 428 1293.67 428 1307 c 0
 428 1325.67 421.5 1340.33 408.5 1351 c 0
 395.5 1361.67 376.333 1367 351 1367 c 0
 320.333 1367 285.833 1358.33 247.5 1341 c 0
 209.167 1323.67 174 1300 142 1270 c 1
 110 1270 l 1
 65 1475 l 1
 192.333 1552.33 311 1591 421 1591 c 0
EndSplineSet
EndChar

StartChar: threesuperior
Encoding: 179 179 115
Width: 738
GlyphClass: 2
Flags: W
LayerCount: 2
Fore
SplineSet
349 1593 m 0
 440.334 1593 513.833 1573.17 569.499 1533.5 c 0
 625.166 1493.83 652.999 1441.33 652.999 1376 c 0
 652.999 1352 649.332 1328.83 641.999 1306.5 c 0
 634.661 1284.17 620.328 1260.5 599 1235.5 c 0
 577.667 1210.5 550 1189.33 516 1172 c 1
 516 1163 l 1
 620.667 1131.67 673 1063.67 673 958.999 c 0
 673 876.999 634.667 811.332 558 761.999 c 0
 481.333 712.666 379.333 687.999 252 687.999 c 0
 190 687.999 129 693.666 69 704.999 c 1
 54 898.999 l 1
 73 913.999 l 1
 139.667 896.666 200.667 887.999 256 887.999 c 0
 356 887.999 406 914.999 406 968.999 c 0
 406 1011.67 375.333 1034 314 1036 c 1
 187 1036 l 1
 174 1052 l 1
 178 1232 l 1
 250 1234 l 2
 284 1235.33 312.833 1243.83 336.5 1259.5 c 0
 360.167 1275.17 372 1296 372 1322 c 0
 372 1360.67 344 1380 288 1380 c 0
 240.667 1380 182 1363 112 1329 c 1
 84 1329 l 1
 41 1509 l 1
 87 1535.67 136.833 1556.33 190.5 1571 c 0
 244.167 1585.67 297 1593 349 1593 c 0
EndSplineSet
EndChar

StartChar: acute
Encoding: 180 180 116
Width: 873
GlyphClass: 2
Flags: W
LayerCount: 2
Fore
SplineSet
604 1658 m 1
 733 1462 l 1
 725 1430 l 1
 581 1346.67 426.667 1260.67 262 1172 c 1
 230 1174 l 1
 146 1309 l 1
 306 1431 448 1548 572 1660 c 1
 604 1658 l 1
EndSplineSet
EndChar

StartChar: micro
Encoding: 181 181 117
Width: 1186
GlyphClass: 2
Flags: W
LayerCount: 2
Fore
SplineSet
1158 228 m 1
 1122 40.999 l 1
 1070 1.66602 1011.33 -18.001 946 -18.001 c 0
 891.333 -18.001 847.5 -5.16797 814.5 20.499 c 0
 781.5 46.166 754.333 87.999 733 145.999 c 1
 716 145.999 l 1
 680.667 103.999 645.667 70.332 611 44.999 c 0
 576.333 19.666 538 0.333008 496 -13 c 1
 474.667 -13 459 -12.333 449 -11 c 1
 449 -417 l 1
 112 -417 l 1
 124 430 l 1
 110 1032 l 1
 449 1059 l 1
 449 417 l 2
 449 319.667 488.667 271 568 271 c 0
 618.667 271 669.334 293.333 720 338 c 1
 720 1032 l 1
 1062 1059 l 1
 1038 307 l 1
 1038 258.333 1053.33 234 1084 234 c 0
 1099.34 234 1115.67 238.667 1133 248 c 1
 1158 228 l 1
EndSplineSet
EndChar

StartChar: paragraph
Encoding: 182 182 118
Width: 1213
GlyphClass: 2
Flags: W
LayerCount: 2
Fore
SplineSet
1182 1428 m 1
 1160 1180 l 1
 1016 1180 l 1
 1002 458.002 l 1
 1006 314.002 l 1
 1006 264.669 1001.17 220.169 991.5 180.502 c 0
 981.833 140.835 965.833 103.002 943.5 67.002 c 0
 921.167 31.002 891.667 -2.16504 855 -32.498 c 0
 818.333 -62.8311 773.833 -91.998 721.5 -119.998 c 0
 669.166 -147.998 607.333 -174.665 536 -199.998 c 1
 443 -37.998 l 1
 443 -6.99805 l 1
 525 36.335 583.167 81.168 617.5 127.501 c 0
 651.833 173.834 669 231.001 669 299.001 c 2
 669 419.001 l 1
 656 1182 l 1
 568 1182 l 1
 522 1171.33 486.833 1145.83 462.5 1105.5 c 0
 438.167 1065.17 426 1012.67 426 948.001 c 0
 426 886.001 440.333 828.501 469 775.501 c 0
 497.667 722.501 539 676.668 593 638.001 c 1
 469 458.001 l 1
 332.333 491.334 227.166 551.167 153.499 637.5 c 0
 79.832 723.833 42.999 831 42.999 959 c 0
 42.999 1117 92.832 1238.83 192.499 1324.5 c 0
 292.166 1410.17 434.333 1453 619 1453 c 2
 1163 1453 l 1
 1182 1428 l 1
EndSplineSet
EndChar

StartChar: periodcentered
Encoding: 183 183 119
Width: 512
GlyphClass: 2
Flags: W
LayerCount: 2
Fore
SplineSet
264 761 m 0
 300.667 761 331.999 753.999 357.999 739.999 c 0
 383.999 725.999 403.999 705.666 417.999 678.999 c 0
 431.999 652.332 438.999 620.332 438.999 582.999 c 0
 438.999 543.666 431.166 509.333 415.499 480 c 0
 399.832 450.667 377.832 428.167 349.499 412.5 c 0
 321.166 396.833 287.999 389 249.999 389 c 0
 193.332 389 149.999 404.667 119.999 436 c 0
 89.999 467.333 74.999 511.333 74.999 568 c 0
 74.999 627.333 91.832 674.333 125.499 709 c 0
 159.166 743.667 205.333 761 264 761 c 0
EndSplineSet
EndChar

StartChar: cedilla
Encoding: 184 184 120
Width: 873
GlyphClass: 2
Flags: W
LayerCount: 2
Fore
SplineSet
484 -103 m 1
 560.999 -146 l 2
 595.666 -164.667 620.166 -185.167 634.499 -207.5 c 0
 648.832 -229.833 655.999 -255.333 655.999 -284 c 0
 655.999 -335.333 635.332 -377.5 593.999 -410.5 c 0
 552.666 -443.5 497.333 -460 428 -460 c 0
 360 -460 295.333 -440.667 234 -402 c 1
 256 -256 l 1
 273 -250 l 1
 319 -294 363.333 -316 406 -316 c 0
 437.333 -316 453 -302.333 453 -275 c 0
 453 -259 441.667 -245.333 419 -234 c 2
 309 -174 l 1
 361 65 l 1
 520 65 l 1
 484 -103 l 1
EndSplineSet
EndChar

StartChar: onesuperior
Encoding: 185 185 121
Width: 639
GlyphClass: 2
Flags: W
LayerCount: 2
Fore
SplineSet
486 1563 m 1
 475 1016 l 1
 484 703 l 1
 202 703 l 1
 214 989 l 1
 214 1288 l 1
 34 1255 l 1
 15 1268 l 1
 15 1483 l 1
 449 1591 l 1
 486 1563 l 1
EndSplineSet
EndChar

StartChar: ordmasculine
Encoding: 186 186 122
Width: 789
GlyphClass: 2
Flags: W
AnchorPoint: "Anchor-1" 0 0 basechar 0
AnchorPoint: "Anchor-0" 410 718 basechar 0
LayerCount: 2
Fore
SplineSet
408 1471 m 0
 482.667 1471 545 1457.33 595 1430 c 0
 645 1402.67 682.667 1362.33 708 1309 c 0
 733.333 1255.67 746 1189.67 746 1111 c 0
 746 981 715.167 883 653.5 817 c 0
 591.833 751 501 718 381 718 c 0
 269 718 184.667 748.667 128 810 c 0
 71.333 871.333 43 961.666 43 1081 c 0
 43 1209.67 73.833 1306.83 135.5 1372.5 c 0
 197.167 1438.17 288 1471 408 1471 c 0
392 1291 m 0
 354 1291 327.999 1278.33 313.999 1253 c 0
 299.999 1227.67 292.999 1181 292.999 1113 c 0
 292.999 1028.33 300.332 970.331 314.999 938.999 c 0
 329.666 907.666 357.333 891.999 398 891.999 c 0
 436 891.999 462.5 905.666 477.5 932.999 c 0
 492.5 960.332 500 1009 500 1079 c 0
 500 1159 492 1214.33 476 1245 c 0
 460 1275.67 432 1291 392 1291 c 0
EndSplineSet
EndChar

StartChar: guillemetright
Encoding: 187 187 123
Width: 995
GlyphClass: 2
Flags: W
LayerCount: 2
Fore
SplineSet
512 554 m 1
 512 500 l 1
 217 92 l 1
 50 180 l 1
 43 214 l 1
 254 522 l 1
 43 829 l 1
 50 860 l 1
 217 948 l 1
 512 554 l 1
948 554 m 1
 948 500 l 1
 651 92 l 1
 484 180 l 1
 477 214 l 1
 690 522 l 1
 477 829 l 1
 484 860 l 1
 651 948 l 1
 948 554 l 1
EndSplineSet
EndChar

StartChar: onequarter
Encoding: 188 188 124
Width: 1729
GlyphClass: 2
Flags: W
LayerCount: 2
Fore
SplineSet
1376 1419 m 1
 329 -209 l 1
 178 -117 l 1
 165 -84 l 1
 1214 1552 l 1
 1356 1464 l 1
 1376 1419 l 1
214 1165 m 1
 34 1131 l 1
 15 1144 l 1
 15 1358 l 1
 449 1466 l 1
 486 1440 l 1
 475 892 l 1
 484 579 l 1
 202 579 l 1
 214 865 l 1
 214 1165 l 1
1668 176 m 1
 1554 180 l 1
 1565 18 l 1
 1550 0 l 1
 1331 -11 l 1
 1318 4 l 1
 1322 183 l 1
 1109 183 l 1
 944 176 l 1
 926 198 l 1
 926 365 l 1
 1298 877 l 1
 1554 877 l 1
 1550 383 l 1
 1662 383 l 1
 1679 361 l 1
 1668 176 l 1
1163 383 m 1
 1327 383 l 1
 1327 585 l 1
 1311 585 l 1
 1163 383 l 1
EndSplineSet
EndChar

StartChar: onehalf
Encoding: 189 189 125
Width: 1799
GlyphClass: 2
Flags: W
LayerCount: 2
Fore
SplineSet
1356 1464 m 1
 1376 1419 l 1
 329 -209 l 1
 178 -117 l 1
 165 -84 l 1
 1214 1552 l 1
 1356 1464 l 1
486 1440 m 1
 475 892 l 1
 484 579 l 1
 202 579 l 1
 214 865 l 1
 214 1165 l 1
 34 1131 l 1
 15 1144 l 1
 15 1358 l 1
 449 1466 l 1
 486 1440 l 1
1397 888 m 0
 1479.67 888 1548 868.667 1602 830 c 0
 1656 791.333 1683 737.666 1683 668.999 c 0
 1683 624.999 1669.16 577.332 1641.5 525.999 c 0
 1613.83 474.666 1568.33 411.333 1505 336 c 2
 1404 214 l 1
 1408 207 l 1
 1582 207 l 1
 1737 221 l 1
 1750 202 l 1
 1719 -11 l 1
 1496 0 l 1
 1118 0 l 1
 1057 -4 l 1
 1043 7 l 1
 1043 167 l 1
 1253 383 l 1
 1281.66 415 1302.33 438.167 1315 452.5 c 0
 1327.66 466.833 1342.5 484.833 1359.5 506.5 c 0
 1376.5 528.167 1388.16 546.5 1394.5 561.5 c 0
 1400.83 576.5 1404 590.667 1404 604 c 0
 1404 622.669 1397.33 637.336 1384 648 c 0
 1370.66 658.667 1351.66 664 1327 664 c 0
 1295.66 664 1260.83 655.333 1222.5 638 c 0
 1184.17 620.666 1149.33 597.333 1118 568 c 1
 1086 568 l 1
 1041 772 l 1
 1167.67 849.333 1286.33 888 1397 888 c 0
EndSplineSet
EndChar

StartChar: threequarters
Encoding: 190 190 126
Width: 1819
GlyphClass: 2
Flags: W
LayerCount: 2
Fore
SplineSet
1466 1419 m 1
 419 -209 l 1
 268 -117 l 1
 254 -84 l 1
 1305 1552 l 1
 1446 1464 l 1
 1466 1419 l 1
673 836 m 0
 673 753.333 634.666 687.167 557.999 637.5 c 0
 481.332 587.833 379.332 563 251.999 563 c 0
 189.999 563 128.999 569 68.999 581 c 1
 53.999 776 l 1
 72.999 791 l 1
 142.332 772.333 203.332 763 255.999 763 c 0
 355.999 763 405.999 790.333 405.999 845 c 0
 405.999 887.667 375.332 910 313.999 912 c 1
 186.999 912 l 1
 173.999 928 l 1
 177.999 1109 l 1
 249.999 1111 l 2
 283.999 1112.33 312.832 1120.83 336.499 1136.5 c 0
 360.166 1152.17 371.999 1173 371.999 1199 c 0
 371.999 1237.67 343.999 1257 287.999 1257 c 0
 240.666 1257 181.999 1240 111.999 1206 c 1
 83.999 1206 l 1
 40.999 1386 l 1
 134.999 1440.67 237.666 1468 348.999 1468 c 0
 440.333 1468 513.833 1448.5 569.499 1409.5 c 0
 625.166 1370.5 652.999 1318.33 652.999 1253 c 0
 652.999 1229 649.332 1205.67 641.999 1183 c 0
 634.661 1160.33 620.328 1136.5 599 1111.5 c 0
 577.667 1086.5 550 1065 516 1047 c 1
 516 1038 l 1
 620.667 1007.33 673 940 673 836 c 0
1754 176.001 m 1
 1642 180.001 l 1
 1653 18.001 l 1
 1638 0.000976562 l 1
 1419 -10.999 l 1
 1406 4.00098 l 1
 1410 183.001 l 1
 1196 183.001 l 1
 1032 176.001 l 1
 1014 198.001 l 1
 1014 365.001 l 1
 1386 877.001 l 1
 1642 877.001 l 1
 1638 383.001 l 1
 1750 383.001 l 1
 1767 361.001 l 1
 1754 176.001 l 1
1251 383.001 m 1
 1415 383.001 l 1
 1415 585.001 l 1
 1399 585.001 l 1
 1251 383.001 l 1
EndSplineSet
EndChar

StartChar: questiondown
Encoding: 191 191 127
Width: 776
GlyphClass: 2
Flags: W
LayerCount: 2
Fore
SplineSet
419 705 m 0
 383 705 351.669 712.167 325.002 726.5 c 0
 298.335 740.833 278.002 761.5 264.002 788.5 c 0
 250.002 815.5 243.002 847 243.002 883 c 0
 243.002 943 260.169 990.667 294.502 1026 c 0
 328.835 1061.33 374.668 1079 432.001 1079 c 0
 470.001 1079 502.168 1072 528.501 1058 c 0
 554.834 1044 574.667 1023.5 588 996.5 c 0
 601.333 969.5 608 937 608 899 c 0
 608 840.333 591 793.333 557 758 c 0
 523 722.667 477 705 419 705 c 0
630.002 -434 m 1
 600.002 -453 l 1
 393.335 -443 234.502 -406.5 123.502 -343.5 c 0
 12.502 -280.5 -42.998 -194 -42.998 -84 c 0
 -42.998 -21.333 -24.665 37.5 12.002 92.5 c 0
 48.6689 147.5 101.002 194 169.002 232 c 1
 318.002 318 l 1
 324.002 329 l 1
 309.002 507 l 1
 559.002 543 l 1
 583.002 518 l 1
 608.002 243 l 1
 595.002 219 l 1
 398.002 129 l 1
 318.669 89 279.002 36 279.002 -30 c 0
 279.002 -64.667 291.169 -93.5 315.502 -116.5 c 0
 339.835 -139.5 381.002 -158.5 439.002 -173.5 c 0
 497.002 -188.5 574.335 -199 671.002 -205 c 1
 696.002 -236 l 1
 630.002 -434 l 1
EndSplineSet
EndChar

StartChar: Agrave
Encoding: 192 192 128
Width: 1376
GlyphClass: 2
Flags: W
AnchorPoint: "Anchor-1" 0 0 basechar 0
AnchorPoint: "Anchor-0" 691 1453 basechar 0
LayerCount: 2
Fore
SplineSet
942 1620 m 1
 910 1610 l 1
 758 1656 589.333 1712 404 1778 c 1
 392 1810 l 1
 482 2021 l 1
 516 2030 l 1
 635.333 1958 796 1870.33 998 1767 c 1
 942 1620 l 1
1348 0 m 1
 976 0 l 1
 937 209 l 1
 917 293 l 1
 658 297 l 1
 430 290 l 1
 412 232 l 1
 372 0 l 1
 13 0 l 1
 484 1453 l 1
 922 1453 l 1
 1348 0 l 1
847 568 m 1
 707 1120 l 1
 683 1120 l 1
 514 568 l 1
 680 563 l 1
 847 568 l 1
EndSplineSet
Position2: "'cpsp' Capital Spacing lookup 0 subtable" dx=16 dy=0 dh=33 dv=0
EndChar

StartChar: Aacute
Encoding: 193 193 129
Width: 1376
GlyphClass: 2
Flags: W
AnchorPoint: "Anchor-1" 0 0 basechar 0
AnchorPoint: "Anchor-0" 691 1453 basechar 0
LayerCount: 2
Fore
SplineSet
488 1617 m 1
 432 1767 l 1
 604.667 1851.67 766.334 1938.33 917 2027 c 1
 948 2021 l 1
 1038 1806 l 1
 1027 1778 l 1
 866.333 1720 698 1663.33 522 1608 c 1
 488 1617 l 1
1348 -0.000976562 m 1
 976 -0.000976562 l 1
 937 208.999 l 1
 917 292.999 l 1
 658 296.999 l 1
 430 289.999 l 1
 412 231.999 l 1
 372 -0.000976562 l 1
 13 -0.000976562 l 1
 484 1453 l 1
 922 1453 l 1
 1348 -0.000976562 l 1
847 567.999 m 1
 707 1120 l 1
 683 1120 l 1
 514 567.999 l 1
 680 562.999 l 1
 847 567.999 l 1
EndSplineSet
Position2: "'cpsp' Capital Spacing lookup 0 subtable" dx=16 dy=0 dh=33 dv=0
EndChar

StartChar: Acircumflex
Encoding: 194 194 130
Width: 1376
GlyphClass: 2
Flags: W
AnchorPoint: "Anchor-1" 0 0 basechar 0
AnchorPoint: "Anchor-0" 691 1453 basechar 0
LayerCount: 2
Fore
SplineSet
404 1634 m 1
 340 1775 l 1
 459.334 1856.33 565.334 1939 658 2023 c 1
 725 2023 l 1
 821.667 1937 928.334 1854.33 1045 1775 c 1
 982 1634 l 1
 948 1634 l 1
 692 1773 l 1
 667.333 1759.67 640.5 1745 611.5 1729 c 0
 582.5 1713 551.5 1696 518.5 1678 c 0
 485.5 1660 458.333 1645.33 437 1634 c 1
 404 1634 l 1
1348 0 m 1
 976 0 l 1
 937 209 l 1
 917 293 l 1
 658 297 l 1
 430 290 l 1
 412 232 l 1
 372 0 l 1
 13 0 l 1
 484 1453 l 1
 922 1453 l 1
 1348 0 l 1
847 568 m 1
 707 1120 l 1
 683 1120 l 1
 514 568 l 1
 680 563 l 1
 847 568 l 1
EndSplineSet
Position2: "'cpsp' Capital Spacing lookup 0 subtable" dx=16 dy=0 dh=33 dv=0
EndChar

StartChar: Atilde
Encoding: 195 195 131
Width: 1376
GlyphClass: 2
Flags: W
AnchorPoint: "Anchor-1" 0 0 basechar 0
AnchorPoint: "Anchor-0" 691 1453 basechar 0
LayerCount: 2
Fore
SplineSet
381 1604 m 1
 277 1707 l 1
 277 1737 l 1
 443 1960 l 1
 475 1971 l 1
 505.667 1967.66 546.334 1959.33 597.001 1946 c 0
 647.668 1932.67 694.001 1920.33 736.001 1909 c 0
 778.001 1897.67 807.001 1892 823.001 1892 c 0
 833.001 1892 842.668 1893.83 852.001 1897.5 c 0
 861.334 1901.17 871.501 1908.17 882.501 1918.5 c 0
 893.501 1928.83 902.001 1937.33 908.001 1944 c 0
 914.001 1950.67 924.334 1962.83 939.001 1980.5 c 0
 953.668 1998.17 963.668 2010 969.001 2016 c 1
 1000 2016 l 1
 1104 1913 l 1
 1104 1883 l 1
 937.001 1660 l 1
 905.001 1647 l 1
 869.668 1651.67 808.168 1666 720.501 1690 c 0
 632.834 1714 579.001 1726 559.001 1726 c 0
 550.334 1726 541.667 1724.17 533 1720.5 c 0
 524.333 1716.83 516.833 1713 510.5 1709 c 0
 504.167 1705 496 1698 486 1688 c 0
 476 1678 468.5 1670 463.5 1664 c 0
 458.5 1658 450 1648 438 1634 c 0
 426 1620 417.333 1610 412 1604 c 1
 381 1604 l 1
1348 -0.00292969 m 1
 976 -0.00292969 l 1
 937 208.997 l 1
 917 292.997 l 1
 658 296.997 l 1
 430 289.997 l 1
 412 231.997 l 1
 372 -0.00292969 l 1
 13 -0.00292969 l 1
 484 1453 l 1
 922 1453 l 1
 1348 -0.00292969 l 1
847 567.997 m 1
 707 1120 l 1
 683 1120 l 1
 514 567.997 l 1
 680 562.997 l 1
 847 567.997 l 1
EndSplineSet
Position2: "'cpsp' Capital Spacing lookup 0 subtable" dx=16 dy=0 dh=33 dv=0
EndChar

StartChar: Adieresis
Encoding: 196 196 132
Width: 1376
GlyphClass: 2
Flags: W
AnchorPoint: "Anchor-1" 0 0 basechar 0
AnchorPoint: "Anchor-0" 691 1453 basechar 0
LayerCount: 2
Fore
SplineSet
484 1636 m 0
 450 1636 421 1642.17 397 1654.5 c 0
 373 1666.83 354.833 1685 342.5 1709 c 0
 330.167 1733 324 1761.67 324 1795 c 0
 324 1849 339.5 1891.83 370.5 1923.5 c 0
 401.5 1955.17 443.333 1971 496 1971 c 0
 545.333 1971 583.833 1956.83 611.5 1928.5 c 0
 639.167 1900.17 653 1861.33 653 1812 c 0
 653 1758 637.833 1715.17 607.5 1683.5 c 0
 577.167 1651.83 536 1636 484 1636 c 0
894 1636 m 0
 842.665 1636 803.332 1649.83 776 1677.5 c 0
 748.667 1705.16 735 1744.33 735 1795 c 0
 735 1831 741.833 1862.17 755.5 1888.5 c 0
 769.17 1914.85 788.837 1935.18 814.501 1949.5 c 0
 840.171 1963.83 870.338 1971 905.001 1971 c 0
 954.334 1971 993.167 1956.83 1021.5 1928.5 c 0
 1049.83 1900.16 1064 1861.33 1064 1812 c 0
 1064 1776 1057 1744.83 1043 1718.5 c 0
 1029 1692.17 1009.33 1671.83 984 1657.5 c 0
 958.667 1643.17 928.667 1636 894 1636 c 0
1348 -0.00292969 m 1
 976 -0.00292969 l 1
 937 208.997 l 1
 917 292.997 l 1
 658 296.997 l 1
 430 289.997 l 1
 412 231.997 l 1
 372 -0.00292969 l 1
 13 -0.00292969 l 1
 484 1453 l 1
 922 1453 l 1
 1348 -0.00292969 l 1
847 567.997 m 1
 707 1120 l 1
 683 1120 l 1
 514 567.997 l 1
 680 562.997 l 1
 847 567.997 l 1
EndSplineSet
Position2: "'cpsp' Capital Spacing lookup 0 subtable" dx=16 dy=0 dh=33 dv=0
EndChar

StartChar: Aring
Encoding: 197 197 133
Width: 1376
GlyphClass: 2
Flags: W
AnchorPoint: "Anchor-1" 0 0 basechar 0
AnchorPoint: "Anchor-0" 691 1453 basechar 0
LayerCount: 2
Fore
SplineSet
685 1606 m 0
 613.667 1606 558.668 1625 520.001 1663 c 0
 481.334 1701 462.001 1756.33 462.001 1829 c 0
 462.001 1878.34 471.001 1920.17 489.001 1954.5 c 0
 507.001 1988.83 533.668 2014.83 569.001 2032.5 c 0
 604.334 2050.17 647.334 2059 698.001 2059 c 0
 772.001 2059 827.834 2040.33 865.501 2003 c 0
 903.168 1965.67 922.001 1912 922.001 1842 c 0
 922.001 1767.33 901.168 1709.33 859.501 1668 c 0
 817.834 1626.67 759.667 1606 685 1606 c 0
690.001 1913 m 0
 660.665 1913 639.331 1906.67 626 1894 c 0
 612.667 1881.33 606 1862 606 1836 c 0
 606 1820.67 607.833 1807.67 611.5 1797 c 0
 615.167 1786.33 620.5 1777.5 627.5 1770.5 c 0
 634.5 1763.5 643.5 1758.33 654.5 1755 c 0
 665.5 1751.67 678.667 1750 694 1750 c 0
 722.67 1750 743.837 1756.33 757.501 1769 c 0
 771.168 1781.67 778.001 1801.67 778.001 1829 c 0
 778.001 1857.67 771.001 1878.83 757.001 1892.5 c 0
 743.001 1906.17 720.668 1913 690.001 1913 c 0
1348 -0.000976562 m 1
 976 -0.000976562 l 1
 937 208.999 l 1
 917 292.999 l 1
 658 296.999 l 1
 430 289.999 l 1
 412 231.999 l 1
 372 -0.000976562 l 1
 13 -0.000976562 l 1
 484 1453 l 1
 922 1453 l 1
 1348 -0.000976562 l 1
847 567.999 m 1
 707 1120 l 1
 683 1120 l 1
 514 567.999 l 1
 680 562.999 l 1
 847 567.999 l 1
EndSplineSet
Position2: "'cpsp' Capital Spacing lookup 0 subtable" dx=16 dy=0 dh=33 dv=0
EndChar

StartChar: AE
Encoding: 198 198 134
Width: 1868
GlyphClass: 2
Flags: W
AnchorPoint: "Anchor-1" 0 0 basechar 0
AnchorPoint: "Anchor-0" 1135 1453 basechar 0
LayerCount: 2
Fore
SplineSet
1859 271 m 1
 1834 0 l 1
 914 0 l 1
 903 209 l 1
 877 455 l 1
 432 329 l 1
 389 232 l 1
 318 0 l 1
 -43 0 l 1
 624 1453 l 1
 1690 1453 l 1
 1712 1426 l 1
 1685 1156 l 1
 1341 1169 l 1
 1156 1169 l 1
 1191 825 l 1
 1606 939 l 1
 1631 920 l 1
 1662 664 l 1
 1219 550 l 1
 1246 284 l 1
 1466 284 l 1
 1836 297 l 1
 1859 271 l 1
847 728 m 1
 804 1120 l 1
 782 1120 l 1
 574 651 l 1
 847 728 l 1
EndSplineSet
Position2: "'cpsp' Capital Spacing lookup 0 subtable" dx=16 dy=0 dh=33 dv=0
EndChar

StartChar: Ccedilla
Encoding: 199 199 135
Width: 1161
GlyphClass: 2
Flags: W
AnchorPoint: "Anchor-1" 709 0 basechar 0
AnchorPoint: "Anchor-0" 711 1453 basechar 0
LayerCount: 2
Fore
SplineSet
776 282 m 0
 808.667 282 843.17 285.002 879.503 291.002 c 0
 915.836 297.002 951.669 305.835 987.002 317.502 c 0
 1022.33 329.169 1054.67 343.002 1084 359.002 c 1
 1115 340.002 l 1
 1086 41.002 l 1
 993.334 3.66895 892.667 -17.3311 784 -21.998 c 1
 766 -100.998 l 1
 843 -143.998 l 2
 877 -162.665 901.167 -183.165 915.5 -205.498 c 0
 929.833 -227.831 937 -253.331 937 -281.998 c 0
 937 -333.331 916.5 -375.498 875.5 -408.498 c 0
 834.5 -441.498 779.333 -457.998 710 -457.998 c 0
 643.333 -457.998 578.666 -437.998 515.999 -397.998 c 1
 537.999 -253.998 l 1
 553.999 -247.998 l 1
 600.667 -291.998 645.334 -313.998 687.999 -313.998 c 0
 719.332 -313.998 734.999 -300.331 734.999 -272.998 c 0
 734.999 -256.998 723.666 -243.331 700.999 -231.998 c 2
 590.999 -171.998 l 1
 623.999 -14.998 l 1
 436.666 6.33496 294.833 79.168 198.5 203.501 c 0
 102.167 327.834 54 498.001 54 714.001 c 0
 54 955.334 116.5 1142.17 241.5 1274.5 c 0
 366.5 1406.83 543.333 1473 772 1473 c 0
 909.333 1473 1034 1448.33 1146 1399 c 1
 1084 1099 l 1
 1057 1086 l 1
 1015 1114 967.333 1136 914 1152 c 0
 860.666 1168 808.333 1176 757 1176 c 0
 649.666 1176 569.833 1142 517.5 1074 c 0
 465.167 1006 439 899.667 439 755 c 0
 439 648.333 451.5 560 476.5 490 c 0
 501.5 420 538.833 367.833 588.5 333.5 c 0
 638.167 299.167 700.667 282 776 282 c 0
EndSplineSet
Position2: "'cpsp' Capital Spacing lookup 0 subtable" dx=16 dy=0 dh=33 dv=0
EndChar

StartChar: Egrave
Encoding: 200 200 136
Width: 1175
GlyphClass: 2
Flags: W
AnchorPoint: "Anchor-1" 675 0 basechar 0
AnchorPoint: "Anchor-0" 644 1453 basechar 0
LayerCount: 2
Fore
SplineSet
896 1617 m 1
 862 1608 l 1
 692 1661.33 524.333 1718 359 1778 c 1
 346 1806 l 1
 437 2021 l 1
 469 2027 l 1
 623.667 1936.33 785 1849.66 953 1767 c 1
 896 1617 l 1
1120 297 m 1
 1140 271 l 1
 1118 0 l 1
 157 0 l 1
 178 430 l 1
 157 1453 l 1
 1129 1453 l 1
 1148 1426 l 1
 1124 1156 l 1
 772 1169 l 1
 522 1167 l 1
 518 877 l 1
 757 877 l 1
 993 883 l 1
 1014 856 l 1
 991 585 l 1
 733 593 l 1
 512 593 l 1
 509 466 l 1
 516 286 l 1
 755 284 l 1
 1120 297 l 1
EndSplineSet
Position2: "'cpsp' Capital Spacing lookup 0 subtable" dx=16 dy=0 dh=33 dv=0
EndChar

StartChar: Eacute
Encoding: 201 201 137
Width: 1175
GlyphClass: 2
Flags: W
AnchorPoint: "Anchor-1" 675 0 basechar 0
AnchorPoint: "Anchor-0" 644 1453 basechar 0
LayerCount: 2
Fore
SplineSet
443 1617 m 1
 387 1767 l 1
 559.667 1851.67 721.334 1938.33 872 2027 c 1
 903 2021 l 1
 993 1806 l 1
 982 1778 l 1
 821.333 1720 653 1663.33 477 1608 c 1
 443 1617 l 1
1120 296.999 m 1
 1140 270.999 l 1
 1118 -0.000976562 l 1
 157 -0.000976562 l 1
 178 429.999 l 1
 157 1453 l 1
 1129 1453 l 1
 1148 1426 l 1
 1124 1156 l 1
 772 1169 l 1
 522 1167 l 1
 518 876.999 l 1
 757 876.999 l 1
 993 882.999 l 1
 1014 855.999 l 1
 991 584.999 l 1
 733 592.999 l 1
 512 592.999 l 1
 509 465.999 l 1
 516 285.999 l 1
 755 283.999 l 1
 1120 296.999 l 1
EndSplineSet
Position2: "'cpsp' Capital Spacing lookup 0 subtable" dx=16 dy=0 dh=33 dv=0
EndChar

StartChar: Ecircumflex
Encoding: 202 202 138
Width: 1175
GlyphClass: 2
Flags: W
AnchorPoint: "Anchor-1" 675 0 basechar 0
AnchorPoint: "Anchor-0" 644 1453 basechar 0
LayerCount: 2
Fore
SplineSet
356 1634 m 1
 293 1773 l 1
 423 1864.33 528.667 1947 610 2021 c 1
 678 2021 l 1
 762.667 1945.67 869.334 1863 998 1773 c 1
 935 1634 l 1
 901 1634 l 1
 859.666 1655.34 774.333 1701.67 645 1773 c 1
 552.333 1721 467 1674.67 389 1634 c 1
 356 1634 l 1
1120 297 m 1
 1140 271 l 1
 1118 0 l 1
 157 0 l 1
 178 430 l 1
 157 1453 l 1
 1129 1453 l 1
 1148 1426 l 1
 1124 1156 l 1
 772 1169 l 1
 522 1167 l 1
 518 877 l 1
 757 877 l 1
 993 883 l 1
 1014 856 l 1
 991 585 l 1
 733 593 l 1
 512 593 l 1
 509 466 l 1
 516 286 l 1
 755 284 l 1
 1120 297 l 1
EndSplineSet
Position2: "'cpsp' Capital Spacing lookup 0 subtable" dx=16 dy=0 dh=33 dv=0
EndChar

StartChar: Edieresis
Encoding: 203 203 139
Width: 1175
GlyphClass: 2
Flags: W
AnchorPoint: "Anchor-1" 675 0 basechar 0
AnchorPoint: "Anchor-0" 644 1453 basechar 0
LayerCount: 2
Fore
SplineSet
437 1636 m 0
 385.667 1636 346.167 1649.83 318.5 1677.5 c 0
 290.833 1705.17 277 1744.33 277 1795 c 0
 277 1849 292.5 1891.83 323.5 1923.5 c 0
 354.5 1955.17 396.333 1971 449 1971 c 0
 498.333 1971 536.833 1956.83 564.5 1928.5 c 0
 592.167 1900.17 606 1861.33 606 1812 c 0
 606 1758 590.667 1715.17 560 1683.5 c 0
 529.333 1651.83 488.333 1636 437 1636 c 0
847 1636 m 0
 795.665 1636 756.332 1649.83 729 1677.5 c 0
 701.667 1705.17 688 1744.33 688 1795 c 0
 688 1831 694.667 1862.17 708 1888.5 c 0
 721.333 1914.85 741 1935.18 767 1949.5 c 0
 793 1963.83 823.333 1971 858 1971 c 0
 882.667 1971 904.834 1967.33 924.5 1960 c 0
 944.17 1952.67 960.837 1942.17 974.5 1928.5 c 0
 988.167 1914.82 998.5 1898.15 1005.5 1878.5 c 0
 1012.5 1858.82 1016 1836.65 1016 1812 c 0
 1016 1758 1000.83 1715.17 970.5 1683.5 c 0
 940.167 1651.83 899 1636 847 1636 c 0
1120 296.999 m 1
 1140 270.999 l 1
 1118 -0.000976562 l 1
 157 -0.000976562 l 1
 178 429.999 l 1
 157 1453 l 1
 1129 1453 l 1
 1148 1426 l 1
 1124 1156 l 1
 772 1169 l 1
 522 1167 l 1
 518 876.999 l 1
 757 876.999 l 1
 993 882.999 l 1
 1014 855.999 l 1
 991 584.999 l 1
 733 592.999 l 1
 512 592.999 l 1
 509 465.999 l 1
 516 285.999 l 1
 755 283.999 l 1
 1120 296.999 l 1
EndSplineSet
Position2: "'cpsp' Capital Spacing lookup 0 subtable" dx=16 dy=0 dh=33 dv=0
EndChar

StartChar: Igrave
Encoding: 204 204 140
Width: 693
GlyphClass: 2
Flags: W
AnchorPoint: "Anchor-1" 0 0 basechar 0
AnchorPoint: "Anchor-0" 344 1453 basechar 0
LayerCount: 2
Fore
SplineSet
135 2021 m 1
 167 2027 l 1
 321.667 1936.33 483 1849.66 651 1767 c 1
 595 1617 l 1
 561 1608 l 1
 385 1663.33 216.667 1720 56 1778 c 1
 45 1806 l 1
 135 2021 l 1
509 466 m 1
 525 0 l 1
 157 0 l 1
 178 430 l 1
 157 1453 l 1
 529 1453 l 1
 509 466 l 1
EndSplineSet
Position2: "'cpsp' Capital Spacing lookup 0 subtable" dx=16 dy=0 dh=33 dv=0
EndChar

StartChar: Iacute
Encoding: 205 205 141
Width: 693
GlyphClass: 2
Flags: W
AnchorPoint: "Anchor-1" 0 0 basechar 0
AnchorPoint: "Anchor-0" 344 1453 basechar 0
LayerCount: 2
Fore
SplineSet
602 2021 m 1
 692 1806 l 1
 680 1778 l 1
 514 1718 346 1661.33 176 1608 c 1
 142 1617 l 1
 86 1767 l 1
 254 1849.67 415.333 1936.33 570 2027 c 1
 602 2021 l 1
509 465.999 m 1
 525 -0.000976562 l 1
 157 -0.000976562 l 1
 178 429.999 l 1
 157 1453 l 1
 529 1453 l 1
 509 465.999 l 1
EndSplineSet
Position2: "'cpsp' Capital Spacing lookup 0 subtable" dx=16 dy=0 dh=33 dv=0
EndChar

StartChar: Icircumflex
Encoding: 206 206 142
Width: 693
GlyphClass: 2
Flags: W
AnchorPoint: "Anchor-1" 0 0 basechar 0
AnchorPoint: "Anchor-0" 344 1453 basechar 0
LayerCount: 2
Fore
SplineSet
56 1634 m 1
 -6.99902 1775 l 1
 113.001 1856.33 219.001 1939 311.001 2023 c 1
 378.001 2023 l 1
 475.334 1937 582.001 1854.33 698.001 1775 c 1
 636.001 1634 l 1
 602.001 1634 l 1
 344.001 1773 l 1
 311.334 1754.33 263.667 1728 201 1694 c 0
 138.333 1660 101.333 1640 90 1634 c 1
 56 1634 l 1
509.001 466 m 1
 525.001 0 l 1
 157.001 0 l 1
 178.001 430 l 1
 157.001 1453 l 1
 529.001 1453 l 1
 509.001 466 l 1
EndSplineSet
Position2: "'cpsp' Capital Spacing lookup 0 subtable" dx=16 dy=0 dh=33 dv=0
EndChar

StartChar: Idieresis
Encoding: 207 207 143
Width: 693
GlyphClass: 2
Flags: W
AnchorPoint: "Anchor-1" 0 0 basechar 0
AnchorPoint: "Anchor-0" 344 1453 basechar 0
LayerCount: 2
Fore
SplineSet
167 1971 m 0
 199.667 1971 227.831 1964.67 251.498 1952 c 0
 275.165 1939.33 293.165 1921 305.498 1897 c 0
 317.831 1873 323.998 1844.67 323.998 1812 c 0
 323.998 1758 308.831 1715.17 278.498 1683.5 c 0
 248.165 1651.83 206.998 1636 154.998 1636 c 0
 103.665 1636 64.332 1649.83 36.999 1677.5 c 0
 9.66602 1705.17 -4.00098 1744.33 -4.00098 1795 c 0
 -4.00098 1849 11.332 1891.83 41.999 1923.5 c 0
 72.666 1955.17 114.333 1971 167 1971 c 0
537.997 1971 m 0
 587.33 1971 625.997 1956.83 653.997 1928.5 c 0
 681.997 1900.17 695.997 1861.33 695.997 1812 c 0
 695.997 1758 680.83 1715.17 650.497 1683.5 c 0
 620.164 1651.83 578.997 1636 526.997 1636 c 0
 492.997 1636 463.997 1642.17 439.997 1654.5 c 0
 415.997 1666.83 397.83 1685 385.497 1709 c 0
 373.164 1733 366.997 1761.67 366.997 1795 c 0
 366.997 1831 373.83 1862.17 387.497 1888.5 c 0
 401.164 1914.85 420.997 1935.18 446.997 1949.5 c 0
 472.997 1963.83 503.33 1971 537.997 1971 c 0
508.997 465.999 m 1
 524.997 -0.000976562 l 1
 156.997 -0.000976562 l 1
 177.997 429.999 l 1
 156.997 1453 l 1
 528.997 1453 l 1
 508.997 465.999 l 1
EndSplineSet
Ligature2: "'liga' Standard Ligatures lookup 30 subtable" dieresis I
Position2: "'cpsp' Capital Spacing lookup 0 subtable" dx=16 dy=0 dh=33 dv=0
EndChar

StartChar: Eth
Encoding: 208 208 144
Width: 1544
GlyphClass: 2
Flags: W
AnchorPoint: "Anchor-1" 0 0 basechar 0
AnchorPoint: "Anchor-0" 790 1453 basechar 0
LayerCount: 2
Fore
SplineSet
221 1453 m 1
 836 1462 l 1
 1048 1462 1210.67 1403.67 1324 1287 c 0
 1437.33 1170.33 1494 1002.67 1494 784 c 0
 1494 526.667 1429.33 328.667 1300 190 c 0
 1170.67 51.333 986 -18 746 -18 c 0
 608.667 -18 433.667 -12 221 0 c 1
 239 430 l 1
 236 597 l 1
 54 597 l 1
 38 622 l 1
 50 836 l 1
 232 836 l 1
 221 1453 l 1
813 260.001 m 0
 909.667 260.001 983.5 294.668 1034.5 364.001 c 0
 1085.5 433.334 1111 544.001 1111 696.001 c 0
 1111 811.334 1100.17 903.834 1078.5 973.501 c 0
 1056.83 1043.17 1023.83 1094 979.5 1126 c 0
 935.167 1158 876.667 1174 804 1174 c 0
 724.667 1174 651.667 1171 585 1165 c 1
 579 836.001 l 1
 813 836.001 l 1
 829 811.001 l 1
 817 597.001 l 1
 574 597.001 l 1
 572 466.001 l 1
 579 277.001 l 1
 665.667 265.668 743.667 260.001 813 260.001 c 0
EndSplineSet
Position2: "'cpsp' Capital Spacing lookup 0 subtable" dx=16 dy=0 dh=33 dv=0
EndChar

StartChar: Ntilde
Encoding: 209 209 145
Width: 1578
GlyphClass: 2
Flags: W
AnchorPoint: "Anchor-1" 788 0 basechar 0
AnchorPoint: "Anchor-0" 788 1453 basechar 0
LayerCount: 2
Fore
SplineSet
1201 1913 m 1
 1201 1883 l 1
 1034 1660 l 1
 1002 1647 l 1
 982.002 1649.66 958.002 1654.33 930.002 1661 c 0
 902.002 1667.67 874.835 1674.5 848.502 1681.5 c 0
 822.169 1688.5 796.502 1695.5 771.502 1702.5 c 0
 746.502 1709.5 723.669 1715.17 703.002 1719.5 c 0
 682.335 1723.83 666.668 1726 656.001 1726 c 0
 648.668 1726 641.501 1725 634.501 1723 c 0
 627.501 1721 620.334 1717.5 613.001 1712.5 c 0
 605.668 1707.5 599.168 1702.67 593.501 1698 c 0
 587.834 1693.28 581.001 1686.61 573.001 1678 c 0
 565.001 1669.33 558.334 1662 553.001 1656 c 0
 547.667 1650 540.334 1641.33 531.001 1630 c 0
 521.66 1618.66 514.327 1610 509.002 1604 c 1
 477.002 1604 l 1
 374.002 1707 l 1
 374.002 1737 l 1
 541.002 1960 l 1
 572.002 1971 l 1
 602.669 1967.66 643.169 1959.33 693.502 1946 c 0
 743.835 1932.67 790.002 1920.33 832.002 1909 c 0
 874.002 1897.67 903.335 1892 920.002 1892 c 0
 929.335 1892 938.668 1893.83 948.001 1897.5 c 0
 957.334 1901.17 967.667 1908.17 979 1918.5 c 0
 990.333 1928.83 999 1937.33 1005 1944 c 0
 1011 1950.67 1021.33 1962.83 1036 1980.5 c 0
 1050.67 1998.17 1060.67 2010 1066 2016 c 1
 1097 2016 l 1
 1201 1913 l 1
1399 459.997 m 1
 1415 -0.00292969 l 1
 1019 -0.00292969 l 1
 503.002 898.997 l 1
 480.002 898.997 l 1
 477.002 511.997 l 1
 491.002 -0.00292969 l 1
 157.002 -0.00292969 l 1
 178.002 427.997 l 1
 160.002 1453 l 1
 554.002 1453 l 1
 1070 553.997 l 1
 1094 553.997 l 1
 1084 1440 l 1
 1421 1460 l 1
 1399 459.997 l 1
EndSplineSet
Position2: "'cpsp' Capital Spacing lookup 0 subtable" dx=16 dy=0 dh=33 dv=0
EndChar

StartChar: Ograve
Encoding: 210 210 146
Width: 1457
GlyphClass: 2
Flags: W
AnchorPoint: "Anchor-1" 0 0 basechar 0
AnchorPoint: "Anchor-0" 730 1453 basechar 0
LayerCount: 2
Fore
SplineSet
522 2021 m 1
 554.001 2027 l 1
 709.334 1936.33 870.667 1849.66 1038 1767 c 1
 982 1617 l 1
 948 1608 l 1
 772.666 1663.33 604.333 1720 443 1778 c 1
 432 1806 l 1
 522 2021 l 1
759.001 1475 m 0
 965.001 1475 1124.33 1413 1237 1289 c 0
 1349.67 1165 1406 989 1406 761 c 0
 1406 511 1344.83 317.5 1222.5 180.5 c 0
 1100.17 43.5 927.002 -25 703.002 -25 c 0
 495.669 -25 335.669 38.5 223.002 165.5 c 0
 110.335 292.5 54.002 472.333 54.002 705 c 0
 54.002 951.667 115.169 1141.67 237.502 1275 c 0
 359.835 1408.33 533.668 1475 759.001 1475 c 0
725.002 1182 m 0
 653.002 1182 596.171 1168.33 554.504 1141 c 0
 512.837 1113.67 482.337 1069.17 463.004 1007.5 c 0
 443.671 945.833 434.004 861.666 434.004 754.999 c 0
 434.004 658.999 439.337 579.332 450.004 515.999 c 0
 460.671 452.666 478.171 401.166 502.504 361.499 c 0
 526.837 321.832 557.504 293.665 594.504 276.999 c 0
 631.504 260.332 677.671 251.999 733.004 251.999 c 0
 775.004 252 811.671 256.667 843.004 265.999 c 0
 874.337 275.332 901.67 290.332 925.003 310.999 c 0
 948.336 331.666 967.003 359.166 981.003 393.499 c 0
 995.003 427.832 1005.5 468.832 1012.5 516.499 c 0
 1019.5 564.167 1023 620.334 1023 685 c 0
 1023 811 1013.17 909.833 993.503 981.5 c 0
 973.836 1053.17 942.669 1104.5 900.002 1135.5 c 0
 857.335 1166.5 799.002 1182 725.002 1182 c 0
EndSplineSet
Position2: "'cpsp' Capital Spacing lookup 0 subtable" dx=16 dy=0 dh=33 dv=0
EndChar

StartChar: Oacute
Encoding: 211 211 147
Width: 1457
GlyphClass: 2
Flags: W
AnchorPoint: "Anchor-1" 0 0 basechar 0
AnchorPoint: "Anchor-0" 730 1453 basechar 0
LayerCount: 2
Fore
SplineSet
989 2021 m 1
 1079 1806 l 1
 1068 1778 l 1
 907.333 1720 739 1663.33 563 1608 c 1
 529 1617 l 1
 473 1767 l 1
 641 1849.67 802.333 1936.33 957 2027 c 1
 989 2021 l 1
759 1475 m 0
 965 1475 1124.33 1413 1237 1289 c 0
 1349.67 1165 1406 988.999 1406 760.999 c 0
 1406 510.999 1344.83 317.499 1222.5 180.499 c 0
 1100.17 43.499 927.001 -25.001 703.001 -25.001 c 0
 495.668 -25.001 335.668 38.499 223.001 165.499 c 0
 110.334 292.499 54.001 472.332 54.001 704.999 c 0
 54.001 951.666 115.168 1141.67 237.501 1275 c 0
 359.834 1408.33 533.667 1475 759 1475 c 0
725.001 1182 m 0
 653.001 1182 596.17 1168.33 554.503 1141 c 0
 512.836 1113.67 482.336 1069.17 463.003 1007.5 c 0
 443.67 945.833 434.003 861.666 434.003 754.999 c 0
 434.003 658.999 439.336 579.332 450.003 515.999 c 0
 460.67 452.666 478.17 401.166 502.503 361.499 c 0
 526.836 321.832 557.503 293.665 594.503 276.999 c 0
 631.503 260.332 677.67 251.999 733.003 251.999 c 0
 775.003 252 811.67 256.667 843.003 265.999 c 0
 874.336 275.332 901.669 290.332 925.002 310.999 c 0
 948.335 331.666 967.002 359.166 981.002 393.499 c 0
 995.002 427.832 1005.5 468.832 1012.5 516.499 c 0
 1019.5 564.167 1023 620.334 1023 684.999 c 0
 1023 810.999 1013.17 909.832 993.502 981.499 c 0
 973.835 1053.17 942.668 1104.5 900.001 1135.5 c 0
 857.334 1166.5 799.001 1182 725.001 1182 c 0
EndSplineSet
Position2: "'cpsp' Capital Spacing lookup 0 subtable" dx=16 dy=0 dh=33 dv=0
EndChar

StartChar: Ocircumflex
Encoding: 212 212 148
Width: 1457
GlyphClass: 2
Flags: W
AnchorPoint: "Anchor-1" 0 0 basechar 0
AnchorPoint: "Anchor-0" 730 1453 basechar 0
LayerCount: 2
Fore
SplineSet
441 1634 m 1
 378 1775 l 1
 498 1856.33 604 1939 696 2023 c 1
 763 2023 l 1
 860.333 1937 967.333 1854.33 1084 1775 c 1
 1021 1634 l 1
 987 1634 l 1
 730 1773 l 1
 706 1759.67 679.333 1745 650 1729 c 0
 620.667 1713 589.667 1696 557 1678 c 0
 524.333 1660 497 1645.33 475 1634 c 1
 441 1634 l 1
759 1475 m 0
 965 1475 1124.33 1413 1237 1289 c 0
 1349.67 1165 1406 989 1406 761 c 0
 1406 511 1344.83 317.5 1222.5 180.5 c 0
 1100.17 43.5 927.001 -25 703.001 -25 c 0
 495.668 -25 335.668 38.5 223.001 165.5 c 0
 110.334 292.5 54.001 472.333 54.001 705 c 0
 54.001 951.667 115.168 1141.67 237.501 1275 c 0
 359.834 1408.33 533.667 1475 759 1475 c 0
725.001 1182 m 0
 653.001 1182 596.17 1168.33 554.503 1141 c 0
 512.836 1113.67 482.336 1069.17 463.003 1007.5 c 0
 443.67 945.833 434.003 861.666 434.003 754.999 c 0
 434.003 658.999 439.336 579.332 450.003 515.999 c 0
 460.67 452.666 478.17 401.166 502.503 361.499 c 0
 526.836 321.832 557.503 293.665 594.503 276.999 c 0
 631.503 260.332 677.67 251.999 733.003 251.999 c 0
 775.003 252 811.67 256.667 843.003 265.999 c 0
 874.336 275.332 901.669 290.332 925.002 310.999 c 0
 948.335 331.666 967.002 359.166 981.002 393.499 c 0
 995.002 427.832 1005.5 468.832 1012.5 516.499 c 0
 1019.5 564.167 1023 620.334 1023 685 c 0
 1023 811 1013.17 909.833 993.502 981.5 c 0
 973.835 1053.17 942.668 1104.5 900.001 1135.5 c 0
 857.334 1166.5 799.001 1182 725.001 1182 c 0
EndSplineSet
Position2: "'cpsp' Capital Spacing lookup 0 subtable" dx=16 dy=0 dh=33 dv=0
EndChar

StartChar: Otilde
Encoding: 213 213 149
Width: 1457
GlyphClass: 2
Flags: W
AnchorPoint: "Anchor-1" 0 0 basechar 0
AnchorPoint: "Anchor-0" 730 1453 basechar 0
LayerCount: 2
Fore
SplineSet
1142 1913 m 1
 1142 1883 l 1
 976.003 1660 l 1
 944.003 1647 l 1
 908.003 1651.67 846.17 1666 758.503 1690 c 0
 670.836 1714 617.003 1726 597.003 1726 c 0
 589.003 1726 580.67 1724.17 572.003 1720.5 c 0
 563.336 1716.83 555.669 1713 549.002 1709 c 0
 542.335 1705 534.168 1698 524.501 1688 c 0
 514.834 1678 507.334 1670 502.001 1664 c 0
 496.668 1658 488.168 1648 476.501 1634 c 0
 464.834 1620 456.334 1610 451.001 1604 c 1
 419.001 1604 l 1
 316.001 1707 l 1
 316.001 1737 l 1
 482.001 1960 l 1
 514.001 1971 l 1
 551.334 1966.33 613.667 1952 701 1928 c 0
 788.333 1904 841.333 1892 860 1892 c 0
 870 1892 879.667 1893.83 889 1897.5 c 0
 898.333 1901.17 908.5 1908.17 919.5 1918.5 c 0
 930.5 1928.83 939.167 1937.33 945.5 1944 c 0
 951.833 1950.67 962.333 1962.83 977 1980.5 c 0
 991.674 1998.17 1001.34 2010 1006 2016 c 1
 1038 2016 l 1
 1142 1913 l 1
759.003 1475 m 0
 965.003 1475 1124.34 1413 1237 1289 c 0
 1349.67 1165 1406 988.999 1406 760.999 c 0
 1406 510.999 1344.84 317.499 1222.5 180.499 c 0
 1100.17 43.499 927.004 -25.001 703.004 -25.001 c 0
 495.671 -25.001 335.671 38.499 223.004 165.499 c 0
 110.337 292.499 54.0039 472.332 54.0039 704.999 c 0
 54.0039 951.666 115.171 1141.67 237.504 1275 c 0
 359.837 1408.33 533.67 1475 759.003 1475 c 0
725.004 1182 m 0
 653.004 1182 596.173 1168.33 554.506 1141 c 0
 512.839 1113.67 482.339 1069.17 463.006 1007.5 c 0
 443.673 945.833 434.006 861.666 434.006 754.999 c 0
 434.006 658.999 439.339 579.332 450.006 515.999 c 0
 460.673 452.666 478.173 401.166 502.506 361.499 c 0
 526.839 321.832 557.506 293.665 594.506 276.999 c 0
 631.506 260.332 677.673 251.999 733.006 251.999 c 0
 775.006 252 811.673 256.667 843.006 265.999 c 0
 874.339 275.332 901.672 290.332 925.005 310.999 c 0
 948.338 331.666 967.005 359.166 981.005 393.499 c 0
 995.005 427.832 1005.5 468.832 1012.5 516.499 c 0
 1019.5 564.167 1023 620.334 1023 684.999 c 0
 1023 810.999 1013.17 909.832 993.505 981.499 c 0
 973.838 1053.17 942.671 1104.5 900.004 1135.5 c 0
 857.337 1166.5 799.004 1182 725.004 1182 c 0
EndSplineSet
Position2: "'cpsp' Capital Spacing lookup 0 subtable" dx=16 dy=0 dh=33 dv=0
EndChar

StartChar: Odieresis
Encoding: 214 214 150
Width: 1457
GlyphClass: 2
Flags: W
AnchorPoint: "Anchor-1" 0 0 basechar 0
AnchorPoint: "Anchor-0" 730 1453 basechar 0
LayerCount: 2
Fore
SplineSet
534 1971 m 0
 558 1971 580 1967.33 600 1960 c 0
 620 1952.67 636.667 1942.17 650 1928.5 c 0
 663.333 1914.82 673.666 1898.15 680.999 1878.5 c 0
 688.332 1858.82 691.999 1836.65 691.999 1812 c 0
 691.999 1758 676.666 1715.17 645.999 1683.5 c 0
 615.332 1651.83 573.999 1636 521.999 1636 c 0
 487.999 1636 458.999 1642.17 434.999 1654.5 c 0
 410.999 1666.83 392.999 1685 380.999 1709 c 0
 368.999 1733 362.999 1761.67 362.999 1795 c 0
 362.999 1831 369.832 1862.17 383.499 1888.5 c 0
 397.166 1914.85 416.833 1935.18 442.5 1949.5 c 0
 468.167 1963.83 498.667 1971 534 1971 c 0
944 1971 m 0
 993.333 1971 1031.83 1956.83 1059.5 1928.5 c 0
 1087.17 1900.17 1101 1861.33 1101 1812 c 0
 1101 1790.67 1098.5 1770.67 1093.5 1752 c 0
 1088.5 1733.33 1081.17 1717 1071.5 1703 c 0
 1061.83 1689 1050.17 1677 1036.5 1667 c 0
 1022.83 1657 1007.33 1649.33 990 1644 c 0
 972.667 1638.67 953.667 1636 933 1636 c 0
 881.667 1636 842 1649.83 814 1677.5 c 0
 786 1705.17 772 1744.33 772 1795 c 0
 772 1849 787.5 1891.83 818.5 1923.5 c 0
 849.5 1955.17 891.333 1971 944 1971 c 0
759.001 1475 m 0
 965.001 1475 1124.33 1413 1237 1289 c 0
 1349.67 1165 1406 989 1406 761 c 0
 1406 511 1344.83 317.5 1222.5 180.5 c 0
 1100.17 43.5 927.002 -25 703.002 -25 c 0
 495.669 -25 335.669 38.5 223.002 165.5 c 0
 110.335 292.5 54.002 472.333 54.002 705 c 0
 54.002 951.667 115.169 1141.67 237.502 1275 c 0
 359.835 1408.33 533.668 1475 759.001 1475 c 0
725.002 1182 m 0
 653.002 1182 596.171 1168.33 554.504 1141 c 0
 512.837 1113.67 482.337 1069.17 463.004 1007.5 c 0
 443.671 945.833 434.004 861.666 434.004 754.999 c 0
 434.004 658.999 439.337 579.332 450.004 515.999 c 0
 460.671 452.666 478.171 401.166 502.504 361.499 c 0
 526.837 321.832 557.504 293.665 594.504 276.999 c 0
 631.504 260.332 677.671 251.999 733.004 251.999 c 0
 775.004 252 811.671 256.667 843.004 265.999 c 0
 874.337 275.332 901.67 290.332 925.003 310.999 c 0
 948.336 331.666 967.003 359.166 981.003 393.499 c 0
 995.003 427.832 1005.5 468.832 1012.5 516.499 c 0
 1019.5 564.167 1023 620.334 1023 685 c 0
 1023 811 1013.17 909.833 993.503 981.5 c 0
 973.836 1053.17 942.669 1104.5 900.002 1135.5 c 0
 857.335 1166.5 799.002 1182 725.002 1182 c 0
EndSplineSet
Ligature2: "'liga' Standard Ligatures lookup 30 subtable" dieresis O
Position2: "'cpsp' Capital Spacing lookup 0 subtable" dx=16 dy=0 dh=33 dv=0
EndChar

StartChar: multiply
Encoding: 215 215 151
Width: 1081
GlyphClass: 2
Flags: W
LayerCount: 2
Fore
SplineSet
959 865 m 1
 961 832 l 1
 712 581 l 1
 959 331 l 1
 959 297 l 1
 795 157 l 1
 543 412 l 1
 286 155 l 1
 122 297 l 1
 122 329 l 1
 372 581 l 1
 122 832 l 1
 122 865 l 1
 286 1004 l 1
 543 752 l 1
 795 1004 l 1
 959 865 l 1
EndSplineSet
EndChar

StartChar: Oslash
Encoding: 216 216 152
Width: 1457
GlyphClass: 2
Flags: W
AnchorPoint: "Anchor-1" 0 0 basechar 0
AnchorPoint: "Anchor-0" 730 1457 basechar 0
LayerCount: 2
Fore
SplineSet
1309 1595 m 1
 1185 1341 l 1
 1332.33 1216.33 1406 1023 1406 761 c 0
 1406 511 1344.83 317.5 1222.5 180.5 c 0
 1100.17 43.5 927.002 -25 703.002 -25 c 0
 647.002 -25 589.669 -19 531.002 -7 c 1
 396.002 -286 l 1
 169.002 -202 l 1
 153.002 -172 l 1
 286.002 106 l 1
 236.002 146.667 193.669 196.167 159.002 254.5 c 0
 124.335 312.833 98.168 379.833 80.501 455.5 c 0
 62.834 531.167 54.001 614.334 54.001 705 c 0
 54.001 951.667 115.168 1141.67 237.501 1275 c 0
 359.834 1408.33 533.667 1475 759 1475 c 0
 824.333 1475 885.333 1468.33 942 1455 c 1
 1068 1715 l 1
 1288 1631 l 1
 1309 1595 l 1
733.002 252 m 0
 775.002 252.001 811.671 256.669 843.004 266.001 c 0
 874.337 275.334 901.67 290.334 925.003 311.001 c 0
 948.336 331.668 967.003 359.168 981.003 393.501 c 0
 995.003 427.834 1005.5 468.834 1012.5 516.501 c 0
 1019.5 564.169 1023 620.336 1023 685.001 c 0
 1023 811.001 1013.17 909.834 993.503 981.501 c 0
 973.836 1053.17 942.669 1104.5 900.002 1135.5 c 0
 857.335 1166.5 799.002 1182 725.002 1182 c 0
 653.002 1182 596.169 1168.33 554.502 1141 c 0
 512.835 1113.67 482.335 1069.17 463.002 1007.5 c 0
 443.669 945.834 434.002 861.667 434.002 755 c 0
 434.002 659 439.335 579.333 450.002 516 c 0
 460.669 452.667 478.169 401.167 502.502 361.5 c 0
 526.835 321.833 557.502 293.666 594.502 277 c 0
 631.502 260.333 677.669 252 733.002 252 c 0
EndSplineSet
Position2: "'cpsp' Capital Spacing lookup 0 subtable" dx=16 dy=0 dh=33 dv=0
EndChar

StartChar: Ugrave
Encoding: 217 217 153
Width: 1449
GlyphClass: 2
Flags: W
AnchorPoint: "Anchor-1" 0 0 basechar 0
AnchorPoint: "Anchor-0" 728 1453 basechar 0
LayerCount: 2
Fore
SplineSet
520 2021 m 1
 552 2027 l 1
 706.667 1936.33 868 1849.66 1036 1767 c 1
 980 1617 l 1
 946 1608 l 1
 770 1663.33 601.667 1720 441 1778 c 1
 430 1806 l 1
 520 2021 l 1
1316 716 m 1
 1313 507.001 l 1
 1313 394.334 1289.5 298.501 1242.5 219.501 c 0
 1195.5 140.501 1126.33 80.501 1035 39.501 c 0
 943.669 -1.49902 833.002 -21.999 703.002 -21.999 c 0
 515.002 -21.999 371.169 23.168 271.502 113.501 c 0
 171.835 203.834 124.335 332.667 129.002 500 c 1
 133.002 720 l 1
 124.002 1453 l 1
 488.002 1453 l 1
 473.002 550 l 2
 471.669 454 491.002 383.5 531.002 338.5 c 0
 571.002 293.5 634.002 271 720.002 271 c 0
 807.335 271 871.668 293 913.001 337 c 0
 954.334 381 974.667 449 974 541 c 1
 957 1453 l 1
 1327 1453 l 1
 1316 716 l 1
EndSplineSet
Position2: "'cpsp' Capital Spacing lookup 0 subtable" dx=16 dy=0 dh=33 dv=0
EndChar

StartChar: Uacute
Encoding: 218 218 154
Width: 1449
GlyphClass: 2
Flags: W
AnchorPoint: "Anchor-1" 0 0 basechar 0
AnchorPoint: "Anchor-0" 728 1453 basechar 0
LayerCount: 2
Fore
SplineSet
987 2021 m 1
 1077 1806 l 1
 1066 1778 l 1
 905.333 1720 737 1663.33 561 1608 c 1
 527 1617 l 1
 471 1767 l 1
 639 1849.67 800.333 1936.33 955 2027 c 1
 987 2021 l 1
1316 715.999 m 1
 1313 507 l 1
 1313 394.333 1289.5 298.5 1242.5 219.5 c 0
 1195.5 140.5 1126.33 80.5 1035 39.5 c 0
 943.669 -1.5 833.002 -22 703.002 -22 c 0
 515.002 -22 371.169 23.167 271.502 113.5 c 0
 171.835 203.833 124.335 332.666 129.002 499.999 c 1
 133.002 719.999 l 1
 124.002 1453 l 1
 488.002 1453 l 1
 473.002 549.999 l 2
 471.669 453.999 491.002 383.499 531.002 338.499 c 0
 571.002 293.499 634.002 270.999 720.002 270.999 c 0
 807.335 270.999 871.668 292.999 913.001 336.999 c 0
 954.334 380.999 974.667 448.999 974 540.999 c 1
 957 1453 l 1
 1327 1453 l 1
 1316 715.999 l 1
EndSplineSet
Position2: "'cpsp' Capital Spacing lookup 0 subtable" dx=16 dy=0 dh=33 dv=0
EndChar

StartChar: Ucircumflex
Encoding: 219 219 155
Width: 1449
GlyphClass: 2
Flags: W
AnchorPoint: "Anchor-1" 0 0 basechar 0
AnchorPoint: "Anchor-0" 728 1453 basechar 0
LayerCount: 2
Fore
SplineSet
439 1634 m 1
 376 1775 l 1
 495.333 1856.33 601.333 1939 694 2023 c 1
 761 2023 l 1
 857.667 1937 964.334 1854.33 1081 1775 c 1
 1019 1634 l 1
 984 1634 l 1
 728 1773 l 1
 704 1759.67 677.333 1745 648 1729 c 2
 554.5 1678 l 2
 521.5 1660 494.333 1645.33 473 1634 c 1
 439 1634 l 1
1316 716 m 1
 1313 507.001 l 1
 1313 394.334 1289.5 298.501 1242.5 219.501 c 0
 1195.5 140.501 1126.33 80.501 1035 39.501 c 0
 943.669 -1.49902 833.002 -21.999 703.002 -21.999 c 0
 515.002 -21.999 371.169 23.168 271.502 113.501 c 0
 171.835 203.834 124.335 332.667 129.002 500 c 1
 133.002 720 l 1
 124.002 1453 l 1
 488.002 1453 l 1
 473.002 550 l 2
 471.669 454 491.002 383.5 531.002 338.5 c 0
 571.002 293.5 634.002 271 720.002 271 c 0
 807.335 271 871.668 293 913.001 337 c 0
 954.334 381 974.667 449 974 541 c 1
 957 1453 l 1
 1327 1453 l 1
 1316 716 l 1
EndSplineSet
Position2: "'cpsp' Capital Spacing lookup 0 subtable" dx=16 dy=0 dh=33 dv=0
EndChar

StartChar: Udieresis
Encoding: 220 220 156
Width: 1449
GlyphClass: 2
Flags: W
AnchorPoint: "Anchor-1" 0 0 basechar 0
AnchorPoint: "Anchor-0" 728 1453 basechar 0
LayerCount: 2
Fore
SplineSet
531 1971 m 0
 555.669 1971 577.833 1967.33 597.497 1960 c 0
 617.166 1952.67 633.833 1942.17 647.497 1928.5 c 0
 661.164 1914.82 671.664 1898.15 678.997 1878.5 c 0
 686.33 1858.82 689.997 1836.65 689.997 1812 c 0
 689.997 1758 674.664 1715.17 643.997 1683.5 c 0
 613.33 1651.83 571.997 1636 519.997 1636 c 0
 468.664 1636 429.331 1649.83 401.998 1677.5 c 0
 374.665 1705.17 360.998 1744.33 360.998 1795 c 0
 360.998 1831 367.831 1862.17 381.498 1888.5 c 0
 395.165 1914.85 414.832 1935.18 440.499 1949.5 c 0
 466.166 1963.83 496.333 1971 531 1971 c 0
941.997 1971 m 0
 974.666 1971 1002.83 1964.67 1026.5 1952 c 0
 1050.16 1939.33 1068.16 1921 1080.5 1897 c 0
 1092.83 1873 1099 1844.67 1099 1812 c 0
 1099 1758 1083.83 1715.17 1053.5 1683.5 c 0
 1023.16 1651.83 982.328 1636 930.997 1636 c 0
 878.997 1636 839.164 1649.83 811.497 1677.5 c 0
 783.83 1705.17 769.997 1744.33 769.997 1795 c 0
 769.997 1849 785.33 1891.83 815.997 1923.5 c 0
 846.664 1955.17 888.664 1971 941.997 1971 c 0
1316 716 m 1
 1313 507.001 l 1
 1313 394.334 1289.5 298.501 1242.5 219.501 c 0
 1195.5 140.501 1126.33 80.501 1035 39.501 c 0
 943.664 -1.49902 832.997 -21.999 702.997 -21.999 c 0
 514.997 -21.999 371.164 23.168 271.497 113.501 c 0
 171.83 203.834 124.33 332.667 128.997 500 c 1
 132.997 720 l 1
 123.997 1453 l 1
 487.997 1453 l 1
 472.997 550 l 2
 471.664 454 490.997 383.5 530.997 338.5 c 0
 570.997 293.5 633.997 271 719.997 271 c 0
 807.33 271 871.663 293 912.996 337 c 0
 954.329 381 974.662 449 973.995 541 c 1
 956.995 1453 l 1
 1327 1453 l 1
 1316 716 l 1
EndSplineSet
Position2: "'cpsp' Capital Spacing lookup 0 subtable" dx=16 dy=0 dh=33 dv=0
EndChar

StartChar: Yacute
Encoding: 221 221 157
Width: 1290
GlyphClass: 2
Flags: W
AnchorPoint: "Anchor-1" 0 0 basechar 0
AnchorPoint: "Anchor-0" 642 1453 basechar 0
LayerCount: 2
Fore
SplineSet
439 1617 m 1
 383 1767 l 1
 551 1849.67 712.333 1936.33 867 2027 c 1
 899 2021 l 1
 989 1806 l 1
 978 1778 l 1
 817.333 1720 649 1663.33 473 1608 c 1
 439 1617 l 1
798 393.999 m 1
 811 -0.000976562 l 1
 447 -0.000976562 l 1
 466 393.999 l 1
 464 472.999 l 1
 0 1453 l 1
 385 1453 l 1
 419 1345 l 1
 630 837.999 l 1
 656 837.999 l 1
 894 1331 l 1
 939 1453 l 1
 1313 1453 l 1
 800 479.999 l 1
 798 393.999 l 1
EndSplineSet
Ligature2: "'liga' Standard Ligatures lookup 30 subtable" acute Y
Position2: "'cpsp' Capital Spacing lookup 0 subtable" dx=16 dy=0 dh=33 dv=0
EndChar

StartChar: Thorn
Encoding: 222 222 158
Width: 1301
GlyphClass: 2
Flags: W
LayerCount: 2
Fore
SplineSet
529 1236 m 1
 782.001 1236 l 2
 941.334 1236 1063.33 1197.83 1148 1121.5 c 0
 1232.67 1045.17 1275 931.999 1275 781.999 c 0
 1275 667.332 1251 569.332 1203 487.999 c 0
 1155 406.666 1084.17 344.333 990.501 301 c 0
 896.834 257.667 783.667 236 651 236 c 1
 520 234 l 1
 529 0 l 1
 160 0 l 1
 178 430 l 1
 165 1230 l 1
 160 1234 l 1
 165 1234 l 1
 160 1453 l 1
 534 1453 l 1
 529 1236 l 1
514.001 506.999 m 1
 714.002 498.001 l 1
 771.335 518.668 814.668 549.001 844.001 589.001 c 0
 873.334 629.001 888.001 684.334 888.001 755.001 c 0
 888.001 830.334 869.668 885.167 833.001 919.5 c 0
 796.334 953.833 738.001 972.666 658.001 975.999 c 1
 525.001 966.999 l 1
 514.001 506.999 l 1
EndSplineSet
Position2: "'cpsp' Capital Spacing lookup 0 subtable" dx=16 dy=0 dh=33 dv=0
EndChar

StartChar: germandbls
Encoding: 223 223 159
Width: 1416
GlyphClass: 2
Flags: W
LayerCount: 2
Fore
SplineSet
1002 847 m 0
 1002 824.333 1008 803.003 1020 783.003 c 0
 1032 763.003 1047.83 745.836 1067.5 731.503 c 0
 1087.17 717.17 1109.33 702.003 1134 686.003 c 0
 1158.67 670.003 1184.17 655.003 1210.5 641.003 c 0
 1236.83 627.003 1262.5 610.003 1287.5 590.003 c 0
 1312.5 570.003 1334.67 548.836 1354 526.503 c 0
 1373.33 504.17 1389 476.503 1401 443.503 c 0
 1413 410.503 1419 374.67 1419 336.003 c 0
 1419 288.003 1410.33 242.836 1393 200.503 c 0
 1375.67 158.17 1349.83 120.003 1315.5 86.0029 c 0
 1281.17 52.0029 1235.67 25.0029 1179 5.00293 c 0
 1122.33 -14.9971 1057.33 -24.9971 984 -24.9971 c 0
 878 -24.9971 767 -3.99707 651 38.0029 c 1
 694 309.003 l 1
 723 331.003 l 1
 769 289.67 819.667 257.17 875 233.503 c 0
 930.333 209.836 979 198.003 1021 198.003 c 0
 1041 198.003 1058.33 201.17 1073 207.503 c 0
 1087.67 213.836 1098.83 222.503 1106.5 233.503 c 0
 1114.17 244.503 1118 257.67 1118 273.003 c 0
 1118 292.336 1110.33 311.003 1095 329.003 c 0
 1079.67 347.003 1059.67 363.67 1035 379.003 c 0
 1010.33 394.336 983.167 410.503 953.5 427.503 c 0
 923.833 444.503 894.166 463.836 864.499 485.503 c 0
 834.832 507.17 807.832 531.17 783.499 557.503 c 0
 759.163 583.836 739.33 616.336 724 655.003 c 0
 708.667 693.67 701 736.003 701 782.003 c 0
 701 814.671 704.833 844.338 712.5 871.003 c 0
 720.167 897.671 730.167 920.338 742.5 939.003 c 0
 754.833 957.67 768.5 975.17 783.5 991.503 c 0
 798.5 1007.84 813.5 1023.17 828.5 1037.5 c 0
 843.5 1051.83 857.333 1066.5 870 1081.5 c 0
 882.67 1096.5 892.837 1114 900.5 1134 c 0
 908.167 1154 912 1175.67 912 1199 c 0
 912 1244.33 897.833 1278.33 869.5 1301 c 0
 841.167 1323.67 800.667 1335 748 1335 c 0
 618 1335 552 1267 550 1131 c 2
 538 464.002 l 1
 557 0.00195312 l 1
 198 0.00195312 l 1
 217 428.002 l 1
 212 834.002 l 1
 58 834.002 l 1
 47 851.002 l 1
 63 1045 l 1
 207 1045 l 1
 207 1086 l 2
 207 1191.33 230.833 1282 278.5 1358 c 0
 326.167 1434 391.834 1491 475.501 1529 c 0
 559.168 1567 656.668 1586 768.001 1586 c 0
 841.334 1586 906.667 1577.5 964 1560.5 c 0
 1021.33 1543.5 1067.5 1519.67 1102.5 1489 c 0
 1137.5 1458.33 1163.83 1423.33 1181.5 1384 c 0
 1199.17 1344.67 1208 1301.67 1208 1255 c 0
 1208 1225 1204.17 1196.67 1196.5 1170 c 0
 1188.83 1143.33 1179 1120.16 1167 1100.5 c 0
 1155 1080.83 1141.67 1062.16 1127 1044.5 c 0
 1112.33 1026.83 1097.66 1010.17 1083 994.5 c 0
 1068.33 978.833 1055 963.5 1043 948.5 c 0
 1031 933.5 1021.17 917.333 1013.5 900 c 0
 1005.83 882.667 1002 865 1002 847 c 0
EndSplineSet
Substitution2: "Single Substitution lookup 41 subtable" germandbls.calt
Substitution2: "'case' Case-Sensitive Forms lookup 28 subtable" Germandbls
Substitution2: "'aalt' Access All Alternates lookup 0 subtable" Germandbls
EndChar

StartChar: agrave
Encoding: 224 224 160
Width: 1103
GlyphClass: 2
Flags: W
AnchorPoint: "Anchor-1" 0 0 basechar 0
AnchorPoint: "Anchor-0" 537 1053 basechar 0
LayerCount: 2
Fore
SplineSet
372 1658 m 1
 404 1660 l 1
 527.333 1548 669 1431 829 1309 c 1
 746 1174 l 1
 714 1172 l 1
 538 1266.67 383.333 1352.67 250 1430 c 1
 243 1462 l 1
 372 1658 l 1
563 1077 m 0
 688.333 1077 785.336 1050.17 854.003 996.501 c 0
 922.67 942.834 957.003 866.667 957.003 768 c 0
 957.003 742 953.67 662.167 947.003 528.5 c 0
 940.336 394.833 937.003 317.666 937.003 296.999 c 0
 937.003 282.332 938.336 270.832 941.003 262.499 c 0
 943.67 254.166 948.17 248.166 954.503 244.499 c 0
 960.836 240.832 969.336 238.999 980.003 238.999 c 0
 994.67 238.999 1012 241.999 1032 247.999 c 1
 1054 227.999 l 1
 1023 40.999 l 1
 975.67 6.33203 914.67 -14.001 840.003 -20.001 c 1
 818.003 -17.334 797.503 -12.167 778.503 -4.5 c 0
 759.503 3.16699 742.17 13.667 726.503 27 c 0
 710.836 40.333 697.169 56.666 685.502 75.999 c 0
 673.835 95.332 664.668 117.332 658.001 141.999 c 1
 642.001 141.999 l 1
 570.668 64.666 495.001 9.99902 415.001 -22.001 c 1
 304.334 -20.668 216.501 9.49902 151.501 68.499 c 0
 86.501 127.499 54.001 206.999 54.001 306.999 c 0
 54.001 460.332 135.001 550.999 297.001 578.999 c 2
 630.001 635.999 l 1
 632.001 700.999 l 1
 632.001 746.999 621.834 780.332 601.501 800.999 c 0
 581.168 821.666 549.001 831.999 505.001 831.999 c 0
 458.334 831.999 409.167 822.166 357.501 802.499 c 0
 305.834 782.832 246.667 751.999 180 709.999 c 1
 155 724.999 l 1
 114 956.999 l 1
 182 995.666 255 1025.33 333 1046 c 0
 411 1066.67 487.667 1077 563 1077 c 0
628.003 469.001 m 1
 437.003 430.001 l 2
 421.67 427.334 409.17 422.501 399.503 415.501 c 0
 389.836 408.501 382.503 399.001 377.503 387.001 c 0
 372.503 375.001 370.003 360.001 370.003 342.001 c 0
 370.003 306.001 379.003 278.334 397.003 259.001 c 0
 415.003 239.668 440.336 230.001 473.003 230.001 c 0
 523.67 230.001 574.67 255.668 626.003 307.001 c 1
 628.003 469.001 l 1
EndSplineSet
Substitution2: "'case' Case-Sensitive Forms lookup 28 subtable" Agrave
Substitution2: "'aalt' Access All Alternates lookup 0 subtable" Agrave
EndChar

StartChar: aacute
Encoding: 225 225 161
Width: 1103
GlyphClass: 2
Flags: W
AnchorPoint: "Anchor-1" 0 0 basechar 0
AnchorPoint: "Anchor-0" 537 1053 basechar 0
LayerCount: 2
Fore
SplineSet
752 1658 m 1
 881 1462 l 1
 874 1430 l 1
 740.667 1352.67 586 1266.67 410 1172 c 1
 378 1174 l 1
 295 1309 l 1
 455 1431 596.667 1548 720 1660 c 1
 752 1658 l 1
563 1077 m 0
 688.333 1077 785.336 1050.17 854.003 996.501 c 0
 922.67 942.834 957.003 866.667 957.003 768 c 0
 957.003 742 953.67 662.167 947.003 528.5 c 0
 940.336 394.833 937.003 317.666 937.003 296.999 c 0
 937.003 282.332 938.336 270.832 941.003 262.499 c 0
 943.67 254.166 948.17 248.166 954.503 244.499 c 0
 960.836 240.832 969.336 238.999 980.003 238.999 c 0
 994.67 238.999 1012 241.999 1032 247.999 c 1
 1054 227.999 l 1
 1023 40.999 l 1
 975.67 6.33203 914.67 -14.001 840.003 -20.001 c 1
 818.003 -17.334 797.503 -12.167 778.503 -4.5 c 0
 759.503 3.16699 742.17 13.667 726.503 27 c 0
 710.836 40.333 697.169 56.666 685.502 75.999 c 0
 673.835 95.332 664.668 117.332 658.001 141.999 c 1
 642.001 141.999 l 1
 570.668 64.666 495.001 9.99902 415.001 -22.001 c 1
 304.334 -20.668 216.501 9.49902 151.501 68.499 c 0
 86.501 127.499 54.001 206.999 54.001 306.999 c 0
 54.001 460.332 135.001 550.999 297.001 578.999 c 2
 630.001 635.999 l 1
 632.001 700.999 l 1
 632.001 746.999 621.834 780.332 601.501 800.999 c 0
 581.168 821.666 549.001 831.999 505.001 831.999 c 0
 458.334 831.999 409.167 822.166 357.501 802.499 c 0
 305.834 782.832 246.667 751.999 180 709.999 c 1
 155 724.999 l 1
 114 956.999 l 1
 182 995.666 255 1025.33 333 1046 c 0
 411 1066.67 487.667 1077 563 1077 c 0
628.003 469.001 m 1
 437.003 430.001 l 2
 421.67 427.334 409.17 422.501 399.503 415.501 c 0
 389.836 408.501 382.503 399.001 377.503 387.001 c 0
 372.503 375.001 370.003 360.001 370.003 342.001 c 0
 370.003 306.001 379.003 278.334 397.003 259.001 c 0
 415.003 239.668 440.336 230.001 473.003 230.001 c 0
 523.67 230.001 574.67 255.668 626.003 307.001 c 1
 628.003 469.001 l 1
EndSplineSet
Substitution2: "'case' Case-Sensitive Forms lookup 28 subtable" Aacute
Substitution2: "'aalt' Access All Alternates lookup 0 subtable" Aacute
EndChar

StartChar: acircumflex
Encoding: 226 226 162
Width: 1103
GlyphClass: 2
Flags: W
AnchorPoint: "Anchor-1" 0 0 basechar 0
AnchorPoint: "Anchor-0" 537 1053 basechar 0
LayerCount: 2
Fore
SplineSet
252 1189 m 1
 165 1322 l 1
 267 1413.33 379.667 1522.33 503 1649 c 1
 572 1649 l 1
 672.667 1543.67 785.334 1434.67 910 1322 c 1
 823 1189 l 1
 789 1189 l 1
 673 1272.33 589.333 1337 538 1383 c 1
 486 1337.67 402.667 1273 288 1189 c 1
 252 1189 l 1
563 1077 m 0
 688.333 1077 785.336 1050.17 854.003 996.501 c 0
 922.67 942.834 957.003 866.667 957.003 768 c 0
 957.003 742 953.67 662.167 947.003 528.5 c 0
 940.336 394.833 937.003 317.666 937.003 296.999 c 0
 937.003 282.332 938.336 270.832 941.003 262.499 c 0
 943.67 254.166 948.17 248.166 954.503 244.499 c 0
 960.836 240.832 969.336 238.999 980.003 238.999 c 0
 994.67 238.999 1012 241.999 1032 247.999 c 1
 1054 227.999 l 1
 1023 40.999 l 1
 975.67 6.33203 914.67 -14.001 840.003 -20.001 c 1
 818.003 -17.334 797.503 -12.167 778.503 -4.5 c 0
 759.503 3.16699 742.17 13.667 726.503 27 c 0
 710.836 40.333 697.169 56.666 685.502 75.999 c 0
 673.835 95.332 664.668 117.332 658.001 141.999 c 1
 642.001 141.999 l 1
 570.668 64.666 495.001 9.99902 415.001 -22.001 c 1
 304.334 -20.668 216.501 9.49902 151.501 68.499 c 0
 86.501 127.499 54.001 206.999 54.001 306.999 c 0
 54.001 460.332 135.001 550.999 297.001 578.999 c 2
 630.001 635.999 l 1
 632.001 700.999 l 1
 632.001 746.999 621.834 780.332 601.501 800.999 c 0
 581.168 821.666 549.001 831.999 505.001 831.999 c 0
 458.334 831.999 409.167 822.166 357.501 802.499 c 0
 305.834 782.832 246.667 751.999 180 709.999 c 1
 155 724.999 l 1
 114 956.999 l 1
 182 995.666 255 1025.33 333 1046 c 0
 411 1066.67 487.667 1077 563 1077 c 0
628.003 469.001 m 1
 437.003 430.001 l 2
 421.67 427.334 409.17 422.501 399.503 415.501 c 0
 389.836 408.501 382.503 399.001 377.503 387.001 c 0
 372.503 375.001 370.003 360.001 370.003 342.001 c 0
 370.003 306.001 379.003 278.334 397.003 259.001 c 0
 415.003 239.668 440.336 230.001 473.003 230.001 c 0
 523.67 230.001 574.67 255.668 626.003 307.001 c 1
 628.003 469.001 l 1
EndSplineSet
Substitution2: "'case' Case-Sensitive Forms lookup 28 subtable" Acircumflex
Substitution2: "'aalt' Access All Alternates lookup 0 subtable" Acircumflex
EndChar

StartChar: atilde
Encoding: 227 227 163
Width: 1103
GlyphClass: 2
Flags: W
AnchorPoint: "Anchor-1" 0 0 basechar 0
AnchorPoint: "Anchor-0" 537 1053 basechar 0
LayerCount: 2
Fore
SplineSet
948 1514 m 1
 948.002 1485 l 1
 782.002 1262 l 1
 750.002 1248 l 1
 714.669 1253.33 653.169 1267.83 565.502 1291.5 c 0
 477.835 1315.17 424.002 1327 404.002 1327 c 0
 396.669 1327 389.502 1326 382.502 1324 c 0
 375.502 1322 368.335 1318.33 361.002 1313 c 0
 353.669 1307.67 347.169 1303 341.502 1299 c 0
 335.834 1295 328.667 1288.33 320.002 1279 c 0
 311.335 1269.67 304.835 1262.5 300.502 1257.5 c 0
 296.169 1252.5 288.836 1243.83 278.503 1231.5 c 0
 268.17 1219.17 260.67 1210.67 256.003 1206 c 1
 226.003 1206 l 1
 122.003 1309 l 1
 122.003 1339 l 1
 288.003 1561 l 1
 320.003 1573 l 1
 357.337 1568.33 419.67 1554 507.003 1530 c 0
 594.336 1506 647.669 1494 667.002 1494 c 0
 676.335 1494 685.668 1495.83 695.001 1499.5 c 0
 704.334 1503.17 714.667 1510.33 726 1521 c 0
 737.333 1531.67 745.833 1539.83 751.5 1545.5 c 0
 757.167 1551.17 767.667 1563.17 783 1581.5 c 0
 798.333 1599.86 808.333 1611.69 813 1617 c 1
 845 1617 l 1
 948 1514 l 1
563.002 1077 m 0
 688.335 1077 785.338 1050.17 854.005 996.5 c 0
 922.672 942.833 957.005 866.666 957.005 767.999 c 0
 957.005 741.999 953.672 662.166 947.005 528.499 c 0
 940.338 394.832 937.005 317.665 937.005 296.998 c 0
 937.005 282.331 938.338 270.831 941.005 262.498 c 0
 943.672 254.165 948.172 248.165 954.505 244.498 c 0
 960.838 240.831 969.338 238.998 980.005 238.998 c 0
 994.672 238.998 1012 241.998 1032 247.998 c 1
 1054 227.998 l 1
 1023 40.998 l 1
 975.672 6.33105 914.672 -14.002 840.005 -20.002 c 1
 818.005 -17.335 797.505 -12.168 778.505 -4.50098 c 0
 759.505 3.16602 742.172 13.666 726.505 26.999 c 0
 710.838 40.332 697.171 56.665 685.504 75.998 c 0
 673.837 95.3311 664.67 117.331 658.003 141.998 c 1
 642.003 141.998 l 1
 570.67 64.665 495.003 9.99805 415.003 -22.002 c 1
 304.336 -20.6689 216.503 9.49805 151.503 68.498 c 0
 86.5029 127.498 54.0029 206.998 54.0029 306.998 c 0
 54.0029 460.331 135.003 550.998 297.003 578.998 c 2
 630.003 635.998 l 1
 632.003 700.998 l 1
 632.003 746.998 621.836 780.331 601.503 800.998 c 0
 581.17 821.665 549.003 831.998 505.003 831.998 c 0
 458.336 831.998 409.169 822.165 357.503 802.498 c 0
 305.836 782.831 246.669 751.998 180.002 709.998 c 1
 155.002 724.998 l 1
 114.002 956.998 l 1
 182.002 995.665 255.002 1025.33 333.002 1046 c 0
 411.002 1066.67 487.669 1077 563.002 1077 c 0
628.005 469 m 1
 437.005 430 l 2
 421.672 427.333 409.172 422.5 399.505 415.5 c 0
 389.838 408.5 382.505 399 377.505 387 c 0
 372.505 375 370.005 360 370.005 342 c 0
 370.005 306 379.005 278.333 397.005 259 c 0
 415.005 239.667 440.338 230 473.005 230 c 0
 523.672 230 574.672 255.667 626.005 307 c 1
 628.005 469 l 1
EndSplineSet
Substitution2: "'case' Case-Sensitive Forms lookup 28 subtable" Atilde
Substitution2: "'aalt' Access All Alternates lookup 0 subtable" Atilde
EndChar

StartChar: adieresis
Encoding: 228 228 164
Width: 1103
GlyphClass: 2
Flags: W
AnchorPoint: "Anchor-1" 0 0 basechar 0
AnchorPoint: "Anchor-0" 537 1053 basechar 0
LayerCount: 2
Fore
SplineSet
342 1573 m 0
 366.667 1573 388.83 1569.33 408.497 1562 c 0
 428.164 1554.67 444.831 1544 458.498 1530 c 0
 472.165 1516 482.498 1499 489.498 1479 c 0
 496.498 1459 499.998 1436.67 499.998 1412 c 0
 499.998 1358.67 484.831 1316 454.498 1284 c 0
 424.165 1252 382.998 1236 330.998 1236 c 0
 279.665 1236 240.332 1250.17 212.999 1278.5 c 0
 185.666 1306.83 171.999 1346.33 171.999 1397 c 0
 171.999 1433 178.832 1464.17 192.499 1490.5 c 0
 206.166 1516.85 225.833 1537.18 251.499 1551.5 c 0
 277.166 1565.83 307.333 1573 342 1573 c 0
751.996 1573 m 0
 801.329 1573 839.996 1558.67 867.996 1530 c 0
 895.996 1501.33 909.996 1462 909.996 1412 c 0
 909.996 1358 894.829 1315.17 864.496 1283.5 c 0
 834.163 1251.83 792.996 1236 740.996 1236 c 0
 689.663 1236 650.163 1250.17 622.496 1278.5 c 0
 594.829 1306.83 580.996 1346.33 580.996 1397 c 0
 580.996 1451 596.329 1493.83 626.996 1525.5 c 0
 657.664 1557.17 699.331 1573 751.996 1573 c 0
562.996 1077 m 0
 688.329 1077 785.332 1050.17 853.999 996.502 c 0
 922.666 942.835 956.999 866.668 956.999 768.001 c 0
 956.999 742.001 953.666 662.168 946.999 528.501 c 0
 940.332 394.834 936.999 317.667 936.999 297 c 0
 936.999 282.333 938.332 270.833 940.999 262.5 c 0
 943.666 254.167 948.166 248.167 954.499 244.5 c 0
 960.832 240.833 969.332 239 979.999 239 c 0
 994.666 239 1012 242 1032 248 c 1
 1054 228 l 1
 1023 41 l 1
 975.666 6.33301 914.666 -14 839.999 -20 c 1
 817.999 -17.333 797.499 -12.166 778.499 -4.49902 c 0
 759.499 3.16797 742.166 13.668 726.499 27.001 c 0
 710.832 40.334 697.165 56.667 685.498 76 c 0
 673.831 95.333 664.664 117.333 657.997 142 c 1
 641.997 142 l 1
 570.664 64.667 494.997 10 414.997 -22 c 1
 304.33 -20.667 216.497 9.5 151.497 68.5 c 0
 86.4971 127.5 53.9971 207 53.9971 307 c 0
 53.9971 460.333 134.997 551 296.997 579 c 2
 629.997 636 l 1
 631.997 701 l 1
 631.997 747 621.83 780.333 601.497 801 c 0
 581.164 821.667 548.997 832 504.997 832 c 0
 458.33 832 409.163 822.167 357.497 802.5 c 0
 305.83 782.833 246.663 752 179.996 710 c 1
 154.996 725 l 1
 113.996 957 l 1
 181.996 995.667 254.996 1025.33 332.996 1046 c 0
 410.996 1066.67 487.663 1077 562.996 1077 c 0
627.999 469.002 m 1
 436.999 430.002 l 2
 421.666 427.335 409.166 422.502 399.499 415.502 c 0
 389.832 408.502 382.499 399.002 377.499 387.002 c 0
 372.499 375.002 369.999 360.002 369.999 342.002 c 0
 369.999 306.002 378.999 278.335 396.999 259.002 c 0
 414.999 239.669 440.332 230.002 472.999 230.002 c 0
 523.666 230.002 574.666 255.669 625.999 307.002 c 1
 627.999 469.002 l 1
EndSplineSet
Substitution2: "'case' Case-Sensitive Forms lookup 28 subtable" Adieresis
Substitution2: "'aalt' Access All Alternates lookup 0 subtable" Adieresis
EndChar

StartChar: aring
Encoding: 229 229 165
Width: 1103
GlyphClass: 2
Flags: W
AnchorPoint: "Anchor-1" 0 0 basechar 0
AnchorPoint: "Anchor-0" 537 1053 basechar 0
LayerCount: 2
Fore
SplineSet
543 1660 m 0
 592.333 1660 633.669 1651.5 667.002 1634.5 c 0
 700.335 1617.5 725.168 1593 741.501 1561 c 0
 757.834 1529 766.001 1490 766.001 1444 c 0
 766.001 1369.33 745.168 1311.33 703.501 1270 c 0
 661.834 1228.67 603.667 1208 529 1208 c 0
 481.667 1208 441.5 1216.33 408.5 1233 c 0
 375.5 1249.67 350.333 1274.5 333 1307.5 c 0
 315.667 1340.5 307 1381.33 307 1430 c 0
 307 1504 327.333 1560.83 368 1600.5 c 0
 408.667 1640.17 467 1660 543 1660 c 0
534.003 1514 m 0
 504.67 1514 483.503 1507.83 470.503 1495.5 c 0
 457.503 1483.17 451.003 1464 451.003 1438 c 0
 451.003 1422.67 452.67 1409.67 456.003 1399 c 0
 459.34 1388.33 464.673 1379.5 472.003 1372.5 c 0
 479.336 1365.5 488.336 1360.33 499.003 1357 c 0
 509.67 1353.67 522.67 1352 538.003 1352 c 0
 566.67 1352 587.837 1358.17 601.503 1370.5 c 0
 615.17 1382.84 622.003 1402.67 622.003 1430 c 0
 622.003 1448.67 619.003 1464.17 613.003 1476.5 c 0
 607.003 1488.86 597.503 1498.19 584.503 1504.5 c 0
 571.503 1510.83 554.67 1514 534.003 1514 c 0
563.003 1077 m 0
 688.336 1077 785.339 1050.17 854.006 996.501 c 0
 922.673 942.834 957.006 866.667 957.006 768 c 0
 957.006 742 953.673 662.167 947.006 528.5 c 0
 940.339 394.833 937.006 317.666 937.006 296.999 c 0
 937.006 282.332 938.339 270.832 941.006 262.499 c 0
 943.673 254.166 948.173 248.166 954.506 244.499 c 0
 960.839 240.832 969.339 238.999 980.006 238.999 c 0
 994.673 238.999 1012.01 241.999 1032.01 247.999 c 1
 1054.01 227.999 l 1
 1023.01 40.999 l 1
 975.673 6.33203 914.673 -14.001 840.006 -20.001 c 1
 818.006 -17.334 797.506 -12.167 778.506 -4.5 c 0
 759.506 3.16699 742.173 13.667 726.506 27 c 0
 710.839 40.333 697.172 56.666 685.505 75.999 c 0
 673.838 95.332 664.671 117.332 658.004 141.999 c 1
 642.004 141.999 l 1
 570.671 64.666 495.004 9.99902 415.004 -22.001 c 1
 304.337 -20.668 216.504 9.49902 151.504 68.499 c 0
 86.5039 127.499 54.0039 206.999 54.0039 306.999 c 0
 54.0039 460.332 135.004 550.999 297.004 578.999 c 2
 630.004 635.999 l 1
 632.004 700.999 l 1
 632.004 746.999 621.837 780.332 601.504 800.999 c 0
 581.171 821.666 549.004 831.999 505.004 831.999 c 0
 458.337 831.999 409.17 822.166 357.504 802.499 c 0
 305.837 782.832 246.67 751.999 180.003 709.999 c 1
 155.003 724.999 l 1
 114.003 956.999 l 1
 182.003 995.666 255.003 1025.33 333.003 1046 c 0
 411.003 1066.67 487.67 1077 563.003 1077 c 0
628.006 469.001 m 1
 437.006 430.001 l 2
 421.673 427.334 409.173 422.501 399.506 415.501 c 0
 389.839 408.501 382.506 399.001 377.506 387.001 c 0
 372.506 375.001 370.006 360.001 370.006 342.001 c 0
 370.006 306.001 379.006 278.334 397.006 259.001 c 0
 415.006 239.668 440.339 230.001 473.006 230.001 c 0
 523.673 230.001 574.673 255.668 626.006 307.001 c 1
 628.006 469.001 l 1
EndSplineSet
Substitution2: "'case' Case-Sensitive Forms lookup 28 subtable" Aring
Substitution2: "'aalt' Access All Alternates lookup 0 subtable" Aring
EndChar

StartChar: ae
Encoding: 230 230 166
Width: 1578
GlyphClass: 2
Flags: W
AnchorPoint: "Anchor-1" 0 0 basechar 0
AnchorPoint: "Anchor-0" 795 1053 basechar 0
LayerCount: 2
Fore
SplineSet
1113 1075 m 0
 1251.67 1075 1357.67 1030.5 1431 941.5 c 0
 1504.34 852.5 1534 728 1520 568 c 1
 1489 527 l 1
 908.003 473 l 1
 915.336 390.333 938.669 330.166 978.002 292.499 c 0
 1017.33 254.832 1076.67 235.999 1156 235.999 c 0
 1251.33 235.999 1350.33 259.666 1453 306.999 c 1
 1483 287.999 l 1
 1428 33.999 l 1
 1381.33 15.999 1330.83 1.66602 1276.5 -9.00098 c 0
 1222.17 -19.668 1171.33 -25.001 1124 -25.001 c 0
 942.669 -25.001 809.002 35.666 723.002 156.999 c 1
 643.668 77.666 554.335 17.999 455.002 -22.001 c 1
 333.002 -20.668 235.335 7.83203 162.002 63.499 c 0
 88.6689 119.166 52.002 197.666 52.002 298.999 c 0
 52.002 374.999 72.6689 438.666 114.002 489.999 c 0
 155.335 541.332 215.668 569.999 295.001 575.999 c 1
 619.001 605.999 l 1
 619.001 700.999 l 2
 619.001 746.332 609.334 779.499 590.001 800.499 c 0
 570.668 821.499 538.668 831.999 494.001 831.999 c 0
 412.001 831.999 305.334 791.332 174.001 709.999 c 1
 148.001 722.999 l 1
 108.001 956.999 l 1
 173.334 995.666 243.334 1025.33 318.001 1046 c 0
 392.668 1066.67 466.001 1077 538.001 1077 c 0
 663.334 1077 755.667 1042.67 815 974 c 1
 895 1041.33 994.333 1075 1113 1075 c 0
1084 843 m 0
 1032.67 841.667 990.003 821.668 956.003 783.001 c 0
 922.003 744.334 905.003 695.334 905.003 636.001 c 1
 1210 671.001 l 1
 1214 729.668 1205.17 773.168 1183.5 801.501 c 0
 1161.83 829.834 1128.67 843.667 1084 843 c 0
473.003 232.001 m 0
 497.003 232.001 521.505 238.334 546.505 251.001 c 0
 571.505 263.668 603.338 286.001 642.005 318.001 c 1
 631.338 371.334 624.671 412.334 622.004 441.001 c 1
 447.004 419.001 l 2
 420.337 415.001 401.17 406.001 389.504 392.001 c 0
 377.837 378.001 372.004 358.334 372.004 333.001 c 0
 372.004 312.334 375.837 294.501 383.504 279.501 c 0
 391.171 264.501 402.671 252.834 418.004 244.501 c 0
 433.338 236.168 451.671 232.001 473.003 232.001 c 0
EndSplineSet
Substitution2: "'case' Case-Sensitive Forms lookup 28 subtable" AE
Substitution2: "'aalt' Access All Alternates lookup 0 subtable" AE
EndChar

StartChar: ccedilla
Encoding: 231 231 167
Width: 864
GlyphClass: 2
Flags: W
AnchorPoint: "Anchor-1" 500 0 basechar 0
AnchorPoint: "Anchor-0" 543 1053 basechar 0
LayerCount: 2
Fore
SplineSet
597 254 m 0
 652.333 254 722.001 269.67 806.001 301.003 c 1
 834.001 282.003 l 1
 798.001 13.0029 l 1
 732.667 -5.66406 657.334 -17.3311 572.001 -21.998 c 1
 557.001 -100.998 l 1
 632.001 -143.998 l 1
 667.334 -162.665 692.167 -183.165 706.5 -205.498 c 0
 720.833 -227.831 728 -253.331 728 -281.998 c 0
 728 -315.331 719 -345.331 701 -371.998 c 0
 683 -398.665 656.667 -419.665 622 -434.998 c 0
 587.333 -450.331 546.666 -457.998 499.999 -457.998 c 0
 433.999 -457.998 369.666 -437.998 306.999 -397.998 c 1
 328.999 -253.998 l 1
 343.999 -247.998 l 1
 390.666 -291.998 434.999 -313.998 476.999 -313.998 c 0
 508.999 -313.998 524.999 -300.331 524.999 -272.998 c 0
 524.999 -256.998 513.666 -243.331 490.999 -231.998 c 2
 380.999 -171.998 l 1
 414.999 -14.998 l 1
 298.999 6.33496 209.499 62.668 146.499 154.001 c 0
 83.499 245.334 51.999 364.667 51.999 512 c 0
 51.999 690 97.832 828.667 189.499 928 c 0
 281.166 1027.33 409.333 1077 574 1077 c 0
 678 1077 770.333 1059 851 1023 c 1
 793 744 l 1
 766 733 l 1
 686 770.333 622 789 574 789 c 0
 514 789 468.667 768.5 438 727.5 c 0
 407.333 686.5 392 626.667 392 548 c 0
 392 499.333 396.333 456.666 405 420 c 0
 413.667 383.333 426.667 352.666 444 328 c 0
 461.333 303.333 482.833 284.833 508.5 272.5 c 0
 534.167 260.167 563.667 254 597 254 c 0
EndSplineSet
Substitution2: "'case' Case-Sensitive Forms lookup 28 subtable" Ccedilla
Substitution2: "'aalt' Access All Alternates lookup 0 subtable" Ccedilla
EndChar

StartChar: egrave
Encoding: 232 232 168
Width: 1081
GlyphClass: 2
Flags: W
AnchorPoint: "Anchor-1" 408 0 basechar 0
AnchorPoint: "Anchor-0" 563 1051 basechar 0
LayerCount: 2
Fore
SplineSet
772 1172 m 1
 741 1169 l 1
 565 1264.34 410.333 1350.67 277 1428 c 1
 271 1460 l 1
 398 1656 l 1
 430 1658 l 1
 554 1546 696 1429 856 1307 c 1
 772 1172 l 1
961 469 m 1
 378 466 l 1
 387.334 388 413.167 330.167 455.5 292.5 c 0
 497.833 254.833 561 236 645 236 c 0
 739 236 839.333 259.667 946 307 c 1
 976 286 l 1
 924 34 l 1
 818.667 -5.33301 712.667 -25 606 -25 c 0
 431.333 -25 295.333 23.5 198 120.5 c 0
 100.667 217.5 52 352.333 52 525 c 0
 52 696.333 99.833 830.833 195.5 928.5 c 0
 291.167 1026.17 421 1075 585 1075 c 0
 723.667 1075 830.667 1037.67 906 963 c 0
 981.333 888.333 1019 784.333 1019 651 c 0
 1019 601.666 1014.67 557.333 1006 518 c 1
 961 469 l 1
707 660 m 1
 711.999 690 l 1
 711.999 793.333 666.666 845 575.999 845 c 0
 524.666 845 482.333 828 449 794 c 0
 415.667 760 393.667 711 383 647 c 1
 707 660 l 1
EndSplineSet
Substitution2: "'case' Case-Sensitive Forms lookup 28 subtable" Egrave
Substitution2: "'aalt' Access All Alternates lookup 0 subtable" Egrave
EndChar

StartChar: eacute
Encoding: 233 233 169
Width: 1081
GlyphClass: 2
Flags: W
AnchorPoint: "Anchor-1" 408 0 basechar 0
AnchorPoint: "Anchor-0" 563 1051 basechar 0
LayerCount: 2
Fore
SplineSet
406 1172 m 1
 322 1307 l 1
 482 1429 624 1546 748 1658 c 1
 780 1656 l 1
 908 1460 l 1
 901 1428 l 1
 767.667 1350.67 613 1264.33 437 1169 c 1
 406 1172 l 1
961 468.999 m 1
 378 465.999 l 1
 387.334 387.999 413.167 330.166 455.5 292.499 c 0
 497.833 254.832 561 235.999 645 235.999 c 0
 739 235.999 839.333 259.666 946 306.999 c 1
 976 285.999 l 1
 924 33.999 l 1
 818.667 -5.33398 712.667 -25.001 606 -25.001 c 0
 431.333 -25.001 295.333 23.499 198 120.499 c 0
 100.667 217.499 52 352.332 52 524.999 c 0
 52 696.332 99.833 830.832 195.5 928.499 c 0
 291.167 1026.17 421 1075 585 1075 c 0
 723.667 1075 830.667 1037.67 906 962.999 c 0
 981.333 888.332 1019 784.332 1019 650.999 c 0
 1019 601.665 1014.67 557.332 1006 517.999 c 1
 961 468.999 l 1
707 659.999 m 1
 711.999 689.999 l 1
 711.999 793.332 666.666 844.999 575.999 844.999 c 0
 524.666 844.999 482.333 827.999 449 793.999 c 0
 415.667 759.999 393.667 710.999 383 646.999 c 1
 707 659.999 l 1
EndSplineSet
Substitution2: "'case' Case-Sensitive Forms lookup 28 subtable" Eacute
Substitution2: "'aalt' Access All Alternates lookup 0 subtable" Eacute
EndChar

StartChar: ecircumflex
Encoding: 234 234 170
Width: 1081
GlyphClass: 2
Flags: W
AnchorPoint: "Anchor-1" 408 0 basechar 0
AnchorPoint: "Anchor-0" 563 1051 basechar 0
LayerCount: 2
Fore
SplineSet
279 1187 m 1
 191 1320 l 1
 293 1410.67 405.667 1519.67 529 1647 c 1
 600 1647 l 1
 700.667 1541.67 813 1432.67 937 1320 c 1
 849 1187 l 1
 815 1187 l 1
 703 1267 619.667 1331.33 565 1380 c 1
 513 1334.67 430 1270.33 316 1187 c 1
 279 1187 l 1
961 468.999 m 1
 378 465.999 l 1
 387.334 387.999 413.167 330.166 455.5 292.499 c 0
 497.833 254.832 561 235.999 645 235.999 c 0
 739 235.999 839.333 259.666 946 306.999 c 1
 976 285.999 l 1
 924 33.999 l 1
 818.667 -5.33398 712.667 -25.001 606 -25.001 c 0
 431.333 -25.001 295.333 23.499 198 120.499 c 0
 100.667 217.499 52 352.332 52 524.999 c 0
 52 696.332 99.833 830.832 195.5 928.499 c 0
 291.167 1026.17 421 1075 585 1075 c 0
 723.667 1075 830.667 1037.67 906 962.999 c 0
 981.333 888.332 1019 784.332 1019 650.999 c 0
 1019 601.665 1014.67 557.332 1006 517.999 c 1
 961 468.999 l 1
707 659.999 m 1
 711.999 689.999 l 1
 711.999 793.332 666.666 844.999 575.999 844.999 c 0
 524.666 844.999 482.333 827.999 449 793.999 c 0
 415.667 759.999 393.667 710.999 383 646.999 c 1
 707 659.999 l 1
EndSplineSet
Substitution2: "'case' Case-Sensitive Forms lookup 28 subtable" Ecircumflex
Substitution2: "'aalt' Access All Alternates lookup 0 subtable" Ecircumflex
EndChar

StartChar: edieresis
Encoding: 235 235 171
Width: 1081
GlyphClass: 2
Flags: W
AnchorPoint: "Anchor-1" 408 0 basechar 0
AnchorPoint: "Anchor-0" 563 1051 basechar 0
LayerCount: 2
Fore
SplineSet
356 1234 m 0
 304.667 1234 265.166 1248 237.499 1276 c 0
 209.832 1304 195.999 1343.67 195.999 1395 c 0
 195.999 1449 211.332 1491.67 241.999 1523 c 0
 272.666 1554.33 314.333 1570 367 1570 c 0
 416.333 1570 455 1555.83 483 1527.5 c 0
 511 1499.17 525 1460 525 1410 c 0
 525 1356 509.833 1313.17 479.5 1281.5 c 0
 449.167 1249.83 408 1234 356 1234 c 0
765.999 1234 m 0
 731.332 1234 702.166 1240.33 678.499 1253 c 0
 654.832 1265.67 636.832 1284 624.499 1308 c 0
 612.166 1332 605.999 1361 605.999 1395 c 0
 605.999 1449 621.332 1491.67 651.999 1523 c 0
 682.666 1554.33 724.666 1570 777.999 1570 c 0
 827.332 1570 865.832 1555.83 893.499 1527.5 c 0
 921.166 1499.17 934.999 1460 934.999 1410 c 0
 934.999 1356 919.666 1313.17 888.999 1281.5 c 0
 858.332 1249.83 817.332 1234 765.999 1234 c 0
961 469 m 1
 378 466 l 1
 387.334 388 413.167 330.167 455.5 292.5 c 0
 497.833 254.833 561 236 645 236 c 0
 739 236 839.333 259.667 946 307 c 1
 976 286 l 1
 924 34 l 1
 818.667 -5.33301 712.667 -25 606 -25 c 0
 431.333 -25 295.333 23.5 198 120.5 c 0
 100.667 217.5 52 352.333 52 525 c 0
 52 696.333 99.833 830.833 195.5 928.5 c 0
 291.167 1026.17 421 1075 585 1075 c 0
 723.667 1075 830.667 1037.67 906 963 c 0
 981.333 888.333 1019 784.333 1019 651 c 0
 1019 601.666 1014.67 557.333 1006 518 c 1
 961 469 l 1
707 660 m 1
 711.999 690 l 1
 711.999 793.333 666.666 845 575.999 845 c 0
 524.666 845 482.333 828 449 794 c 0
 415.667 760 393.667 711 383 647 c 1
 707 660 l 1
EndSplineSet
Substitution2: "'case' Case-Sensitive Forms lookup 28 subtable" Edieresis
Substitution2: "'aalt' Access All Alternates lookup 0 subtable" Edieresis
EndChar

StartChar: igrave
Encoding: 236 236 172
Width: 587
GlyphClass: 2
Flags: W
AnchorPoint: "Anchor-1" 0 0 basechar 0
AnchorPoint: "Anchor-0" 299 1053 basechar 0
LayerCount: 2
Fore
SplineSet
133 1658 m 1
 165 1660 l 1
 289 1548 431 1431 591 1309 c 1
 507 1174 l 1
 475 1172 l 1
 299 1266.67 144.333 1352.67 11 1430 c 1
 4 1462 l 1
 133 1658 l 1
455 466 m 1
 471 0 l 1
 114 0 l 1
 133 430 l 1
 120 1032 l 1
 473 1059 l 1
 455 466 l 1
EndSplineSet
Substitution2: "'case' Case-Sensitive Forms lookup 28 subtable" Igrave
Substitution2: "'aalt' Access All Alternates lookup 0 subtable" Igrave
EndChar

StartChar: iacute
Encoding: 237 237 173
Width: 587
GlyphClass: 2
Flags: W
AnchorPoint: "Anchor-1" 0 0 basechar 0
AnchorPoint: "Anchor-0" 299 1053 basechar 0
LayerCount: 2
Fore
SplineSet
514 1658 m 1
 642 1462 l 1
 636 1430 l 1
 502.667 1352.67 348 1266.67 172 1172 c 1
 140 1174 l 1
 56 1309 l 1
 216 1431 358 1548 482 1660 c 1
 514 1658 l 1
455 466 m 1
 471 0 l 1
 114 0 l 1
 133 430 l 1
 120 1032 l 1
 473 1059 l 1
 455 466 l 1
EndSplineSet
Substitution2: "'case' Case-Sensitive Forms lookup 28 subtable" Iacute
Substitution2: "'aalt' Access All Alternates lookup 0 subtable" Iacute
EndChar

StartChar: icircumflex
Encoding: 238 238 174
Width: 587
GlyphClass: 2
Flags: W
AnchorPoint: "Anchor-1" 0 0 basechar 0
AnchorPoint: "Anchor-0" 299 1053 basechar 0
LayerCount: 2
Fore
SplineSet
15 1189 m 1
 -73 1322 l 1
 34.333 1418 147.333 1527 266 1649 c 1
 336 1649 l 1
 436.667 1543.67 549 1434.67 673 1322 c 1
 585 1189 l 1
 552 1189 l 1
 436 1272.33 352.333 1337 301 1383 c 1
 249 1337.67 166 1273 52 1189 c 1
 15 1189 l 1
455 466 m 1
 471 0 l 1
 114 0 l 1
 133 430 l 1
 120 1032 l 1
 473 1059 l 1
 455 466 l 1
EndSplineSet
Substitution2: "'case' Case-Sensitive Forms lookup 28 subtable" Icircumflex
Substitution2: "'aalt' Access All Alternates lookup 0 subtable" Icircumflex
EndChar

StartChar: idieresis
Encoding: 239 239 175
Width: 587
GlyphClass: 2
Flags: W
AnchorPoint: "Anchor-1" 0 0 basechar 0
AnchorPoint: "Anchor-0" 299 1053 basechar 0
LayerCount: 2
Fore
SplineSet
122 1573 m 0
 171.333 1573 209.833 1558.67 237.5 1530 c 0
 265.167 1501.33 279 1462 279 1412 c 0
 279 1358.67 263.833 1316 233.5 1284 c 0
 203.167 1252 162 1236 110 1236 c 0
 58.667 1236 19.167 1250.17 -8.5 1278.5 c 0
 -36.167 1306.83 -50 1346.33 -50 1397 c 0
 -50 1451 -34.5 1493.83 -3.5 1525.5 c 0
 27.5 1557.17 69.333 1573 122 1573 c 0
494 1573 m 0
 543.333 1573 581.833 1558.67 609.5 1530 c 0
 637.167 1501.33 651 1462 651 1412 c 0
 651 1358.67 635.667 1316 605 1284 c 0
 574.333 1252 533.333 1236 482 1236 c 0
 430.667 1236 391.167 1250.17 363.5 1278.5 c 0
 335.833 1306.83 322 1346.33 322 1397 c 0
 322 1451 337.5 1493.83 368.5 1525.5 c 0
 399.5 1557.17 441.333 1573 494 1573 c 0
455 466 m 1
 471 0 l 1
 114 0 l 1
 133 430 l 1
 120 1032 l 1
 473 1059 l 1
 455 466 l 1
EndSplineSet
Ligature2: "'liga' Standard Ligatures lookup 30 subtable" dieresis i
Substitution2: "'case' Case-Sensitive Forms lookup 28 subtable" Idieresis
Substitution2: "'aalt' Access All Alternates lookup 0 subtable" Idieresis
EndChar

StartChar: eth
Encoding: 240 240 176
Width: 1128
GlyphClass: 2
Flags: W
LayerCount: 2
Fore
SplineSet
910 1460 m 1
 716 1343 l 1
 831.333 1234.33 917.833 1114 975.5 982 c 0
 1033.17 850 1062 709.667 1062 561 c 0
 1062 373 1017.33 228.333 928 127 c 0
 838.666 25.667 711.333 -25 546 -25 c 0
 392 -25 273 19.833 189 109.5 c 0
 105 199.167 63 330.334 63 503.001 c 0
 63 674.334 104.5 805.667 187.5 897 c 0
 270.5 988.333 391.333 1034 550 1034 c 0
 578.667 1034 599.667 1033.33 613 1032 c 1
 573.667 1085.33 522.667 1137 460 1187 c 1
 202 1032 l 1
 174 1043 l 1
 101 1178 l 1
 295 1296 l 1
 253 1318.67 187.667 1351 99 1393 c 1
 99 1433 l 1
 327 1599 l 1
 349 1599 l 1
 435 1553.67 509.333 1508 572 1462 c 1
 808 1604 l 1
 838 1595 l 1
 910 1460 l 1
570 205 m 0
 632 205 675.333 228.167 700 274.5 c 0
 724.667 320.833 737 403.333 737 522 c 0
 737 602.667 731.333 676.667 720 744 c 1
 678.667 775.333 628.667 791 570 791 c 0
 504 791 457 770 429 728 c 0
 401 686 387 612.333 387 507 c 0
 387 395.667 401.5 317.5 430.5 272.5 c 0
 459.5 227.5 506 205 570 205 c 0
EndSplineSet
Substitution2: "'case' Case-Sensitive Forms lookup 28 subtable" Eth
Substitution2: "'aalt' Access All Alternates lookup 0 subtable" Eth
EndChar

StartChar: ntilde
Encoding: 241 241 177
Width: 1200
GlyphClass: 2
Flags: W
AnchorPoint: "Anchor-1" 612 0 basechar 0
AnchorPoint: "Anchor-0" 640 1053 basechar 0
LayerCount: 2
Fore
SplineSet
329 1206 m 1
 226 1309 l 1
 226 1339 l 1
 392 1561 l 1
 424 1573 l 1
 460.667 1568.33 522.667 1554 610 1530 c 0
 697.333 1506 750.666 1494 769.999 1494 c 0
 778.672 1494 787.339 1495.83 796 1499.5 c 0
 804.667 1503.17 812.167 1507 818.5 1511 c 0
 824.833 1515 833 1522.17 843 1532.5 c 0
 853 1542.83 860.667 1550.83 866 1556.5 c 0
 871.333 1562.17 880 1572.17 892 1586.5 c 0
 904 1600.83 912.333 1611 917 1617 c 1
 948 1617 l 1
 1052 1514 l 1
 1052 1485 l 1
 886 1262 l 1
 854 1248 l 1
 818 1253.33 756.167 1267.83 668.5 1291.5 c 0
 580.833 1315.17 527 1327 507 1327 c 0
 499.667 1327 492.667 1326 486 1324 c 0
 479.333 1322 472.333 1318.5 465 1313.5 c 0
 457.667 1308.5 451.167 1303.83 445.5 1299.5 c 0
 439.833 1295.17 432.833 1288.5 424.5 1279.5 c 0
 416.167 1270.5 409.5 1263.17 404.5 1257.5 c 0
 399.5 1251.81 392.167 1243.15 382.5 1231.5 c 0
 372.832 1219.83 365.665 1211.33 361 1206 c 1
 329 1206 l 1
735 0 m 1
 755.004 628 l 1
 755.004 662 750.171 690.5 740.504 713.5 c 0
 730.837 736.5 716.67 754 698.003 766 c 0
 679.336 778 656.003 784 628.003 784 c 0
 577.336 784 519.669 761.333 455.002 716 c 1
 455.002 466 l 1
 471.002 0 l 1
 114.002 0 l 1
 133.002 430 l 1
 120.002 1032 l 1
 458.002 1059 l 1
 458.002 903 l 1
 473.002 903 l 1
 554.335 980.333 643.668 1035.33 741.001 1068 c 1
 854.334 1068 940.667 1042 1000 990 c 0
 1059.33 938 1088 864 1086 768 c 2
 1079 466 l 1
 1092 0 l 1
 735 0 l 1
EndSplineSet
Substitution2: "'case' Case-Sensitive Forms lookup 28 subtable" Ntilde
Substitution2: "'aalt' Access All Alternates lookup 0 subtable" Ntilde
EndChar

StartChar: ograve
Encoding: 242 242 178
Width: 1114
GlyphClass: 2
Flags: W
AnchorPoint: "Anchor-1" 0 0 basechar 0
AnchorPoint: "Anchor-0" 561 1053 basechar 0
LayerCount: 2
Fore
SplineSet
396 1658 m 1
 428 1660 l 1
 552 1548 694 1431 854 1309 c 1
 770 1174 l 1
 739 1172 l 1
 563 1266.67 408.333 1352.67 275 1430 c 1
 268 1462 l 1
 396 1658 l 1
574 1077 m 0
 733.333 1077 854.832 1031.83 938.499 941.501 c 0
 1022.17 851.168 1064 720.001 1064 548.001 c 0
 1064 362.001 1019.33 220.001 929.999 122.001 c 0
 840.666 24.001 710.999 -24.999 540.999 -24.999 c 0
 381.666 -24.999 260.333 20.168 177 110.501 c 0
 93.667 200.834 52 331.667 52 503 c 0
 52 689.667 96.5 832 185.5 930 c 0
 274.5 1028 404 1077 574 1077 c 0
549.999 836.001 m 0
 489.332 836.001 446.664 816.169 421.998 776.502 c 0
 397.331 736.835 384.998 667.335 384.998 568.002 c 0
 384.998 476.002 390.831 404.169 402.498 352.502 c 0
 414.165 300.835 432.832 264.002 458.499 242.002 c 0
 484.166 220.002 519.666 209.002 564.999 209.002 c 0
 624.332 209.002 666.332 229.002 690.999 269.002 c 0
 715.666 309.002 727.999 379.335 727.999 480.002 c 0
 727.999 570.002 722.166 640.669 710.499 692.002 c 0
 698.832 743.335 680.332 780.168 654.999 802.501 c 0
 629.666 824.834 594.666 836.001 549.999 836.001 c 0
EndSplineSet
Substitution2: "'case' Case-Sensitive Forms lookup 28 subtable" Ograve
Substitution2: "'aalt' Access All Alternates lookup 0 subtable" Ograve
EndChar

StartChar: oacute
Encoding: 243 243 179
Width: 1114
GlyphClass: 2
Flags: W
AnchorPoint: "Anchor-1" 0 0 basechar 0
AnchorPoint: "Anchor-0" 561 1053 basechar 0
LayerCount: 2
Fore
SplineSet
778 1658 m 1
 905 1462 l 1
 899 1430 l 1
 765.667 1352.67 610.667 1266.67 434 1172 c 1
 404 1174 l 1
 320 1309 l 1
 480 1431 622 1548 746 1660 c 1
 778 1658 l 1
574 1077 m 0
 733.333 1077 854.832 1031.83 938.499 941.501 c 0
 1022.17 851.168 1064 720.001 1064 548.001 c 0
 1064 362.001 1019.33 220.001 929.999 122.001 c 0
 840.666 24.001 710.999 -24.999 540.999 -24.999 c 0
 381.666 -24.999 260.333 20.168 177 110.501 c 0
 93.667 200.834 52 331.667 52 503 c 0
 52 689.667 96.5 832 185.5 930 c 0
 274.5 1028 404 1077 574 1077 c 0
549.999 836.001 m 0
 489.332 836.001 446.664 816.169 421.998 776.502 c 0
 397.331 736.835 384.998 667.335 384.998 568.002 c 0
 384.998 476.002 390.831 404.169 402.498 352.502 c 0
 414.165 300.835 432.832 264.002 458.499 242.002 c 0
 484.166 220.002 519.666 209.002 564.999 209.002 c 0
 624.332 209.002 666.332 229.002 690.999 269.002 c 0
 715.666 309.002 727.999 379.335 727.999 480.002 c 0
 727.999 570.002 722.166 640.669 710.499 692.002 c 0
 698.832 743.335 680.332 780.168 654.999 802.501 c 0
 629.666 824.834 594.666 836.001 549.999 836.001 c 0
EndSplineSet
Substitution2: "'case' Case-Sensitive Forms lookup 28 subtable" Oacute
Substitution2: "'aalt' Access All Alternates lookup 0 subtable" Oacute
EndChar

